<?xml version="1.0" encoding="utf-8"?>
<!-- Generator: Adobe Illustrator 26.0.1, SVG Export Plug-In . SVG Version: 6.00 Build 0)  -->
<svg version="1.1" id="Calque_1" xmlns="http://www.w3.org/2000/svg" xmlns:xlink="http://www.w3.org/1999/xlink" x="0px" y="0px"
	 viewBox="0 0 147.9 25.3" style="enable-background:new 0 0 147.9 25.3;" xml:space="preserve">
<style type="text/css">
	.st0{fill:#323233;}
	.st1{fill:#2960E3;}
</style>
<path id="Tracé_8930" class="st0" d="M39.6,6.1h3.2l1.5,9.3h0.6l1.8-9H50l1.8,9h0.6l1.5-9.3h3.2l-2.3,12h-5l-1.4-7.3L47,18.1h-5
	L39.6,6.1z M61.9,13.5c0,0.6,0.2,1.2,0.6,1.6c0.5,0.4,1,0.5,1.6,0.5c1.5,0,2.8,0,4-0.1l0.7-0.1v2.4c-1.6,0.4-3.3,0.6-5,0.7
	c-1.5,0.1-2.9-0.4-3.9-1.4c-0.8-1-1.2-2.5-1.2-4.7c0-4.3,1.8-6.5,5.3-6.5s5.2,1.8,5.2,5.4L69,13.5H61.9z M66,11
	c0.1-0.7-0.1-1.4-0.5-2c-0.4-0.4-1-0.6-1.6-0.6c-0.6-0.1-1.2,0.2-1.6,0.6c-0.4,0.6-0.5,1.3-0.5,2H66z M77.5,5.8
	c1.4-0.1,2.7,0.4,3.7,1.4c0.8,0.9,1.2,2.6,1.2,4.9c0,2.4-0.4,4-1.3,4.9s-2.4,1.4-4.6,1.4c-0.7,0-1.9-0.1-3.8-0.2l-0.9-0.1V1.3H75
	v5.2C75.8,6.1,76.6,5.9,77.5,5.8z M76.4,15.5c0.8,0.1,1.6-0.2,2.2-0.8c0.4-0.9,0.6-1.8,0.6-2.8c0-2.2-0.7-3.2-2-3.2
	c-0.6,0-1.2,0.1-1.8,0.2L75.1,9v6.4C75.7,15.5,76.2,15.5,76.4,15.5L76.4,15.5z M88.2,18.1H85v-12h3.2v0.7C89,6.2,90,5.9,91,5.8
	c1.1-0.1,2.2,0.3,3,1.1c1.2-0.7,2.6-1.1,4-1.1c1.3-0.1,2.5,0.4,3.3,1.4c0.7,1.4,1,2.9,0.9,4.4v6.5H99v-6.4c0-0.8-0.1-1.5-0.3-2.3
	c-0.2-0.5-0.8-0.8-1.3-0.7c-0.6,0-1.3,0.1-1.9,0.3l-0.4,0.1c0.1,1.2,0.1,2.1,0.1,2.7V18H92v-6.2c0-0.8-0.1-1.7-0.3-2.5
	c-0.3-0.5-0.8-0.8-1.4-0.7c-0.6,0-1.3,0.1-1.8,0.3L88.2,9V18.1L88.2,18.1z M114.6,9.8v5c0,0.3,0.1,0.6,0.2,0.8s0.4,0.3,0.6,0.3
	l-0.1,2.4c-0.7,0-1.3,0-2-0.2c-0.5-0.1-1-0.4-1.5-0.7c-1.1,0.5-2.3,0.8-3.5,0.8c-2.5,0-3.7-1.3-3.7-3.9c-0.1-1,0.3-2,1-2.7
	c0.9-0.6,2-0.9,3.2-0.9l2.6-0.2V9.8c0-0.4-0.1-0.7-0.3-1c-0.3-0.2-0.7-0.3-1.1-0.3l-4.5,0.2l-0.1-2.2c1.6-0.4,3.2-0.7,4.9-0.7
	c1.2-0.1,2.4,0.2,3.3,1C114.3,7.6,114.7,8.7,114.6,9.8z M109.2,13c-0.7,0-1.3,0.5-1.4,1.2c0,0.1,0,0.1,0,0.2c0,0.9,0.4,1.3,1.2,1.3
	c0.7,0,1.3-0.1,2-0.3l0.4-0.1v-2.6L109.2,13z M121.1,18.1h-3.2v-12h3.2v0.7c0.9-0.6,1.9-0.9,3-1c1.3-0.1,2.5,0.4,3.3,1.4
	c0.7,1.3,1,2.9,0.9,4.4v6.5h-3.2v-6.4c0-0.8-0.1-1.5-0.4-2.3c-0.3-0.5-0.9-0.8-1.4-0.7c-0.6,0-1.3,0.1-1.9,0.3l-0.3,0.1V18.1z
	 M131.4,18.1v-12h3.2v12H131.4z M131.4,4.6V1.3h3.2v3.3C134.6,4.6,131.4,4.6,131.4,4.6z M147.1,9.8v5c0,0.3,0.1,0.6,0.2,0.8
	c0.1,0.2,0.4,0.3,0.6,0.3l-0.1,2.4c-0.7,0-1.3,0-2-0.2c-0.5-0.1-1-0.4-1.5-0.7c-1.1,0.5-2.3,0.8-3.5,0.8c-2.5,0-3.7-1.3-3.7-3.9
	c-0.1-1,0.3-2,1-2.7c0.9-0.6,2-0.9,3.2-0.9l2.6-0.2V9.8c0-0.4-0.1-0.7-0.3-1c-0.3-0.2-0.7-0.3-1.1-0.3L138,8.7l-0.1-2.2
	c1.6-0.4,3.2-0.7,4.9-0.7c1.2-0.1,2.4,0.2,3.3,1C146.8,7.6,147.1,8.7,147.1,9.8L147.1,9.8z M141.7,13c-0.7,0-1.3,0.5-1.4,1.2
	c0,0.1,0,0.1,0,0.2c0,0.9,0.4,1.3,1.2,1.3c0.7,0,1.3-0.1,2-0.3l0.4-0.1v-2.6L141.7,13z"/>
<path id="Tracé_2499" class="st1" d="M34.9,11.3L24.1,0.5c-0.6-0.6-1.6-0.6-2.2,0l-3,3c-0.6,0.6-1.6,0.6-2.2,0l-3-3
	c-0.6-0.6-1.6-0.6-2.2,0L0.6,11.3c-0.8,0.8-0.8,2.2,0,3L11,24.7c0.8,0.8,2.2,0.8,3,0l0,0l2.6-2.6c0.6-0.6,1.6-0.6,2.2,0l2.6,2.6
	c0.8,0.8,2.2,0.8,3,0l0,0l10.4-10.4C35.7,13.4,35.7,12.1,34.9,11.3L34.9,11.3L34.9,11.3z M11.4,19.1l-5.2-5.2
	c-0.6-0.6-0.6-1.6,0-2.2l5.2-5.2c0.6-0.6,1.6-0.6,2.2,0l0,0l0,0c0.6,0.6,0.6,1.6,0,2.2L11,11.3c-0.8,0.8-0.8,2.2,0,3l0,0l2.6,2.6
	c0.6,0.6,0.6,1.6,0,2.2l0,0C13,19.7,12,19.7,11.4,19.1z M18.9,11.6L18.9,11.6c0.6,0.6,0.6,1.6,0,2.2l0,0c-0.6,0.6-1.6,0.6-2.2,0l0,0
	c-0.6-0.6-0.6-1.6,0-2.2l0,0C17.3,11,18.2,11,18.9,11.6L18.9,11.6z M24.5,14.3c0.8-0.8,0.8-2.2,0-3l-2.6-2.6c-0.6-0.6-0.6-1.6,0-2.2
	l0,0l0,0c0.6-0.6,1.6-0.6,2.2,0l5.2,5.2c0.6,0.6,0.6,1.6,0,2.2l-5.2,5.2c-0.6,0.6-1.6,0.6-2.2,0l0,0c-0.6-0.6-0.6-1.6,0-2.2
	L24.5,14.3z"/>
</svg>
