<svg xmlns="http://www.w3.org/2000/svg" xmlns:xlink="http://www.w3.org/1999/xlink" width="152" height="230" viewBox="0 0 152 230">
  <defs>
    <clipPath id="clip-path">
      <rect id="Rectangle_1724" data-name="Rectangle 1724" width="152" height="230" transform="translate(0 5409)" fill="#fff" stroke="#707070" stroke-width="1"/>
    </clipPath>
  </defs>
  <g id="Groupe_de_masques_70" data-name="Groupe de masques 70" transform="translate(0 -5409)" clip-path="url(#clip-path)">
    <path id="Tracé_5622" data-name="Tracé 5622" d="M1024.784,509.842,926.752,411.8a14.266,14.266,0,0,0-20.175,0l-27.1,27.1a14.282,14.282,0,0,1-20.189,0l-27.1-27.1a14.282,14.282,0,0,0-20.189,0l-98.044,98.044a19.172,19.172,0,0,0,0,27.1l94.6,94.568a19.141,19.141,0,0,0,27.1,0l23.639-23.639a14.283,14.283,0,0,1,20.189,0l23.639,23.639a19.142,19.142,0,0,0,27.1,0l94.567-94.568a19.141,19.141,0,0,0,0-27.1ZM812,580.771,764.7,533.481a14.286,14.286,0,0,1,0-20.189L812,466a14.283,14.283,0,0,1,20.189,0h0a14.283,14.283,0,0,1,0,20.189l-23.638,23.652a19.141,19.141,0,0,0,0,27.1l23.638,23.639a14.283,14.283,0,0,1,0,20.189h0A14.283,14.283,0,0,1,812,580.771Zm67.48-67.48h0a14.283,14.283,0,0,1,0,20.189h0a14.283,14.283,0,0,1-20.189,0h0a14.282,14.282,0,0,1,0-20.189h0A14.283,14.283,0,0,1,879.476,513.292Zm50.741,23.652a19.175,19.175,0,0,0,0-27.1L906.577,486.19a14.26,14.26,0,0,1,0-20.189h0a14.267,14.267,0,0,1,20.175,0l47.292,47.291a14.283,14.283,0,0,1,0,20.189l-47.292,47.291a14.267,14.267,0,0,1-20.175,0h0a14.281,14.281,0,0,1,0-20.189Z" transform="translate(860.615 6046.378) rotate(180)" fill="#f8f8fa"/>
  </g>
</svg>
