<?xml version="1.0" encoding="utf-8"?>
<!-- Generator: Adobe Illustrator 26.0.1, SVG Export Plug-In . SVG Version: 6.00 Build 0)  -->
<svg version="1.1" id="Calque_1" xmlns="http://www.w3.org/2000/svg" xmlns:xlink="http://www.w3.org/1999/xlink" x="0px" y="0px"
	 viewBox="0 0 200 141.1" style="enable-background:new 0 0 200 141.1;" xml:space="preserve">
<style type="text/css">
	.st0{clip-path:url(#SVGID_00000150797610182707985350000016347765863199698305_);}
	.st1{fill:#F8F8FA;}
</style>
<g>
	<defs>
		<rect id="SVGID_1_" width="200" height="141.1"/>
	</defs>
	<clipPath id="SVGID_00000144322444859742999420000008561403436019507635_">
		<use xlink:href="#SVGID_1_"  style="overflow:visible;"/>
	</clipPath>
	<g style="clip-path:url(#SVGID_00000144322444859742999420000008561403436019507635_);">
		<g id="Groupe_de_masques_60">
			<path id="Tracé_5621" class="st1" d="M192.6-15.8L71.1-137.3c-6.9-6.9-18.1-6.9-25,0l0,0l-33.6,33.6c-6.9,6.9-18.1,6.9-25,0
				l-33.6-33.6c-6.9-6.9-18.1-6.9-25,0L-192.6-15.8c-9.3,9.3-9.3,24.3,0,33.6L-75.4,135c9.3,9.3,24.3,9.3,33.5,0l0,0l29.3-29.3
				c6.9-6.9,18.1-6.9,25,0L41.8,135c9.3,9.3,24.3,9.3,33.5,0l0,0L192.6,17.8C201.9,8.6,201.9-6.5,192.6-15.8
				C192.6-15.7,192.6-15.7,192.6-15.8L192.6-15.8L192.6-15.8z M-71.1,72.2l-58.6-58.6c-6.9-6.9-6.9-18.1,0-25l58.6-58.6
				c6.9-6.9,18.1-6.9,25,0l0,0c6.9,6.9,6.9,18.1,0,25l-29.3,29.3c-9.3,9.3-9.3,24.3,0,33.5l0,0l29.3,29.3c6.9,6.9,6.9,18.1,0,25l0,0
				C-53,79-64.2,79-71.1,72.2z M12.5-11.5L12.5-11.5c6.9,6.9,6.9,18.1,0,25l0,0c-6.9,6.9-18.1,6.9-25,0l0,0c-6.9-6.9-6.9-18.1,0-25
				l0,0C-5.6-18.4,5.6-18.4,12.5-11.5z M75.4,17.8c9.3-9.3,9.3-24.3,0-33.6L46.1-45.1c-6.9-6.9-6.9-18.1,0-25l0,0l0,0
				c6.9-6.9,18.1-6.9,25,0l58.6,58.6c6.9,6.9,6.9,18.1,0,25L71.1,72.2c-6.9,6.9-18.1,6.9-25,0l0,0c-6.9-6.9-6.9-18.1,0-25L75.4,17.8
				z"/>
		</g>
	</g>
</g>
</svg>
