<svg id="Calque_1" data-name="Calque 1" xmlns="http://www.w3.org/2000/svg" xmlns:xlink="http://www.w3.org/1999/xlink" viewBox="0 0 200 141.3"><defs><style>.cls-1{fill:none;}.cls-2{clip-path:url(#clip-path);}.cls-3{fill:#2960e3;}</style><clipPath id="clip-path"><rect class="cls-1" width="200" height="141.3"/></clipPath></defs><g class="cls-2"><g id="Groupe_de_masques_34" data-name="Groupe de masques 34"><path id="Tracé_2500" data-name="Tracé 2500" class="cls-3" d="M7,15.31,128.33,136.7a17.66,17.66,0,0,0,25,0h0l33.56-33.55a17.68,17.68,0,0,1,25,0l33.55,33.55a17.68,17.68,0,0,0,25,0L391.81,15.31a23.73,23.73,0,0,0,0-33.55L274.69-135.33a23.7,23.7,0,0,0-33.52,0l0,0-29.27,29.27a17.68,17.68,0,0,1-25,0L157.6-135.33a23.7,23.7,0,0,0-33.52,0l0,0L7-18.24a23.7,23.7,0,0,0,0,33.51ZM270.42-72.51,329-14a17.68,17.68,0,0,1,0,25L270.42,69.59a17.67,17.67,0,0,1-25,0h0a17.68,17.68,0,0,1,0-25l29.26-29.28a23.7,23.7,0,0,0,0-33.52l0,0L245.42-47.51a17.68,17.68,0,0,1,0-25h0A17.68,17.68,0,0,1,270.42-72.51ZM186.87,11h0a17.68,17.68,0,0,1,0-25h0a17.68,17.68,0,0,1,25,0h0a17.68,17.68,0,0,1,0,25h0a17.68,17.68,0,0,1-25,0ZM124.05-18.24a23.73,23.73,0,0,0,0,33.55l29.26,29.28a17.66,17.66,0,0,1,0,25l0,0h0a17.66,17.66,0,0,1-25,0L69.78,11a17.68,17.68,0,0,1,0-25l58.55-58.55a17.68,17.68,0,0,1,25,0h0a17.67,17.67,0,0,1,0,25Z"/></g></g></svg>