<svg id="Calque_1" data-name="Calque 1" xmlns="http://www.w3.org/2000/svg" xmlns:xlink="http://www.w3.org/1999/xlink" viewBox="0 0 200 141.09"><defs><style>.cls-1{fill:none;}.cls-2{clip-path:url(#clip-path);}.cls-3{fill:#e55934;}</style><clipPath id="clip-path"><rect class="cls-1" width="200" height="141.09"/></clipPath></defs><g class="cls-2"><g id="Groupe_de_masques_60" data-name="Groupe de masques 60"><path id="Tracé_5621" data-name="Tracé 5621" class="cls-3" d="M7.37,156.87,128.88,278.39a17.7,17.7,0,0,0,25,0h0l33.59-33.6a17.71,17.71,0,0,1,25,0l33.6,33.6a17.71,17.71,0,0,0,25,0L392.65,156.87a23.77,23.77,0,0,0,0-33.6L275.4,6.05a23.73,23.73,0,0,0-33.55,0l0,0-29.3,29.3a17.7,17.7,0,0,1-25,0l-29.3-29.3a23.73,23.73,0,0,0-33.55,0l0,0L7.37,123.27a23.72,23.72,0,0,0,0,33.55l0,0ZM271.12,69l58.62,58.62a17.71,17.71,0,0,1,0,25l-58.62,58.62a17.71,17.71,0,0,1-25,0h0a17.7,17.7,0,0,1,0-25l29.3-29.31a23.74,23.74,0,0,0,0-33.56l0,0L246.1,94a17.69,17.69,0,0,1,0-25h0A17.69,17.69,0,0,1,271.12,69Zm-83.64,83.64h0a17.7,17.7,0,0,1,0-25h0a17.69,17.69,0,0,1,25,0h0a17.7,17.7,0,0,1,0,25h0a17.71,17.71,0,0,1-25,0Zm-62.89-29.32a23.76,23.76,0,0,0,0,33.59l29.3,29.31a17.68,17.68,0,0,1,0,25l0,0h0a17.7,17.7,0,0,1-25,0L70.26,152.58a17.69,17.69,0,0,1,0-25L128.88,69a17.68,17.68,0,0,1,25,0h0a17.71,17.71,0,0,1,0,25Z"/></g></g></svg>