<?xml version="1.0" encoding="utf-8"?>
<!-- Generator: Adobe Illustrator 26.0.1, SVG Export Plug-In . SVG Version: 6.00 Build 0)  -->
<svg version="1.1" id="line" xmlns="http://www.w3.org/2000/svg" xmlns:xlink="http://www.w3.org/1999/xlink" x="0px" y="0px"
	 viewBox="0 0 512 512" style="enable-background:new 0 0 512 512;" xml:space="preserve">
<style type="text/css">
	.st0{fill:#E55934;}
	.st1{fill:#222629;}
</style>
<g>
	<path class="st0" d="M502.9,230.4c-2.2-3.8-7.1-5.1-10.9-2.9l-62,35.8l4,2.3c2.5,1.4,4,4.1,4,6.9v4.6l62-35.8
		C503.8,239.2,505.1,234.3,502.9,230.4L502.9,230.4z"/>
	<path class="st0" d="M182.6,265.6l4-2.3l-62-35.8c-3.8-2.2-8.7-0.8-10.9,3c-2.2,3.8-0.9,8.6,2.9,10.9l62,35.8v-4.6
		C178.6,269.7,180.1,267,182.6,265.6z"/>
	<path class="st0" d="M430,263.3l-117.7-68c-2.5-1.4-5.5-1.4-8,0l-117.7,68l121.7,70.3L430,263.3z"/>
	<path class="st0" d="M178.6,413.1c0,2.9,1.5,5.5,4,6.9l117.7,68V347.4l-121.7-70.3L178.6,413.1L178.6,413.1z"/>
	<path class="st0" d="M316.3,488L434,420c2.5-1.4,4-4.1,4-6.9V277.2l-121.7,70.3V488z"/>
</g>
<path class="st1" d="M333.1,264.8v-81.6c21.7-4.2,35.8-25.3,31.6-46.9s-25.3-35.8-46.9-31.6c-8.7,1.7-16.6,6.2-22.4,12.9l-71-41
	c1.4-4,2.2-8.3,2.2-12.6c0-22.1-17.9-40-40-40s-40,17.9-40,40c0.1,4.3,0.8,8.5,2.2,12.6l-71,41c-14.6-16.5-39.8-18-56.4-3.4
	S3.4,154,18,170.5c5.8,6.5,13.5,10.9,22,12.7v81.6C18.3,269,4.2,290.1,8.4,311.7c4.2,21.7,25.3,35.8,46.9,31.6
	c8.7-1.7,16.6-6.2,22.4-12.9l71,41c-1.4,4-2.2,8.3-2.2,12.6c0,22.1,17.9,40,40,40s40-17.9,40-40c-0.1-4.3-0.8-8.5-2.2-12.6l71-41
	c14.6,16.5,39.8,18.1,56.4,3.4c16.5-14.6,18.1-39.8,3.4-56.4C349.4,271,341.7,266.6,333.1,264.8L333.1,264.8z M325.1,120
	c13.2,0.5,23.6,11.6,23.2,24.8c-0.4,12.4-10.3,22.5-22.7,23.1c-0.2,0-0.7,0-0.9,0c-13.1-0.2-23.5-10.9-23.6-24
	C301.3,130.8,311.9,120.1,325.1,120z M186.6,40c13.3,0,24,10.7,24,24s-10.7,24-24,24s-24-10.7-24-24S173.3,40,186.6,40z M85.8,131.4
	l71-41c14.3,16.5,39.3,18.2,55.7,3.9c1.4-1.2,2.7-2.5,3.9-3.9l71,41c-3,8.1-3,17,0,25.2l-71,41c-14.3-16.4-39.3-18.2-55.7-3.9
	c-1.4,1.2-2.7,2.5-3.9,3.9l-71-41C88.7,148.5,88.7,139.6,85.8,131.4L85.8,131.4z M210.6,224c0,13.3-10.7,24-24,24s-24-10.7-24-24
	s10.7-24,24-24S210.6,210.7,210.6,224z M24,144c0-13.3,10.7-24,24-24s24,10.7,24,24c0,13.1-10.5,23.8-23.6,24c-0.2,0-0.7,0-0.9,0
	C34.5,167.7,24,157.1,24,144z M48,328c-13.3,0-24-10.7-24-24c0-31.6,48-32.1,48,0C71.9,317.2,61.2,327.9,48,328z M156.8,357.6
	l-71-41c1.4-4.1,2.2-8.3,2.2-12.6c0-19-13.4-35.4-32-39.2v-81.6c8.5-1.8,16.1-6.3,21.8-12.8l71,41c-1.4,4-2.2,8.3-2.2,12.6
	c0,19,13.4,35.4,32,39.2v81.6C170.1,346.6,162.5,351.1,156.8,357.6L156.8,357.6z M186.6,408c-13.3,0-24-10.7-24-24s10.7-24,24-24
	s24,10.7,24,24S199.8,408,186.6,408z M285.1,304c0.1,4.3,0.8,8.5,2.2,12.6l-71,41c-5.7-6.5-13.3-11-21.8-12.8v-81.6
	c18.6-3.8,32-20.2,32-39.2c-0.1-4.3-0.8-8.5-2.2-12.6l71-41c5.7,6.5,13.3,11,21.8,12.8v81.6C298.5,268.6,285.1,285,285.1,304
	L285.1,304z M325.1,328c-13.2-0.1-23.9-10.8-24-24c0-13.1,10.5-23.7,23.6-24h0.9c13.2,0.7,23.4,12,22.7,25.2
	C347.6,317.7,337.6,327.6,325.1,328z"/>
</svg>
