<?xml version="1.0" encoding="utf-8"?>
<!-- Generator: Adobe Illustrator 26.0.1, SVG Export Plug-In . SVG Version: 6.00 Build 0)  -->
<svg version="1.1" id="line" xmlns="http://www.w3.org/2000/svg" xmlns:xlink="http://www.w3.org/1999/xlink" x="0px" y="0px"
	 viewBox="0 0 512 512" style="enable-background:new 0 0 512 512;" xml:space="preserve">
<style type="text/css">
	.st0{fill:#E55934;}
	.st1{fill:#222629;}
</style>
<path class="st0" d="M504,156v-40c0-13.3-10.7-24-24-24H128c-13.3,0-24,10.7-24,24v40H504z"/>
<path class="st0" d="M104,172v296c0,13.3,10.7,24,24,24h352c13.3,0,24-10.7,24-24V172H104z M228,436c-26.5,0-48-21.5-48-48
	s21.5-48,48-48s48,21.5,48,48S254.5,436,228,436z M276,324h-96c-4.4,0-8-3.6-8-8s3.6-8,8-8h96c4.4,0,8,3.6,8,8S280.4,324,276,324z
	 M276,276h-96c-4.4,0-8-3.6-8-8s3.6-8,8-8h96c4.4,0,8,3.6,8,8S280.4,276,276,276z M276,228h-96c-4.4,0-8-3.6-8-8s3.6-8,8-8h96
	c4.4,0,8,3.6,8,8S280.4,228,276,228z M436,428c0,4.4-3.6,8-8,8h-80c-4.4,0-8-3.6-8-8V260c0-4.4,3.6-8,8-8h80c4.4,0,8,3.6,8,8V428z
	 M428,228h-80c-4.4,0-8-3.6-8-8s3.6-8,8-8h80c4.4,0,8,3.6,8,8S432.4,228,428,228z"/>
<g>
	<path class="st1" d="M129.6,256.8l-48-64c-2.7-3.5-1.9-8.5,1.6-11.2c1.4-1,3.1-1.6,4.8-1.6h16v-64c0-4.4,3.6-8,8-8h48
		c4.4,0,8,3.6,8,8v64h16c4.4,0,8,3.6,8,8c0,1.7-0.6,3.4-1.6,4.8l-48,64c-2.7,3.5-7.7,4.3-11.2,1.6
		C130.6,257.9,130.1,257.4,129.6,256.8L129.6,256.8z M104,196l32,42.6l32-42.6h-8c-4.4,0-8-3.6-8-8v-64h-32v64c0,4.4-3.6,8-8,8H104z
		"/>
	<path class="st1" d="M288,260h-48c-4.4,0-8-3.6-8-8v-64h-16c-4.4,0-8-3.6-8-8c0-1.7,0.6-3.4,1.6-4.8l48-64
		c2.7-3.5,7.7-4.3,11.2-1.6c0.6,0.5,1.1,1,1.6,1.6l48,64c2.7,3.5,1.9,8.5-1.6,11.2c-1.4,1-3.1,1.6-4.8,1.6h-16v64
		C296,256.4,292.4,260,288,260z M248,244h32v-64c0-4.4,3.6-8,8-8h8l-32-42.6L232,172h8c4.4,0,8,3.6,8,8V244z"/>
	<path class="st1" d="M304,324H144C68.9,324,8,263.1,8.1,187.9S69,52,144.1,52c13.5,0,27,2,39.9,6c27.9-39.8,82.8-49.4,122.6-21.4
		c23.3,16.4,37.2,43,37.4,71.4c0,5.2-0.5,10.3-1.4,15.4c53.3,21.3,79.3,81.9,57.9,135.2C384.7,298.1,346.5,324,304,324z M144,68
		C77.7,68,24,121.7,24,188s53.7,120,120,120h160c48.6,0.3,88.3-38.8,88.6-87.4c0.3-38.7-24.8-73-61.8-84.6c-4.1-1.3-6.4-5.6-5.3-9.7
		c1.6-6,2.5-12.1,2.5-18.3c-0.3-39.8-32.7-71.8-72.5-71.5c-25.4,0.2-48.8,13.7-61.6,35.5c-1.9,3.3-6,4.8-9.6,3.5
		C171.4,70.7,157.8,68.2,144,68z"/>
</g>
</svg>
