<?xml version="1.0" encoding="utf-8"?>
<!-- Generator: Adobe Illustrator 26.0.1, SVG Export Plug-In . SVG Version: 6.00 Build 0)  -->
<svg version="1.1" id="Icons" xmlns="http://www.w3.org/2000/svg" xmlns:xlink="http://www.w3.org/1999/xlink" x="0px" y="0px"
	 viewBox="0 0 512 512" style="enable-background:new 0 0 512 512;" xml:space="preserve">
<style type="text/css">
	.st0{fill:#E55934;}
	.st1{fill:#222629;}
</style>
<path class="st0" d="M496,244.4h-93.1l68.2-136.2c2-3.9,0.4-8.8-3.6-10.7c-1.1-0.6-2.3-0.9-3.6-0.9H256c-3.5,0-6.6,2.3-7.6,5.6
	l-56,176c-1.3,4.2,1,8.7,5.2,10c0.8,0.2,1.6,0.4,2.4,0.4h69.3l-50,197.2c-1.2,4.2,1.2,8.7,5.4,9.9c2.6,0.8,5.5,0.1,7.5-1.7
	l269-235.6c3.3-2.9,3.6-8,0.7-11.3C500.5,245.4,498.3,244.4,496,244.4L496,244.4z"/>
<g>
	<path class="st1" d="M152.8,231.1c-4.4,0.2-7.8,3.9-7.6,8.4c0.5,12.3-6.7,23.7-18.1,28.4l-0.9,0.4c-6.8-7.3-16.1-11.6-26-12
		c-4.3-0.2-8.1,3.1-8.3,7.4c0,0.1,0,0.2,0,0.3c-0.2,4.4,3.3,8.1,7.7,8.3c12.1,0.5,21.5,10.6,21,22.7c-0.2,4.8-2,9.4-5.1,13.1
		c-2.8,3.4-2.3,8.4,1.1,11.3s8.4,2.3,11.3-1.1c8.3-10.1,10.8-23.8,6.6-36.2c16.9-7.6,27.5-24.7,26.7-43.2c-0.1-4.4-3.8-7.8-8.1-7.7
		C153,231.1,152.9,231.1,152.8,231.1L152.8,231.1z"/>
	<path class="st1" d="M134.5,86c4.2-12.4,1.7-26.1-6.6-36.2c-2.8-3.4-7.9-3.9-11.3-1.1c-3.4,2.8-3.9,7.9-1.1,11.3
		c7.7,9.3,6.4,23.1-2.9,30.8c-3.7,3.1-8.3,4.8-13.1,5c-4.4,0.2-7.9,3.9-7.7,8.3c0.2,4.4,3.9,7.9,8.3,7.7c9.9-0.4,19.3-4.7,26-12
		l0.9,0.4c11.4,4.7,18.6,16,18.1,28.4c-0.2,4.4,3.2,8.2,7.6,8.4s8.2-3.2,8.4-7.6C162,110.7,151.4,93.6,134.5,86L134.5,86z"/>
	<path class="st1" d="M125.8,184c0.1-28-15.7-53.6-40.8-66c-4-1.9-8.8-0.3-10.7,3.7c-1.9,3.9-0.3,8.7,3.6,10.6
		c28.5,14.3,40.1,49,25.8,77.5C98.1,221,89,230.1,77.9,235.7c-3.9,2-5.5,6.8-3.5,10.8c2,3.9,6.7,5.5,10.6,3.6
		C110.1,237.6,125.9,212,125.8,184z"/>
	<path class="st1" d="M242.8,231.1c4.4,0.2,7.8,3.9,7.6,8.3l0,0c-0.5,12.3,6.7,23.7,18.1,28.4l0.9,0.4c6.8-7.3,16.1-11.6,26-12
		c4.3-0.2,8.1,3.1,8.3,7.4c0,0.1,0,0.2,0,0.3c0.2,4.4-3.2,8.1-7.6,8.3c0,0,0,0-0.1,0c-12.1,0.5-21.5,10.7-21,22.7
		c0.2,4.8,2,9.4,5,13.1c2.8,3.4,2.3,8.4-1.1,11.3s-8.4,2.3-11.3-1.1c-8.3-10.1-10.8-23.8-6.6-36.2c-16.9-7.6-27.5-24.7-26.7-43.3
		c0.1-4.4,3.8-7.8,8.1-7.6C242.6,231.1,242.7,231.1,242.8,231.1L242.8,231.1z"/>
	<path class="st1" d="M261.1,86c-4.2-12.4-1.7-26.1,6.6-36.2c2.8-3.4,7.9-3.9,11.3-1.1c3.4,2.8,3.9,7.9,1.1,11.3l0,0
		c-7.7,9.3-6.4,23.1,2.9,30.8c3.7,3,8.3,4.8,13,5c4.4,0.2,7.9,3.9,7.7,8.3s-3.9,7.9-8.3,7.7c-9.9-0.4-19.3-4.7-26-12l-0.9,0.4
		c-11.4,4.7-18.6,16.1-18,28.4c0.2,4.4-3.2,8.2-7.6,8.4s-8.2-3.2-8.4-7.6C233.6,110.7,244.2,93.6,261.1,86L261.1,86z"/>
	<path class="st1" d="M269.8,184c-0.1-28,15.7-53.6,40.8-66c3.9-2,8.8-0.4,10.8,3.5s0.4,8.8-3.5,10.8c0,0-0.1,0-0.1,0.1
		c-28.5,14.3-40.1,49-25.8,77.5c5.6,11.2,14.7,20.3,25.8,25.8c4,1.9,5.6,6.7,3.7,10.7s-6.7,5.6-10.7,3.7c0,0-0.1,0-0.1-0.1
		C285.5,237.6,269.7,212,269.8,184z"/>
	<path class="st1" d="M387.6,184c0.1-18.8-6.8-37-19.4-51c12-25.8,0.8-56.5-25-68.5c-4-1.9-8.2-3.2-12.6-4
		c-15.9-37.2-59-54.5-96.2-38.6c-15.9,6.8-28.9,19-36.6,34.4c-18.3-36.2-62.4-50.7-98.5-32.4c-15.4,7.8-27.6,20.8-34.4,36.6
		c-24.5,4.6-42.2,25.9-42.4,50.8c0,7.5,1.6,14.9,4.8,21.7c-25.8,29.1-25.8,72.9,0,102c-3.2,6.8-4.8,14.2-4.8,21.7
		c0.1,24.9,17.9,46.2,42.4,50.8c15.9,37.2,59,54.5,96.3,38.6c15.9-6.8,28.9-19,36.6-34.4c18.2,36.2,62.4,50.7,98.5,32.4
		c15.4-7.8,27.6-20.8,34.4-36.6c28-5.1,46.6-31.9,41.5-59.9c-0.8-4.3-2.1-8.6-4-12.6C380.8,221,387.7,202.8,387.6,184L387.6,184z
		 M132.4,336c-20.3-0.1-39.1-10.9-49.4-28.5c6.7-1.1,13.1-3.6,18.9-7.2c3.8-2.3,5-7.2,2.7-11s-7.2-5-11-2.7
		c-0.1,0.1-0.2,0.1-0.3,0.2c-6.5,4.1-14.3,6-22,5.4c-19.6-1.6-34.2-18.7-32.7-38.3c1.5-18.5,17-32.8,35.6-32.8c4.4,0,8-3.6,8-8
		s-3.6-8-8-8c-14.2-0.1-27.7,5.8-37.4,16.2c-17.1-21.9-17.1-52.6,0-74.5C46.4,157.2,60,163,74.2,163c4.4,0,8-3.6,8-8s-3.6-8-8-8
		c-19.7,0-35.6-16-35.6-35.6c0-19.7,16-35.6,35.6-35.6c6.7,0,13.4,1.9,19.1,5.5c3.7,2.4,8.7,1.3,11-2.5c2.4-3.7,1.3-8.7-2.5-11l0,0
		C96,64,89.6,61.6,82.9,60.4c15.9-27.4,51-36.6,78.4-20.7C179,50.1,189.8,69,189.8,89.4v189.1C189.8,310.2,164.1,336,132.4,336
		L132.4,336z M302.4,286.8c-3.7-2.5-8.6-1.5-11.1,2.2s-1.5,8.6,2.2,11.1c0.1,0.1,0.2,0.1,0.3,0.2c5.7,3.6,12.2,6.1,18.8,7.2
		c-15.9,27.4-51,36.6-78.4,20.7c-17.7-10.3-28.5-29.2-28.5-49.7v-189c0-31.7,25.6-57.4,57.3-57.5c20.5-0.1,39.4,10.8,49.7,28.5
		c-6.7,1.1-13.1,3.6-18.8,7.2c-3.7,2.4-4.8,7.3-2.5,11c2.4,3.7,7.3,4.8,11,2.5c16.6-10.5,38.6-5.6,49.2,11s5.6,38.6-11,49.2
		c-5.7,3.6-12.3,5.5-19.1,5.5c-4.4,0-8,3.6-8,8s3.6,8,8,8c14.2,0.1,27.7-5.8,37.4-16.2c17.1,21.9,17.1,52.6,0,74.5
		c-9.7-10.4-23.2-16.2-37.4-16.2c-4.4,0-8,3.6-8,8s3.6,8,8,8c19.7,0,35.6,16,35.6,35.6c0,19.7-16,35.6-35.6,35.6
		C314.7,292.4,308.1,290.5,302.4,286.8L302.4,286.8z"/>
</g>
</svg>
