<?xml version="1.0" encoding="utf-8"?>
<!-- Generator: Adobe Illustrator 26.0.1, SVG Export Plug-In . SVG Version: 6.00 Build 0)  -->
<svg version="1.1" id="line" xmlns="http://www.w3.org/2000/svg" xmlns:xlink="http://www.w3.org/1999/xlink" x="0px" y="0px"
	 viewBox="0 0 512 512" style="enable-background:new 0 0 512 512;" xml:space="preserve">
<style type="text/css">
	.st0{fill:#E55934;}
	.st1{fill:#222629;}
</style>
<g>
	<g>
		<path class="st0" d="M480,104H272c-13.3,0-24,10.7-24,24v8h184c22.1,0,40,17.9,40,40v280h8c13.3,0,24-10.7,24-24V128
			C504,114.7,493.3,104,480,104z"/>
	</g>
	<g>
		<rect x="256" y="408" class="st0" width="136" height="32"/>
	</g>
	<g>
		<rect x="256" y="312" class="st0" width="136" height="32"/>
	</g>
	<g>
		<rect x="312" y="216" class="st0" width="80" height="32"/>
	</g>
	<g>
		<path class="st0" d="M432,152H216c-13.3,0-24,10.7-24,24v304c0,13.3,10.7,24,24,24h216c13.3,0,24-10.7,24-24V176
			C456,162.7,445.3,152,432,152z M408,448c0,4.4-3.6,8-8,8H248c-4.4,0-8-3.6-8-8v-48c0-4.4,3.6-8,8-8h152c4.4,0,8,3.6,8,8V448z
			 M408,352c0,4.4-3.6,8-8,8H248c-4.4,0-8-3.6-8-8v-48c0-4.4,3.6-8,8-8h152c4.4,0,8,3.6,8,8V352z M408,256c0,4.4-3.6,8-8,8h-96
			c-4.4,0-8-3.6-8-8v-48c0-4.4,3.6-8,8-8h96c4.4,0,8,3.6,8,8V256z"/>
	</g>
</g>
<g>
	<path class="st1" d="M360,8H40C22.3,8,8,22.3,8,40v320c0,17.7,14.3,32,32,32h320c17.7,0,32-14.3,32-32V40C392,22.3,377.7,8,360,8z
		 M376,360c0,8.8-7.2,16-16,16H40c-8.8,0-16-7.2-16-16V40c0-8.8,7.2-16,16-16h320c8.8,0,16,7.2,16,16V360z"/>
</g>
<g>
	<path class="st1" d="M346.5,156.3v-0.2C322.6,75.6,238,29.8,157.5,53.7C78.7,77.2,32.8,159.1,54,238.6
		c17.4,65.2,75.4,111.3,142.8,113.4h0.2c4.4,0.1,8-3.5,8.1-7.9s-3.5-8-7.9-8.1C122.1,333.9,63,271.4,65,196.3
		c1.6-57.8,39.6-108.3,94.7-125.8c71.6-22.8,148.1,16.7,170.9,88.3c0.2,0.6,0.4,1.2,0.5,1.7c6.7,26.7,4.2,54.8-7.2,79.8
		c-6.4,18.2-23.4,30.6-42.7,31.2c-13.9-1.5-24.3-13.6-23.6-27.6l0.7-126.3c0-4.4-3.6-8-8-8s-8,3.6-8,8l-0.1,27.4
		c-10.9-15.7-28.8-25.1-47.9-25.1c-33.6,0-68.3,29.4-68.3,78.7c0,45.1,29.9,81.7,66.7,81.7c20.3-0.5,38.9-11.3,49.6-28.5
		c2.6,19.7,18.9,34.8,38.8,35.7c38.2,0,53.8-31.6,57.6-41.3C351.6,218,354.3,186.3,346.5,156.3L346.5,156.3z M241.9,199.5
		c-0.6,36.4-21.9,64.7-49.1,64.7c-28,0-50.7-29.5-50.7-65.7c0-39.2,26.6-62.7,52.3-62.7c27.8,0,47.2,25,47.6,61L241.9,199.5z"/>
</g>
</svg>
