<?xml version="1.0" encoding="utf-8"?>
<!-- Generator: Adobe Illustrator 26.0.1, SVG Export Plug-In . SVG Version: 6.00 Build 0)  -->
<svg version="1.1" id="line" xmlns="http://www.w3.org/2000/svg" xmlns:xlink="http://www.w3.org/1999/xlink" x="0px" y="0px"
	 viewBox="0 0 512 512" style="enable-background:new 0 0 512 512;" xml:space="preserve">
<style type="text/css">
	.st0{fill:#E55934;}
	.st1{fill:#222629;}
	.st2{fill:#3B4147;}
</style>
<g>
	<circle class="st0" cx="304" cy="496" r="8"/>
	<circle class="st0" cx="496" cy="248" r="8"/>
	<path class="st0" d="M496,296h-88v-40h56c4.4,0,8-3.6,8-8s-3.6-8-8-8h-56v-16c0-13.3-10.7-24-24-24h-8v-20.7l29.7-29.6
		c1.5-1.5,2.3-3.6,2.3-5.7v-32c0-4.4-3.6-8-8-8s-8,3.6-8,8v28.7l-29.7,29.6c-1.5,1.5-2.3,3.6-2.3,5.7v24h-48v-56c0-4.4-3.6-8-8-8
		s-8,3.6-8,8v56h-48v-24c0-2.1-0.8-4.2-2.3-5.7L216,140.7V112c0-4.4-3.6-8-8-8s-8,3.6-8,8v32c0,2.1,0.8,4.2,2.3,5.7l29.7,29.6V200
		h-8c-13.3,0-24,10.7-24,24v16h-56c-4.4,0-8,3.6-8,8s3.6,8,8,8h56v40h-88c-4.4,0-8,3.6-8,8s3.6,8,8,8h88v40h-56c-4.4,0-8,3.6-8,8
		s3.6,8,8,8h56v16c0,13.3,10.7,24,24,24h8v20.7l-29.7,29.6c-1.5,1.5-2.3,3.6-2.3,5.7v32c0,4.4,3.6,8,8,8s8-3.6,8-8v-28.7l29.7-29.6
		c1.5-1.5,2.3-3.6,2.3-5.7v-24h48v56c0,4.4,3.6,8,8,8s8-3.6,8-8v-56h48v24c0,2.1,0.8,4.2,2.3,5.7l29.7,29.6V496c0,4.4,3.6,8,8,8
		s8-3.6,8-8v-32c0-2.1-0.8-4.2-2.3-5.7L376,428.7V408h8c13.3,0,24-10.7,24-24v-16h56c4.4,0,8-3.6,8-8s-3.6-8-8-8h-56v-40h88
		c4.4,0,8-3.6,8-8S500.4,296,496,296z M288,360c0,4.4-3.6,8-8,8h-32c-4.4,0-8-3.6-8-8v-32c0-4.4,3.6-8,8-8h32c4.4,0,8,3.6,8,8V360z
		 M288,280c0,4.4-3.6,8-8,8h-32c-4.4,0-8-3.6-8-8v-32c0-4.4,3.6-8,8-8h32c4.4,0,8,3.6,8,8V280z M368,360c0,4.4-3.6,8-8,8h-32
		c-4.4,0-8-3.6-8-8v-32c0-4.4,3.6-8,8-8h32c4.4,0,8,3.6,8,8V360z M368,280c0,4.4-3.6,8-8,8h-32c-4.4,0-8-3.6-8-8v-32
		c0-4.4,3.6-8,8-8h32c4.4,0,8,3.6,8,8V280z"/>
	<circle class="st0" cx="496" cy="360" r="8"/>
	<circle class="st0" cx="112" cy="360" r="8"/>
	<circle class="st0" cx="304" cy="112" r="8"/>
	<circle class="st0" cx="112" cy="248" r="8"/>
</g>
<path class="st1" d="M384,200h-8V32c0-13.3-10.7-24-24-24H64C50.7,8,40,18.7,40,32v168h-8c-13.3,0-24,10.7-24,24
	c0,17.7,14.3,32,32,32h336c17.7,0,32-14.3,32-32C408,210.7,397.3,200,384,200z M56,32c0-4.4,3.6-8,8-8h288c4.4,0,8,3.6,8,8v168H56
	V32z M376,240H40c-8.8,0-16-7.2-16-16c0-4.4,3.6-8,8-8h352c4.4,0,8,3.6,8,8C392,232.8,384.8,240,376,240z"/>
<path class="st2" d="M144,56c-30.9,0-56,25.1-56,56s25.1,56,56,56s56-25.1,56-56S174.9,56,144,56z M144,152c-22.1,0-40-17.9-40-40
	s17.9-40,40-40s40,17.9,40,40S166.1,152,144,152z"/>
<path class="st2" d="M320,56h-96c-4.4,0-8,3.6-8,8v96c0,4.4,3.6,8,8,8h96c4.4,0,8-3.6,8-8V64C328,59.6,324.4,56,320,56z M312,152
	h-80V72h80V152z"/>
</svg>
