<?xml version="1.0" encoding="utf-8"?>
<!-- Generator: Adobe Illustrator 26.0.1, SVG Export Plug-In . SVG Version: 6.00 Build 0)  -->
<svg version="1.1" id="Icons" xmlns="http://www.w3.org/2000/svg" xmlns:xlink="http://www.w3.org/1999/xlink" x="0px" y="0px"
	 viewBox="0 0 512 512" style="enable-background:new 0 0 512 512;" xml:space="preserve">
<style type="text/css">
	.st0{fill:#E55934;}
	.st1{fill:#222629;}
</style>
<path class="st0" d="M497,161.9L446,111c-9.4-9.3-24.6-9.3-33.9,0L151.9,371.2c-4.1,4.2-5.6,10.3-3.9,15.9
	c-6.4,7.7-10.7,16.8-12.7,26.5c-3.5,17.6-10.8,25.3-24.1,50.7c-6.4,11.5-2.2,26.1,9.3,32.5c7.2,4,16,4,23.2,0
	c24.9-13,33.1-20.6,50.7-24.1c9.8-2,18.9-6.4,26.5-12.7c5.6,1.8,11.8,0.3,15.9-3.9L497,195.9C506.3,186.5,506.3,171.3,497,161.9
	L497,161.9z M225.4,444.8L225.4,444.8l-62.2-62.2l22.6-22.6l62.2,62.2L225.4,444.8z M485.6,184.6l-17,17l-62.2-62.2l17-17
	c3.1-3.1,8.2-3.1,11.3,0l0,0l50.9,50.9C488.8,176.4,488.8,181.4,485.6,184.6z"/>
<path class="st1" d="M320,140h-8V84c0-26.2-12.5-40.4-21.3-60.4C285.6,13.2,273,9,262.6,14.2c-4,2-7.3,5.3-9.4,9.4
	C244.5,43.7,232,57.8,232,84v64h-16V83.6c0-0.1,0-0.1,0-0.2c-0.2-25.9-12.5-39.8-21.2-59.8C189.6,13.2,177,9,166.7,14.2
	c-4,2-7.3,5.3-9.4,9.4c-8.7,19.9-21,33.9-21.2,59.8c0,0.1,0,0.1,0,0.2V148H120V84c0-26.2-12.5-40.4-21.3-60.4
	C93.6,13.2,81,9,70.6,14.2c-4,2-7.3,5.3-9.4,9.4C52.5,43.7,40,57.8,40,84v56h-8c-13.3,0-24,10.7-24,24v224.4c0,13.3,10.7,24,24,24
	h288c13.3,0,24-10.7,24-24V164C344,150.7,333.3,140,320,140z M277.2,158.2l-9.9,39.8c-0.9,3.6-4.1,6.1-7.8,6.1H248v-80h48v16.4
	C286.8,142.2,279.5,149.1,277.2,158.2L277.2,158.2z M296,108h-48V92h48V108z M267.6,30.7c1.4-2.4,4.6-3.3,7-1.8
	c0.8,0.4,1.4,1.1,1.8,1.8c10.4,22.2,16.9,29.8,19,45.3h-46.9C250.6,60.7,256.9,53.5,267.6,30.7z M232,164v40h-16v-40H232z M200,92
	v16h-48V92H200z M152,124h48v80h-48V124z M171.6,30.7c1.4-2.4,4.6-3.3,7-1.8c0.8,0.4,1.4,1.1,1.8,1.8c10.6,22.7,16.7,29.6,18.9,44.8
	h-46.7C154.8,60.3,160.9,53.6,171.6,30.7z M136,164v40h-16v-40H136z M84.7,197.9l-9.9-39.8c-2.3-9-9.6-15.9-18.8-17.8V124h48v80
	H92.5C88.8,204,85.6,201.5,84.7,197.9L84.7,197.9z M104,108H56V92h48V108z M75.6,30.7c1.4-2.4,4.6-3.3,7-1.8
	c0.8,0.4,1.4,1.1,1.8,1.8c10.4,22.2,16.9,29.8,19,45.3H56.5C58.6,60.7,64.9,53.5,75.6,30.7z M328,388.4c0,4.4-3.6,8-8,8H32
	c-4.4,0-8-3.6-8-8V164c0-4.4,3.6-8,8-8h19.5c3.7,0,6.9,2.5,7.8,6.1l9.8,39.7c2.7,10.7,12.3,18.2,23.3,18.2h167.2
	c11,0,20.6-7.5,23.3-18.2l9.9-39.7c0.9-3.6,4.1-6.1,7.8-6.1H320c4.4,0,8,3.6,8,8V388.4z"/>
<path class="st1" d="M296,244H56c-4.4,0-8,3.6-8,8v112c0,4.4,3.6,8,8,8h240c4.4,0,8-3.6,8-8V252C304,247.6,300.4,244,296,244z
	 M288,356H64v-96h224V356z"/>
</svg>
