<?xml version="1.0" encoding="utf-8"?>
<!-- Generator: Adobe Illustrator 26.0.1, SVG Export Plug-In . SVG Version: 6.00 Build 0)  -->
<svg version="1.1" id="Line" xmlns="http://www.w3.org/2000/svg" xmlns:xlink="http://www.w3.org/1999/xlink" x="0px" y="0px"
	 viewBox="0 0 512 512" style="enable-background:new 0 0 512 512;" xml:space="preserve">
<style type="text/css">
	.st0{fill:#2960E3;}
	.st1{fill:#222629;}
</style>
<path class="st0" d="M466.2,306.9c-24-32.9-34.8-73.6-30.2-114c2.9-19.2-2.4-38.8-14.6-53.9c-24.7-30.2-70.7-34.7-73.4-35h-16.7
	c-1.9,0.2-47.9,4.7-72.6,35c-12.2,15.2-17.4,34.7-14.6,53.9c4.4,40.4-6.3,81.1-30.2,114c-2.8,3.4-2.4,8.4,1,11.3
	c1.4,1.2,3.3,1.9,5.1,1.9c26.5-1.8,52.1-10.1,74.6-24.2c26.4,21.7,64.5,21.7,90.9,0c22.5,14.1,48.1,22.4,74.6,24.2c4.4,0,8-3.6,8-8
	C468,310.1,467.4,308.3,466.2,306.9z M340,296c-30.9,0-56-25.1-56-56v-31.4c1.1-5.3,8.9-37.4,43-40.3c7.1,13.8,29.7,50.8,69,55.3
	V240C396,270.9,370.9,296,340,296z"/>
<path class="st0" d="M484.1,372.6L406.7,345l-24-8.6c-4.2-1.5-8.7,0.6-10.3,4.8c0,0.1,0,0.1-0.1,0.2L340,438.6l-32.4-97.2
	c-1.4-4.2-6-6.4-10.1-5c-0.1,0-0.1,0-0.2,0.1l-24,8.6l-77.4,27.6c-9.5,3.4-15.9,12.5-15.9,22.6V480c0,13.2,10.8,24,24,24h272
	c13.2,0,24-10.8,24-24v-84.7C500,385.1,493.6,376.1,484.1,372.6L484.1,372.6z M385,354.3l13.3,4.7l16.6,33h-19c-4.4,0-8,3.6-8,8.1
	c0,0.8,0.1,1.7,0.4,2.5l6,18l-39.8,24.9L385,354.3z M295,354.3l30.4,91.1l-39.8-24.9l6-18c1.4-4.2-0.9-8.8-5.1-10.2
	c-0.8-0.3-1.6-0.4-2.5-0.4h-19l16.6-33L295,354.3z"/>
<g>
	<path class="st1" d="M260,72h-64V32c0-13.3-10.7-24-24-24h-48c-13.3,0-24,10.7-24,24v40H36c-13.3,0-24,10.7-24,24v288
		c0,13.3,10.7,24,24,24h224c13.3,0,24-10.7,24-24V96C284,82.7,273.3,72,260,72z M116,32c0-4.4,3.6-8,8-8h48c4.4,0,8,3.6,8,8v96
		c0,4.4-3.6,8-8,8h-48c-4.4,0-8-3.6-8-8V32z M268,384c0,4.4-3.6,8-8,8H36c-4.4,0-8-3.6-8-8V96c0-4.4,3.6-8,8-8h64v40
		c0,13.3,10.7,24,24,24h48c13.3,0,24-10.7,24-24V88h64c4.4,0,8,3.6,8,8V384z"/>
	<path class="st1" d="M148,280c22.1,0,40-17.9,40-40s-17.9-40-40-40s-40,17.9-40,40S125.9,280,148,280z M148,216
		c13.3,0,24,10.7,24,24s-10.7,24-24,24s-24-10.7-24-24S134.7,216,148,216z"/>
	<path class="st1" d="M196,296h-96c-13.3,0-24,10.7-24,24s10.7,24,24,24h96c13.3,0,24-10.7,24-24S209.3,296,196,296z M196,328h-96
		c-4.4,0-8-3.6-8-8s3.6-8,8-8h96c4.4,0,8,3.6,8,8S200.4,328,196,328z"/>
</g>
</svg>
