<?xml version="1.0" encoding="utf-8"?>
<!-- Generator: Adobe Illustrator 26.0.1, SVG Export Plug-In . SVG Version: 6.00 Build 0)  -->
<svg version="1.1" id="line" xmlns="http://www.w3.org/2000/svg" xmlns:xlink="http://www.w3.org/1999/xlink" x="0px" y="0px"
	 viewBox="0 0 512 512" style="enable-background:new 0 0 512 512;" xml:space="preserve">
<style type="text/css">
	.st0{fill:#E55934;}
	.st1{fill:#222629;}
</style>
<g>
	<path class="st0" d="M490.3,106.3l-384,384c-3.1,3.1-3.1,8.2,0,11.3c1.5,1.5,3.5,2.3,5.7,2.3h120v-24c0-4.4,3.6-8,8-8s8,3.6,8,8v24
		h48v-24c0-4.4,3.6-8,8-8s8,3.6,8,8v24h48v-24c0-4.4,3.6-8,8-8s8,3.6,8,8v24h48v-24c0-4.4,3.6-8,8-8s8,3.6,8,8v24h56
		c4.4,0,8-3.6,8-8V112c0-4.4-3.6-8-8-8C493.9,104,491.8,104.8,490.3,106.3z M440,432c0,4.4-3.6,8-8,8H272c-4.4,0-8-3.6-8-8
		c0-2.1,0.8-4.2,2.3-5.7l160-160c3.1-3.1,8.2-3.1,11.3,0c1.5,1.5,2.3,3.5,2.3,5.7v160H440z"/>
	<path class="st0" d="M104,160h80v200h-80V160z"/>
	<path class="st0" d="M106.3,381.7l32,32c3.1,3.1,8.2,3.1,11.3,0l32-32c1.5-1.5,2.3-3.5,2.3-5.7h-80
		C104,378.1,104.8,380.2,106.3,381.7L106.3,381.7z"/>
	<path class="st0" d="M144,104c-22.1,0-40,17.9-40,40h80C184,121.9,166.1,104,144,104z"/>
</g>
<path class="st1" d="M384,40H87.2C82.8,18.4,61.7,4.4,40,8.8C21.4,12.5,8,29,8,48v320c0,22.1,17.9,40,40,40h304
	c13.3,0,24-10.7,24-24v-8h8c13.3,0,24-10.7,24-24V64C408,50.7,397.3,40,384,40z M24,48c0-13.3,10.7-24,24-24s24,10.7,24,24v288
	c-14.2-10.7-33.8-10.7-48,0V48z M360,384c0,4.4-3.6,8-8,8H48c-13.3,0-24-10.7-24-24s10.7-24,24-24s24,10.7,24,24c0,4.4,3.6,8,8,8
	h280V384z M392,352c0,4.4-3.6,8-8,8H88V56h296c4.4,0,8,3.6,8,8V352z"/>
<path class="st1" d="M368,216h-56v-56c0-13.3-10.7-24-24-24h-56V80c0-4.4-3.6-8-8-8H112c-4.4,0-8,3.6-8,8v112c0,4.4,3.6,8,8,8h56v56
	c0,13.3,10.7,24,24,24h56v56c0,4.4,3.6,8,8,8h112c4.4,0,8-3.6,8-8V224C376,219.6,372.4,216,368,216z M168,160v24h-48V88h96v48h-24
	C178.7,136,168,146.7,168,160z M216,152v32h-32v-24c0-4.4,3.6-8,8-8H216z M248,224v40h-56c-4.4,0-8-3.6-8-8v-56h40c4.4,0,8-3.6,8-8
	v-40h56c4.4,0,8,3.6,8,8v56h-40C251.6,216,248,219.6,248,224z M296,232v24c0,4.4-3.6,8-8,8h-24v-32H296z M360,328h-96v-48h24
	c13.3,0,24-10.7,24-24v-24h48V328z"/>
</svg>
