<?xml version="1.0" encoding="utf-8"?>
<!-- Generator: Adobe Illustrator 26.0.1, SVG Export Plug-In . SVG Version: 6.00 Build 0)  -->
<svg version="1.1" id="line" xmlns="http://www.w3.org/2000/svg" xmlns:xlink="http://www.w3.org/1999/xlink" x="0px" y="0px"
	 viewBox="0 0 512 512" style="enable-background:new 0 0 512 512;" xml:space="preserve">
<style type="text/css">
	.st0{fill:#E55934;}
	.st1{fill:#222629;}
</style>
<g>
	<path class="st0" d="M256,104c-83.9,0-152,68.1-152,152s68.1,152,152,152s152-68.1,152-152C407.9,172.1,339.9,104.1,256,104z
		 M213.3,223.3c1.2,15.6-9.5,29.6-24.8,32.7c16,5.2,24.8,14.1,24.8,32.7c0,5-0.5,12.9-0.5,17.6c0,16.2,3.3,23.6,26.5,30.8
		c5.3,2.1,7.9,8.1,5.8,13.4c-1.9,4.9-7.2,7.5-12.2,6.2c-37-8.1-46.8-22.9-46.8-46.3c0-3.6,0.5-13.1,0.5-17.2
		c0-17.4-6.2-25.3-22.4-25.7c-6.3,0.4-11.8-4.4-12.2-10.7c-0.4-6.3,4.4-11.8,10.7-12.2c0.5,0,1,0,1.5,0c16.2-0.7,22.4-8.4,22.4-26
		c0-4.1-0.5-13.6-0.5-17.2c0-23.1,9.8-37.9,46.8-46c5.5-1.5,11.1,1.8,12.6,7.3c1.3,5.1-1.3,10.3-6.2,12.2
		c-23.1,7.2-26.5,14.5-26.5,30.8C212.8,210.4,213.3,218.3,213.3,223.3L213.3,223.3z M348.1,267.4c-16.2,0.5-22.7,8.4-22.7,25.7
		c0,4.1,0.5,13.6,0.5,17.2c0,23.4-9.8,38.2-46.7,46.3c-5.5,1.5-11.1-1.7-12.6-7.1c-1.4-5.2,1.4-10.6,6.4-12.4
		c22.9-7.2,26.2-14.5,26.2-30.8c0-4.8-0.5-12.6-0.5-17.6c-1.2-15.6,9.5-29.6,24.8-32.7c-16-5.2-24.8-14.1-24.8-32.7
		c0-5,0.5-12.9,0.5-17.6c0-16.2-3.3-23.6-26.2-30.8c-5.4-1.7-8.4-7.5-6.7-12.9c1.7-5.4,7.5-8.4,12.9-6.7c37,8.1,46.7,22.9,46.7,46
		c0,3.6-0.5,13.1-0.5,17.2c0,17.6,6.4,25.3,22.7,26c6.3-0.2,11.6,4.7,11.9,11c0.2,6.3-4.7,11.6-11,11.9
		C348.7,267.5,348.4,267.5,348.1,267.4L348.1,267.4z"/>
	<path class="st0" d="M416.9,371.6l-21.7-21.7c-12.1,17.8-27.4,33.2-45.3,45.3l21.6,21.6C389.3,404.6,404.6,389.3,416.9,371.6
		L416.9,371.6z"/>
	<path class="st0" d="M494.6,449.4L428.3,383c-12.5,17.5-27.8,32.8-45.2,45.3l66.3,66.3c12.7,12.3,33,11.9,45.2-0.8
		C506.6,481.4,506.6,461.8,494.6,449.4L494.6,449.4z"/>
</g>
<g>
	<path class="st1" d="M384,8H32C18.7,8,8,18.7,8,32v352c0,13.3,10.7,24,24,24h352c13.3,0,24-10.7,24-24V32C408,18.7,397.3,8,384,8z
		 M392,384c0,4.4-3.6,8-8,8H32c-4.4,0-8-3.6-8-8V120h368V384z M392,104H24V32c0-4.4,3.6-8,8-8h352c4.4,0,8,3.6,8,8V104z"/>
	<path class="st1" d="M80,40H48c-4.4,0-8,3.6-8,8v32c0,4.4,3.6,8,8,8h32c4.4,0,8-3.6,8-8V48C88,43.6,84.4,40,80,40z M72,72H56V56h16
		V72z"/>
	<path class="st1" d="M144,40h-32c-4.4,0-8,3.6-8,8v32c0,4.4,3.6,8,8,8h32c4.4,0,8-3.6,8-8V48C152,43.6,148.4,40,144,40z M136,72
		h-16V56h16V72z"/>
	<path class="st1" d="M208,40h-32c-4.4,0-8,3.6-8,8v32c0,4.4,3.6,8,8,8h32c4.4,0,8-3.6,8-8V48C216,43.6,212.4,40,208,40z M200,72
		h-16V56h16V72z"/>
	<circle class="st1" cx="64" cy="208" r="8"/>
	<circle class="st1" cx="96" cy="208" r="8"/>
	<circle class="st1" cx="128" cy="208" r="8"/>
	<circle class="st1" cx="160" cy="208" r="8"/>
	<circle class="st1" cx="192" cy="208" r="8"/>
	<circle class="st1" cx="224" cy="208" r="8"/>
	<circle class="st1" cx="64" cy="256" r="8"/>
	<path class="st1" d="M128,248H96c-4.4,0-8,3.6-8,8s3.6,8,8,8h32c4.4,0,8-3.6,8-8S132.4,248,128,248z"/>
	<circle class="st1" cx="160" cy="256" r="8"/>
	<path class="st1" d="M224,248h-32c-4.4,0-8,3.6-8,8s3.6,8,8,8h32c4.4,0,8-3.6,8-8S228.4,248,224,248z"/>
	<circle class="st1" cx="256" cy="256" r="8"/>
	<circle class="st1" cx="288" cy="256" r="8"/>
	<circle class="st1" cx="64" cy="160" r="8"/>
	<path class="st1" d="M192,168h32c4.4,0,8-3.6,8-8s-3.6-8-8-8h-32c-4.4,0-8,3.6-8,8S187.6,168,192,168z"/>
	<circle class="st1" cx="160" cy="160" r="8"/>
	<circle class="st1" cx="256" cy="160" r="8"/>
	<circle class="st1" cx="288" cy="160" r="8"/>
	<circle class="st1" cx="320" cy="160" r="8"/>
	<circle class="st1" cx="352" cy="160" r="8"/>
	<path class="st1" d="M96,168h32c4.4,0,8-3.6,8-8s-3.6-8-8-8H96c-4.4,0-8,3.6-8,8S91.6,168,96,168z"/>
	<path class="st1" d="M224,360h-32c-4.4,0-8-3.6-8-8s3.6-8,8-8h32c4.4,0,8,3.6,8,8S228.4,360,224,360z"/>
	<circle class="st1" cx="256" cy="352" r="8"/>
	<circle class="st1" cx="160" cy="352" r="8"/>
	<circle class="st1" cx="128" cy="352" r="8"/>
	<circle class="st1" cx="96" cy="352" r="8"/>
	<circle class="st1" cx="64" cy="352" r="8"/>
	<path class="st1" d="M224,296h-32c-4.4,0-8,3.6-8,8s3.6,8,8,8h32c4.4,0,8-3.6,8-8S228.4,296,224,296z"/>
	<path class="st1" d="M64,312h32c4.4,0,8-3.6,8-8s-3.6-8-8-8H64c-4.4,0-8,3.6-8,8S59.6,312,64,312z"/>
	<path class="st1" d="M160,296h-32c-4.4,0-8,3.6-8,8s3.6,8,8,8h32c4.4,0,8-3.6,8-8S164.4,296,160,296z"/>
</g>
</svg>
