<?xml version="1.0" encoding="utf-8"?>
<!-- Generator: Adobe Illustrator 26.0.1, SVG Export Plug-In . SVG Version: 6.00 Build 0)  -->
<svg version="1.1" id="Line" xmlns="http://www.w3.org/2000/svg" xmlns:xlink="http://www.w3.org/1999/xlink" x="0px" y="0px"
	 viewBox="0 0 512 512" style="enable-background:new 0 0 512 512;" xml:space="preserve">
<style type="text/css">
	.st0{fill:#E55934;}
	.st1{fill:#222629;}
</style>
<path class="st0" d="M480,88H256c-13.3,0-24,10.7-24,24v352c0,13.3,10.7,24,24,24l0,0h224c13.3,0,24-10.7,24-24l0,0V112
	C504,98.7,493.3,88,480,88z M438.9,372.1c-7.5,12.1-19.4,20.7-33.3,24c-34.2,6.2-46.6-28.3-72-24c-9.3,2.3-17.3,8-22.6,16
	c-2.7,3.5-7.8,4.1-11.2,1.3c-2.8-2.2-3.8-6-2.4-9.3c7.5-12.1,19.4-20.7,33.3-24c33.6-6,47,28.2,72,24c9.3-2.3,17.3-8,22.6-16
	c2.7-3.5,7.8-4.1,11.2-1.3C439.2,365,440.2,368.8,438.9,372.1z M438.9,284.1c-7.5,12.1-19.4,20.7-33.3,24c-33.9,6.1-46.8-28.2-72-24
	c-9.3,2.3-17.3,8-22.6,16c-2.7,3.5-7.8,4.1-11.2,1.3c-2.8-2.2-3.8-6-2.4-9.3c7.5-12.1,19.4-20.7,33.3-24c34.5-6.2,46.3,28.3,72,24
	c9.3-2.3,17.3-8,22.6-16c2.7-3.5,7.8-4.1,11.2-1.3C439.2,277,440.2,280.8,438.9,284.1z M438.9,196.1c-7.5,12.1-19.4,20.7-33.3,24
	c-33.9,6.1-46.7-28.2-72-24c-9.3,2.3-17.3,8-22.6,16c-2.7,3.5-7.8,4.1-11.2,1.3c-2.8-2.2-3.8-6-2.4-9.3c7.5-12.1,19.4-20.7,33.3-24
	c34.4-6.2,46.3,28.3,72,24c9.3-2.3,17.3-8,22.6-16c2.7-3.5,7.8-4.1,11.2-1.3C439.2,189,440.2,192.8,438.9,196.1z"/>
<g>
	<path class="st1" d="M401,98.5l-67.6-67.7c-9.5-9-24.4-9-33.9,0L130.3,200c-1.3,1.6-2.1,3.6-2.3,5.6V291c-12.6,6-24,8.5-44.4-2.2
		c-22.3-11.8-48.9-11.8-71.2,0c-3.9,2-5.4,6.7-3.5,10.6c2,4,6.8,5.6,10.7,3.6c17.7-9.4,38.9-9.4,56.6,0
		c18.6,11.8,42.2,12.2,61.3,1.1h88.7c2.1-0.1,4.1-0.9,5.6-2.3L401,132.4C410.3,123,410.3,107.9,401,98.5L401,98.5z M144,288v-70.6
		c32.3,12.6,57.9,38.2,70.5,70.6H144z M229.2,281.7c-14.4-36-42.9-64.5-78.9-79L258.9,94.1l78.9,78.9L229.2,281.7z M389.7,121
		l-40.6,40.6l-78.9-79L310.8,42c3.1-3,8.1-3,11.2,0l67.7,67.8C392.7,113,392.7,117.9,389.7,121z"/>
	<path class="st1" d="M238.6,142.2c-3.1,3.1-3.1,8.2,0,11.3l40,40c3.1,3.1,8.2,3.1,11.3,0c3.1-3.1,3.1-8.2,0-11.3l-40-40
		C246.7,139.1,241.7,139.1,238.6,142.2z"/>
	<path class="st1" d="M225.9,166.1c-3.1-3.1-8.2-3.1-11.3,0s-3.2,8.2,0,11.3l0,0l40,40c3.1,3.1,8.2,3.2,11.3,0l0,0
		c3.1-3.1,3.1-8.2,0-11.3L225.9,166.1z"/>
	<path class="st1" d="M284.6,352.7c-40.7,20.5-88.7,20.5-129.4,0C104,330.4,56,330.5,12.4,352.8c-3.9,2-5.5,6.8-3.5,10.7
		c0,0,0,0,0,0.1c2,3.9,6.8,5.5,10.7,3.5c40-20.4,82.2-20.3,129,0c45,22.3,97.8,22.3,142.7,0c4-1.8,5.8-6.6,3.9-10.6l0,0
		C293.4,352.5,288.6,350.8,284.6,352.7L284.6,352.7z"/>
</g>
</svg>
