<?xml version="1.0" encoding="utf-8"?>
<!-- Generator: Adobe Illustrator 26.0.1, SVG Export Plug-In . SVG Version: 6.00 Build 0)  -->
<svg version="1.1" id="Line" xmlns="http://www.w3.org/2000/svg" xmlns:xlink="http://www.w3.org/1999/xlink" x="0px" y="0px"
	 viewBox="0 0 512 512" style="enable-background:new 0 0 512 512;" xml:space="preserve">
<style type="text/css">
	.st0{fill:#E55934;}
	.st1{fill:#222629;}
</style>
<path class="st0" d="M104,296c0-40.9,28.2-76.4,68-85.7c-14.5-46.4,11.3-95.8,57.7-110.3c8.5-2.7,17.4-4,26.3-4
	c12.2,0,24.2,2.5,35.3,7.4c2.9,1.3,4.7,4.1,4.7,7.3v60.6h-56c-4.4,0-8,3.6-8,8s3.6,8,8,8h56V288h-49.1c-4.4-17.1-21.9-27.4-39-23
	s-27.4,21.9-23,39s21.9,27.4,39,23c11.3-2.9,20.1-11.7,23-23H296v100.7h-56c-4.4,0-8,3.6-8,8s3.6,8,8,8h56v60.6c0,3.1-1.9,6-4.7,7.3
	c-11.1,4.9-23.1,7.5-35.3,7.4c-48.6,0-88-39.4-88-88c0-8.9,1.4-17.8,4-26.3C132.2,372.4,104,336.9,104,296z"/>
<path class="st0" d="M504,296c0-40.9-28.2-76.4-68-85.7c14.5-46.4-11.3-95.8-57.7-110.3c-8.5-2.7-17.4-4-26.3-4
	c-12.2,0-24.2,2.5-35.3,7.4c-2.9,1.3-4.7,4.1-4.7,7.3v60.6h56c4.4,0,8,3.6,8,8s-3.6,8-8,8h-56V288h49.1c4.4-17.1,21.9-27.4,39-23
	s27.4,21.9,23,39s-21.9,27.4-39,23c-11.3-2.9-20.1-11.7-23-23H312v100.7h56c4.4,0,8,3.6,8,8s-3.6,8-8,8h-56v60.6
	c0,3.1,1.9,6,4.7,7.3c11.1,4.9,23.1,7.5,35.3,7.4c48.6,0,88-39.4,88-88c0-8.9-1.4-17.8-4-26.3C475.8,372.4,504,336.9,504,296z"/>
<g>
	<path class="st1" d="M368,171.3h-32c-4.4,0-8,3.6-8,8s3.6,8,8,8h32c4.4,0,8-3.6,8-8S372.4,171.3,368,171.3z"/>
	<path class="st1" d="M309.7,18.3L287,41c-3.1,3.1-3.2,8.2,0,11.3l0,0c3.1,3.1,8.2,3.1,11.3,0L321,29.7c3.1-3.1,3.2-8.2,0-11.3l0,0
		C317.8,15.2,312.8,15.2,309.7,18.3L309.7,18.3z"/>
	<path class="st1" d="M85.7,52.3c3.1,3.1,8.2,3.1,11.3,0c3.1-3.1,3.2-8.2,0-11.3l0,0L74.3,18.3c-3.1-3.1-8.2-3.1-11.3,0
		c-3.1,3.1-3.2,8.2,0,11.3l0,0L85.7,52.3z"/>
	<path class="st1" d="M309.7,340.3L287,317.7c-3.1-3.1-3.2-8.2,0-11.3l0,0c3.1-3.1,8.2-3.1,11.3,0L321,329c3.1,3.1,3.2,8.2,0,11.3
		l0,0C317.8,343.4,312.8,343.4,309.7,340.3L309.7,340.3z"/>
	<path class="st1" d="M85.7,306.3c3.1-3.1,8.2-3.1,11.3,0c3.1,3.1,3.2,8.2,0,11.3l0,0l-22.6,22.6c-3.1,3.1-8.2,3.1-11.3,0
		c-3.1-3.1-3.2-8.2,0-11.3l0,0L85.7,306.3z"/>
	<path class="st1" d="M48,171.3H16c-4.4,0-8,3.6-8,8s3.6,8,8,8h32c4.4,0,8-3.6,8-8S52.4,171.3,48,171.3z"/>
	<path class="st1" d="M311.1,140.8c-8-65.8-67.8-112.6-133.6-104.6S64.9,104,72.9,169.8c4.4,35.8,24.6,67.8,55.1,87v18.5
		c0,13.3,10.7,24,24,24h80c13.3,0,24-10.7,24-24v-18.5C295.3,232,316.7,186.9,311.1,140.8L311.1,140.8z M244,245.4
		c-2.5,1.4-4,4-4,6.9v23c0,4.4-3.6,8-8,8h-32v-77.5l28.5-42.8c1.2,0.1,2.3,0.1,3.5,0c13.3,0.1,24.1-10.5,24.2-23.8
		s-10.5-24.1-23.8-24.2s-24.1,10.5-24.2,23.8c-0.1,6,2.1,11.8,6.1,16.2L192,188.9l-22.3-33.4c8.8-9.9,8-25.1-1.9-33.9
		s-25.1-8-33.9,1.9s-8,25.1,1.9,33.9c4.5,4,10.2,6.2,16.2,6.1c1.2,0.1,2.3,0.1,3.5,0l28.5,42.3v77.5h-32c-4.4,0-8-3.6-8-8v-23
		c0-2.8-1.5-5.5-4-6.9c-49.7-28.7-66.8-92.3-38.1-142.1s92.4-66.7,142.1-38s66.8,92.3,38.1,142.1C272.9,223.2,259.8,236.3,244,245.4
		z M224,139.3c0-4.4,3.6-8,8-8s8,3.6,8,8s-3.6,8-8,8S224,143.7,224,139.3z M152,147.3c-4.4,0-8-3.6-8-8s3.6-8,8-8s8,3.6,8,8
		S156.4,147.3,152,147.3z"/>
	<path class="st1" d="M240,315.3h-96c-4.4,0-8,3.6-8,8s3.6,8,8,8h96c4.4,0,8-3.6,8-8S244.4,315.3,240,315.3z"/>
	<path class="st1" d="M240,347.3h-96c-4.4,0-8,3.6-8,8s3.6,8,8,8h96c4.4,0,8-3.6,8-8S244.4,347.3,240,347.3z"/>
</g>
</svg>
