<?xml version="1.0" encoding="utf-8"?>
<!-- Generator: Adobe Illustrator 26.0.1, SVG Export Plug-In . SVG Version: 6.00 Build 0)  -->
<svg version="1.1" id="line" xmlns="http://www.w3.org/2000/svg" xmlns:xlink="http://www.w3.org/1999/xlink" x="0px" y="0px"
	 viewBox="0 0 512 512" style="enable-background:new 0 0 512 512;" xml:space="preserve">
<style type="text/css">
	.st0{fill:#E55934;}
	.st1{fill:#222629;}
</style>
<g>
	<path class="st0" d="M228.8,254.2l-58.7-88l-58.6,88H228.8z"/>
	<path class="st0" d="M377.8,270.2l-61.8,232l0.5,1.8l187.1-233.8H377.8z"/>
	<path class="st0" d="M237.6,270.2H111.8L299,504l0.5-1.8L237.6,270.2z"/>
	<path class="st0" d="M243.7,247.8l54.4-81.6l-5.3-8H184L243.7,247.8z"/>
	<path class="st0" d="M258.6,254.2h98.2l-49-73.6L258.6,254.2z"/>
	<path class="st0" d="M371.8,247.8l59.7-89.6H322.6l-5.3,8L371.8,247.8z"/>
	<path class="st0" d="M386.6,254.2H504l-58.6-88L386.6,254.2z"/>
	<path class="st0" d="M361.3,270.2H254.2l53.6,201L361.3,270.2z"/>
</g>
<path class="st1" d="M293.7,74.3l-64-64C228.1,8.9,226.1,8,224,8H32C18.7,8,8,18.7,8,32v352c0,13.3,10.7,24,24,24h240
	c13.3,0,24-10.7,24-24V80C296,77.9,295.1,75.9,293.7,74.3z M232,35.3L268.7,72H232V35.3z M280,384c0,4.4-3.6,8-8,8H32
	c-4.4,0-8-3.6-8-8V32c0-4.4,3.6-8,8-8h184v56c0,4.4,3.6,8,8,8h56V384z"/>
<path class="st1" d="M65.4,206.8l37.3-58.5c2.6-3.6,1.8-8.6-1.8-11.2c-3.6-2.6-8.6-1.8-11.2,1.8c-0.2,0.2-0.3,0.5-0.5,0.7l-40,62.7
	c-1.6,2.6-1.6,5.9,0,8.5l40,65.3c2.8,3.4,7.9,3.8,11.3,1c2.6-2.2,3.5-5.8,2.3-9L65.4,206.8z"/>
<path class="st1" d="M203.7,137.3c-3.7,2.4-4.8,7.3-2.4,11l37.3,58.5l-37.4,61c-1.6,4.1,0.5,8.8,4.6,10.3c3.2,1.2,6.8,0.3,9-2.3
	l40-65.3c1.6-2.6,1.6-5.9,0-8.5l-40-62.7C212.3,135.7,207.3,134.8,203.7,137.3L203.7,137.3z"/>
<path class="st1" d="M180.4,136.6c-4.1-1.6-8.8,0.4-10.4,4.5l0,0l-50.9,128c-1.6,4.1,0.4,8.8,4.5,10.4s8.8-0.4,10.4-4.5l50.9-128
	C186.5,142.9,184.5,138.2,180.4,136.6L180.4,136.6L180.4,136.6z"/>
</svg>
