<?xml version="1.0" encoding="utf-8"?>
<!-- Generator: Adobe Illustrator 26.0.1, SVG Export Plug-In . SVG Version: 6.00 Build 0)  -->
<svg version="1.1" id="line" xmlns="http://www.w3.org/2000/svg" xmlns:xlink="http://www.w3.org/1999/xlink" x="0px" y="0px"
	 viewBox="0 0 512 512" style="enable-background:new 0 0 512 512;" xml:space="preserve">
<style type="text/css">
	.st0{fill:#E55934;}
	.st1{fill:#222629;}
</style>
<g>
	<path class="st0" d="M416,380V184h-64v244L416,380z"/>
	<path class="st0" d="M496,428V184h-64v196L496,428z"/>
	<path class="st0" d="M495.5,168c-4.6-39.5-40.3-67.8-79.8-63.2c-33.2,3.9-59.4,30-63.2,63.2H495.5z"/>
	<path class="st0" d="M372.7,456l45.6,45.7c3.1,3.1,8.2,3.2,11.3,0l0,0l45.6-45.7H372.7z"/>
	<path class="st0" d="M424,394l-61.4,46h122.7L424,394z"/>
</g>
<g>
	<path class="st1" d="M392,8H40C26.7,8,16,18.7,16,32v312c0,13.3,10.7,24,24,24h352c13.3,0,24-10.7,24-24V32C416,18.7,405.3,8,392,8
		z M400,344c0,4.4-3.6,8-8,8H40c-4.4,0-8-3.6-8-8V72h368V344z M400,56H32V32c0-4.4,3.6-8,8-8h352c4.4,0,8,3.6,8,8V56z"/>
	<path class="st1" d="M72,200h80c4.4,0,8-3.6,8-8v-80c0-4.4-3.6-8-8-8H72c-4.4,0-8,3.6-8,8v80C64,196.4,67.6,200,72,200z M80,120h64
		v64H80V120z"/>
	<path class="st1" d="M104,144h16v16h-16V144z"/>
	<path class="st1" d="M104,264h16v16h-16V264z"/>
	<path class="st1" d="M72,320h80c4.4,0,8-3.6,8-8v-80c0-4.4-3.6-8-8-8H72c-4.4,0-8,3.6-8,8v80C64,316.4,67.6,320,72,320z M80,240h64
		v64H80V240z"/>
	<path class="st1" d="M192,120h168c4.4,0,8-3.6,8-8s-3.6-8-8-8H192c-4.4,0-8,3.6-8,8S187.6,120,192,120z"/>
	<path class="st1" d="M192,160h136c4.4,0,8-3.6,8-8s-3.6-8-8-8H192c-4.4,0-8,3.6-8,8S187.6,160,192,160z"/>
	<path class="st1" d="M192,240h168c4.4,0,8-3.6,8-8s-3.6-8-8-8H192c-4.4,0-8,3.6-8,8S187.6,240,192,240z"/>
	<path class="st1" d="M192,280h136c4.4,0,8-3.6,8-8s-3.6-8-8-8H192c-4.4,0-8,3.6-8,8S187.6,280,192,280z"/>
</g>
</svg>
