<?xml version="1.0" encoding="utf-8"?>
<!-- Generator: Adobe Illustrator 26.0.1, SVG Export Plug-In . SVG Version: 6.00 Build 0)  -->
<svg version="1.1" id="Icons" xmlns="http://www.w3.org/2000/svg" xmlns:xlink="http://www.w3.org/1999/xlink" x="0px" y="0px"
	 viewBox="0 0 512 512" style="enable-background:new 0 0 512 512;" xml:space="preserve">
<style type="text/css">
	.st0{fill:#2960E3;}
	.st1{fill:#222629;}
	.st2{fill:#3B4147;}
</style>
<g>
	<path class="st0" d="M345.4,267.7c13,2.9,24.8,9.8,33.9,19.6c2.6,2.8,6.8,3.4,10,1.4l79.3-45.8c3.9-2.2,5.3-7.2,3.1-11.2
		c-0.1-0.2-0.3-0.4-0.4-0.6c-29-40.3-73.9-66.3-123.3-71.2c-4.5-0.4-8.5,3-8.8,7.5c0,0.2,0,0.5,0,0.7v91.5
		C339.2,263.6,341.8,266.9,345.4,267.7L345.4,267.7z"/>
	<path class="st0" d="M477,406.8c3.9,2.3,8.9,1,11.2-2.9c0.1-0.2,0.2-0.4,0.3-0.6c20.7-45.2,20.7-97.2,0-142.5
		c-1.9-4.1-6.8-5.8-10.9-3.9c-0.2,0.1-0.4,0.2-0.6,0.3L397.7,303c-3.3,1.9-4.9,5.8-3.8,9.4c4,12.8,4,26.4,0,39.2
		c-1.1,3.6,0.5,7.5,3.8,9.4L477,406.8z"/>
	<path class="st0" d="M265.1,332c0-6.6,1-13.2,3-19.6c1.1-3.6-0.5-7.5-3.8-9.4L185,257.2c-3.9-2.3-8.9-1-11.2,2.9
		c-0.1,0.2-0.2,0.4-0.3,0.6c-20.7,45.2-20.7,97.2,0,142.5c1.9,4.1,6.8,5.8,10.9,3.9c0.2-0.1,0.4-0.2,0.6-0.3l79.3-45.8
		c3.3-1.9,4.9-5.8,3.8-9.4C266.1,345.2,265.1,338.6,265.1,332z"/>
	<path class="st0" d="M316.5,396.3c-13-2.9-24.9-9.8-33.9-19.6c-2.6-2.8-6.8-3.4-10-1.4L193.3,421c-3.9,2.2-5.3,7.2-3.1,11.1
		c0.1,0.2,0.3,0.4,0.4,0.6c29,40.3,73.9,66.3,123.3,71.2c4.5,0.4,8.5-3,8.8-7.5c0-0.2,0-0.5,0-0.7v-91.6
		C322.8,400.4,320.2,397.1,316.5,396.3z"/>
	<path class="st0" d="M282.6,287.3c9-9.8,20.9-16.7,33.9-19.6c3.7-0.9,6.3-4.2,6.2-8v-91.5c0-4.5-3.6-8.2-8.1-8.3
		c-0.2,0-0.5,0-0.7,0c-49.4,4.9-94.3,30.9-123.3,71.2c-2.6,3.7-1.7,8.8,2,11.4c0.2,0.1,0.4,0.3,0.6,0.4l79.3,45.8
		C275.9,290.7,280,290.1,282.6,287.3L282.6,287.3z"/>
	<path class="st0" d="M379.3,376.7c-9,9.8-20.9,16.7-33.9,19.6c-3.7,0.9-6.3,4.2-6.2,8v91.5c-0.1,4.5,3.6,8.2,8.1,8.3
		c0.3,0,0.5,0,0.8,0c49.4-4.9,94.3-30.9,123.3-71.2c2.6-3.7,1.7-8.8-2.1-11.4c-0.2-0.1-0.4-0.3-0.6-0.4l-79.3-45.8
		C386.1,373.3,381.9,373.9,379.3,376.7L379.3,376.7z"/>
</g>
<path class="st1" d="M384,264H252.7c0-0.1,0-0.1,0-0.2c94.5-93.2,14.5-14.4,122.6-121.3c9.4-9.4,9.4-24.6,0-33.9l0,0l-67.8-67.9
	c-9.4-9.4-24.6-9.4-33.9,0l0,0L152,162.2V32c0-13.3-10.7-24-24-24H32C18.7,8,8,18.7,8,32v304c0,39.7,32.3,72,72,72h304
	c13.3,0,24-10.7,24-24v-96C408,274.7,397.3,264,384,264z M24,120h112v80H24V120z M152,184.8l2.7-2.8l78.5,78.5l-81.5,80.7
	c0.1-1.7,0.3-3.5,0.3-5.3V184.8z M222.6,114.2l78.9,78.9l-56.9,56.3L166,170.8L222.6,114.2z M236.4,280H296v112h-80v-91.8L236.4,280
	z M284.8,52c3.1-3.1,8.2-3.1,11.3,0l0,0l67.9,67.9c3.1,3.1,3.1,8.2,0,11.3l-51.2,50.7L233.9,103L284.8,52z M32,24h96
	c4.4,0,8,3.6,8,8v72H24V32C24,27.6,27.6,24,32,24z M24,216h112v74.8c-24.8-30.9-70-35.9-101-11c-4.1,3.3-7.8,7-11,11V216z M24,336
	c0-30.9,25.1-56,56-56s56,25.1,56,56s-25.1,56-56,56S24,366.9,24,336z M140.5,374.9L200,316v76h-74.8
	C131.1,387.1,136.3,381.4,140.5,374.9z M392,384c0,4.4-3.6,8-8,8h-72V280h72c4.4,0,8,3.6,8,8V384z"/>
<path class="st2" d="M112,336c0-17.7-14.3-32-32-32s-32,14.3-32,32s14.3,32,32,32S112,353.7,112,336z M64,336c0-8.8,7.2-16,16-16
	s16,7.2,16,16s-7.2,16-16,16S64,344.8,64,336z"/>
</svg>
