<?xml version="1.0" encoding="utf-8"?>
<!-- Generator: Adobe Illustrator 26.0.1, SVG Export Plug-In . SVG Version: 6.00 Build 0)  -->
<svg version="1.1" id="line" xmlns="http://www.w3.org/2000/svg" xmlns:xlink="http://www.w3.org/1999/xlink" x="0px" y="0px"
	 viewBox="0 0 512 512" style="enable-background:new 0 0 512 512;" xml:space="preserve">
<style type="text/css">
	.st0{fill:#E55934;}
	.st1{fill:#222629;}
</style>
<g>
	<path class="st0" d="M504,200v-24c0-13.3-10.7-24-24-24H128c-13.3,0-24,10.7-24,24v24H504z"/>
	<path class="st0" d="M104,216v264c0,13.3,10.7,24,24,24h352c13.3,0,24-10.7,24-24V216H104z M296,480H152c-4.4,0-8-3.6-8-8
		s3.6-8,8-8h144c4.4,0,8,3.6,8,8S300.4,480,296,480z M296,448H152c-4.4,0-8-3.6-8-8s3.6-8,8-8h144c4.4,0,8,3.6,8,8
		S300.4,448,296,448z M464,472c0,4.4-3.6,8-8,8H336c-4.4,0-8-3.6-8-8v-48c0-4.4,3.6-8,8-8h120c4.4,0,8,3.6,8,8V472z M464,384
		c0,4.4-3.6,8-8,8H336c-4.4,0-8-3.6-8-8v-48c0-4.4,3.6-8,8-8h120c4.4,0,8,3.6,8,8V384z M464,296c0,4.4-3.6,8-8,8H336
		c-4.4,0-8-3.6-8-8v-48c0-4.4,3.6-8,8-8h120c4.4,0,8,3.6,8,8V296z"/>
</g>
<g>
	<path class="st1" d="M224,232c-48.6,0-88,39.4-88,88s39.4,88,88,88s88-39.4,88-88S272.6,232,224,232z M224,392
		c-39.8,0-72-32.2-72-72s32.2-72,72-72s72,32.2,72,72S263.8,392,224,392z"/>
	<path class="st1" d="M384,8h-64c-13.3,0-24,10.7-24,24v24H168V32c0-13.3-10.7-24-24-24H32C18.7,8,8,18.7,8,32v112
		c0,13.3,10.7,24,24,24h24v128H32c-13.3,0-24,10.7-24,24v64c0,13.3,10.7,24,24,24h64c13.3,0,24-10.7,24-24v-64c0-13.3-10.7-24-24-24
		H72V168h72c13.3,0,24-10.7,24-24V72h128v24c0,13.3,10.7,24,24,24h22.6c-3.4,9.6-12.4,16-22.6,16h-64c-22.1,0-40,17.9-40,40v12.7
		l-10.3-10.4c-3.1-3.1-8.2-3.1-11.4,0s-3.1,8.2,0,11.4l24,24c3.1,3.1,8.2,3.2,11.3,0l0,0l24-24c3.1-3.1,3.1-8.2,0-11.4
		c-3.1-3.1-8.2-3.1-11.4,0L232,188.7V176c0-13.3,10.7-24,24-24h64c19,0,35.4-13.4,39.2-32H384c13.3,0,24-10.7,24-24V32
		C408,18.7,397.3,8,384,8z M96,312c4.4,0,8,3.6,8,8v64c0,4.4-3.6,8-8,8H32c-4.4,0-8-3.6-8-8v-64c0-4.4,3.6-8,8-8H96z M152,144
		c0,4.4-3.6,8-8,8H32c-4.4,0-8-3.6-8-8V32c0-4.4,3.6-8,8-8h112c4.4,0,8,3.6,8,8V144z M392,96c0,4.4-3.6,8-8,8h-64c-4.4,0-8-3.6-8-8
		V32c0-4.4,3.6-8,8-8h64c4.4,0,8,3.6,8,8V96z"/>
</g>
</svg>
