<?xml version="1.0" encoding="utf-8"?>
<!-- Generator: Adobe Illustrator 26.0.1, SVG Export Plug-In . SVG Version: 6.00 Build 0)  -->
<svg version="1.1" id="line" xmlns="http://www.w3.org/2000/svg" xmlns:xlink="http://www.w3.org/1999/xlink" x="0px" y="0px"
	 viewBox="0 0 512 512" style="enable-background:new 0 0 512 512;" xml:space="preserve">
<style type="text/css">
	.st0{fill:#E55934;}
	.st1{fill:#3B4147;}
	.st2{fill:#222629;}
</style>
<path class="st0" d="M152,376h36.8l9-8.4c70.5-66,161.8-105.2,258.2-110.8V200H152V376z M216,216c22.1,0,40,17.9,40,40
	s-17.9,40-40,40s-40-17.9-40-40S193.9,216,216,216z"/>
<path class="st0" d="M456,376V272.8c-90.6,5.5-176.6,41.9-243.6,103.2H456z"/>
<path class="st0" d="M480,152H128c-13.3,0-24,10.7-24,24v224c0,13.3,10.7,24,24,24h136v19l-91.6,45.8c-4,2-5.6,6.8-3.6,10.7
	c1.5,3,4.8,4.8,8.2,4.4L304,488l127,15.9c4.4,0.6,8.4-2.6,8.9-6.9c0.4-3.4-1.3-6.6-4.4-8.2L344,443v-19h136c13.3,0,24-10.7,24-24
	V176C504,162.7,493.3,152,480,152z M328,440h-48v-16h48V440z M472,384c0,4.4-3.6,8-8,8H144c-4.4,0-8-3.6-8-8V192c0-4.4,3.6-8,8-8
	h320c4.4,0,8,3.6,8,8V384z"/>
<path class="st1" d="M64,376c13.3,0,24-10.7,24-24s-10.7-24-24-24s-24,10.7-24,24S50.7,376,64,376z M64,344c4.4,0,8,3.6,8,8
	s-3.6,8-8,8s-8-3.6-8-8S59.6,344,64,344z"/>
<path class="st2" d="M384,296H273l96.1-55.5c11.5-6.6,15.4-21.3,8.8-32.8l0,0l-32-55.4c-6.6-11.5-21.3-15.4-32.8-8.8L217,199
	l55.5-96.1c6.6-11.5,2.7-26.2-8.8-32.8l0,0l-55.4-32c-11.5-6.6-26.2-2.7-32.8,8.8l0,0L120,143V32c0-13.3-10.7-24-24-24H32
	C18.7,8,8,18.7,8,32v352c0,13.3,10.7,24,24,24h352c13.3,0,24-10.7,24-24v-64C408,306.7,397.3,296,384,296z M104,384c0,4.4-3.6,8-8,8
	H32c-4.4,0-8-3.6-8-8v-72h80V384z M104,296H24v-32h80V296z M104,248H24v-32h80V248z M104,200H24v-32h80V200z M104,152H24v-32h80V152
	z M104,104H24V72h80V104z M104,56H24V32c0-4.4,3.6-8,8-8h64c4.4,0,8,3.6,8,8V56z M321.1,157.4c3.8-2.2,8.7-0.9,10.9,2.9l32,55.4
	c2.2,3.8,0.9,8.7-2.9,10.9L121,365.3l80-138.6L321.1,157.4z M120,175l69.4-120.1c2.2-3.8,7.1-5.1,10.9-2.9l55.4,32
	c3.8,2.2,5.1,7.1,2.9,10.9L120,335V175z M392,384c0,4.4-3.6,8-8,8H118.5c0.9-2.5,1.4-5,1.4-7.6L245.3,312H384c4.4,0,8,3.6,8,8V384z"
	/>
</svg>
