<?xml version="1.0" encoding="utf-8"?>
<!-- Generator: Adobe Illustrator 26.0.1, SVG Export Plug-In . SVG Version: 6.00 Build 0)  -->
<svg version="1.1" id="Icons" xmlns="http://www.w3.org/2000/svg" xmlns:xlink="http://www.w3.org/1999/xlink" x="0px" y="0px"
	 viewBox="0 0 512 512" style="enable-background:new 0 0 512 512;" xml:space="preserve">
<style type="text/css">
	.st0{fill:#E55934;}
	.st1{fill:#222629;}
</style>
<g>
	<path class="st0" d="M480,104H256c-13.3,0-24,10.7-24,24v352c0,13.3,10.7,24,24,24h224c13.3,0,24-10.7,24-24V128
		C504,114.7,493.3,104,480,104z M488,480c0,4.4-3.6,8-8,8H256c-4.4,0-8-3.6-8-8V128c0-4.4,3.6-8,8-8h224c4.4,0,8,3.6,8,8V480z"/>
	<path class="st0" d="M264,380.5V464c0,4.4,3.6,8,8,8h192c4.4,0,8-3.6,8-8v-92.7l-73.2-73.2L264,380.5z"/>
	<path class="st0" d="M464,136H272c-4.4,0-8,3.6-8,8v217.7l131.8-80.6c3.2-1.9,7.2-1.4,9.8,1.2l66.3,66.3V144
		C472,139.6,468.4,136,464,136L464,136z M340,256c-24.3,0-44-19.7-44-44s19.7-44,44-44s44,19.7,44,44S364.3,256,340,256z"/>
	<circle class="st0" cx="340" cy="212" r="28"/>
</g>
<path class="st1" d="M368,136h-24V96c0-13.3-10.7-24-24-24h-8V32c0-13.3-10.7-24-24-24H128c-13.3,0-24,10.7-24,24v40h-8
	c-13.3,0-24,10.7-24,24v40H48c-22.1,0-40,17.9-40,40v128c0,22.1,17.9,40,40,40h28.5l-11.8,31.6c-4.7,12.4,1.6,26.2,14,30.9
	c2.7,1,5.5,1.5,8.4,1.5h235.2c13.3,0,24-10.7,24-24c0-2.4-0.4-4.9-1.1-7.2L334.9,344H368c22.1,0,40-17.9,40-40V176
	C408,153.9,390.1,136,368,136L368,136z M320,88c4.4,0,8,3.6,8,8v40h-16V88H320z M120,32c0-4.4,3.6-8,8-8h160c4.4,0,8,3.6,8,8v136
	H120V32z M88,96c0-4.4,3.6-8,8-8h8v48H88V96z M48,152h56v16H88c-4.4,0-8,3.6-8,8s3.6,8,8,8h240c4.4,0,8-3.6,8-8s-3.6-8-8-8h-16v-16
	h56c13.3,0,24,10.7,24,24v88H24v-88C24,162.7,34.7,152,48,152z M48,328c-13.3,0-24-10.7-24-24v-24h76.5l-18,48H48z M322.2,392H87.1
	c-4.4,0-8-3.6-8-8c0-1,0.2-1.9,0.5-2.8L117.5,280h180.6l31.8,101.6c1.3,4.2-1,8.7-5.2,10C323.9,391.9,323.1,392,322.2,392L322.2,392
	z M368,328h-38.1l-15-48H392v24C392,317.3,381.3,328,368,328z"/>
</svg>
