<?xml version="1.0" encoding="utf-8"?>
<!-- Generator: Adobe Illustrator 26.0.1, SVG Export Plug-In . SVG Version: 6.00 Build 0)  -->
<svg version="1.1" id="line" xmlns="http://www.w3.org/2000/svg" xmlns:xlink="http://www.w3.org/1999/xlink" x="0px" y="0px"
	 viewBox="0 0 512 512" style="enable-background:new 0 0 512 512;" xml:space="preserve">
<style type="text/css">
	.st0{fill:#E55934;}
	.st1{fill:#222629;}
</style>
<path class="st0" d="M464,104H144c-22.1,0-40,17.9-40,40v320c0,22.1,17.9,40,40,40h320c22.1,0,40-17.9,40-40V144
	C504,121.9,486.1,104,464,104z M472,336c0,4.4-3.6,8-8,8h-21.8c-3,10.2-7.1,20.1-12.2,29.4l15.4,15.4c3.1,3.1,3.1,8.2,0,11.3l0,0
	l-45.3,45.3c-3.1,3.1-8.2,3.1-11.3,0l0,0L373.4,430c-9.3,5.2-19.2,9.3-29.4,12.2V464c0,4.4-3.6,8-8,8h-64c-4.4,0-8-3.6-8-8v-21.8
	c-10.2-3-20.1-7-29.4-12.2l-15.4,15.4c-3.2,3-8.1,3-11.3,0l-45.3-45.3c-3.1-3.1-3.1-8.2,0-11.3l0,0l15.4-15.4
	c-5.2-9.3-9.3-19.2-12.2-29.4H144c-4.4,0-8-3.6-8-8v-64c0-4.4,3.6-8,8-8h21.8c3-10.2,7.1-20.1,12.2-29.4l-15.4-15.4
	c-3.1-3.1-3.1-8.2,0-11.3l0,0l45.3-45.3c3.1-3.1,8.2-3.1,11.3,0l0,0l15.4,15.4c9.3-5.2,19.2-9.3,29.4-12.2V144c0-4.4,3.6-8,8-8h64
	c4.4,0,8,3.6,8,8v21.8c10.2,3,20.1,7,29.4,12.2l15.4-15.4c3.2-3,8.1-3,11.3,0l45.3,45.3c3.1,3.1,3.1,8.2,0,11.3l0,0L430,234.6
	c5.2,9.3,9.3,19.2,12.2,29.4H464c4.4,0,8,3.6,8,8V336z"/>
<circle class="st0" cx="304" cy="304" r="72"/>
<g>
	<path class="st1" d="M384,8H32C18.7,8,8,18.7,8,32v216c0,13.3,10.7,24,24,24h136v16h-24c-22.1,0-40,17.9-40,40c0,4.4,3.6,8,8,8h192
		c4.4,0,8-3.6,8-8c0-22.1-17.9-40-40-40h-24v-16h136c13.3,0,24-10.7,24-24V32C408,18.7,397.3,8,384,8z M272,304
		c10.2,0,19.2,6.4,22.6,16H121.4c3.4-9.6,12.5-16,22.6-16H272z M184,288v-16h48v16H184z M392,248c0,4.4-3.6,8-8,8H32
		c-4.4,0-8-3.6-8-8V32c0-4.4,3.6-8,8-8h352c4.4,0,8,3.6,8,8V248z"/>
	<path class="st1" d="M368,40H48c-4.4,0-8,3.6-8,8v184c0,4.4,3.6,8,8,8h320c4.4,0,8-3.6,8-8V48C376,43.6,372.4,40,368,40z M360,224
		H56V56h304V224z"/>
	<path class="st1" d="M106.7,146.2L146,186c3.5,3.4,9.1,3.4,12.6,0c3.5-3.5,3.5-9.1,0-12.5l0,0L125.4,140l33.2-33.4
		c3.5-3.5,3.5-9.1,0-12.5l0,0c-3.5-3.4-9.1-3.4-12.6,0L106.7,134C103.7,135.8,103.6,145.1,106.7,146.2z"/>
	<path class="st1" d="M198.5,188c3.9,1.5,8.2-0.3,9.9-4.1l34.3-81.7c1.7-3.8-0.1-8.3-3.9-9.9c-3.9-1.7-8.5,0.1-10.2,4l0,0L194.3,178
		c-1.7,3.8,0.1,8.3,3.9,9.9C198.3,187.9,198.4,188,198.5,188z"/>
	<path class="st1" d="M257.4,186c3.5,3.4,9.1,3.4,12.6,0l39.3-39.9c3.2-3.5,3.2-8.8,0-12.3L270,94c-3.5-3.4-9.1-3.4-12.6,0
		c-3.5,3.5-3.5,9.1,0,12.5l0,0l33.2,33.4l-33.2,33.4C254,176.9,253.9,182.5,257.4,186L257.4,186z"/>
</g>
</svg>
