<?xml version="1.0" encoding="utf-8"?>
<!-- Generator: Adobe Illustrator 26.0.1, SVG Export Plug-In . SVG Version: 6.00 Build 0)  -->
<svg version="1.1" id="Line" xmlns="http://www.w3.org/2000/svg" xmlns:xlink="http://www.w3.org/1999/xlink" x="0px" y="0px"
	 viewBox="0 0 512 512" style="enable-background:new 0 0 512 512;" xml:space="preserve">
<style type="text/css">
	.st0{fill:#2960E3;}
	.st1{fill:#222629;}
</style>
<path class="st0" d="M496,440c4.4,0,8-3.6,8-8V128c0-13.2-10.8-24-24-24H248v320h-16V104h-8c-30.9,0-56,25.1-56,56v304
	c0,2.7,0.2,5.4,0.8,8c3.8,18.6,20.2,32,39.2,32h288c4.4,0,8-3.6,8-8s-3.6-8-8-8c-13.3,0-24-10.7-24-24S482.7,440,496,440z M304,192
	h128c4.4,0,8,3.6,8,8s-3.6,8-8,8H304c-4.4,0-8-3.6-8-8S299.6,192,304,192z M304,264h128c4.4,0,8,3.6,8,8s-3.6,8-8,8H304
	c-4.4,0-8-3.6-8-8S299.6,264,304,264z M464,488H208c-10.1,0-19.2-6.4-22.6-16c-1-2.6-1.5-5.3-1.4-8c0-13.2,10.8-24,24-24h256
	C453.3,454.2,453.3,473.8,464,488z"/>
<path class="st1" d="M32,136c0,70.7,57.3,128,128,128s128-57.3,128-128S230.7,8,160,8C89.3,8.1,32.1,65.3,32,136z M160,248
	c-61.8-0.1-111.9-50.2-112-112c0-3.1,0.2-6.2,0.5-9.2c24.7-3.9,48.3-12.8,69.4-26.2c-1,5.5-2.7,10.8-5,15.9c-2,4-0.4,8.8,3.6,10.7
	c1.4,0.7,3,1,4.6,0.8c2.2-0.3,41.7-5.4,67.8-24.1c-2.2,9.8-6.1,19.2-11.5,27.7c-2.5,3.7-1.5,8.6,2.2,11.1c1.8,1.2,4.1,1.6,6.2,1.2
	c6.6-1.5,58.1-13.4,83.2-33.3c14.3,60-22.7,120.2-82.7,134.5C177.7,247,168.9,248,160,248z M160,24c45.5,0.1,86.5,27.6,103.7,69.7
	c-10.9,12.7-42.1,23.8-64.4,30.1c5.4-14,8.3-28.8,8.7-43.8c0-4.4-3.6-8-8-8c-3,0-5.8,1.7-7.2,4.4c-9.2,18.4-40.1,28.8-60.7,33.3
	c2.4-9.7,3.7-19.7,3.8-29.7c0-4.4-3.6-8-8-8c-2.5,0-4.9,1.2-6.4,3.2c-15.9,21.2-52.1,31-70.4,34.8C63.3,59.6,108.2,24.1,160,24z"/>
<path class="st1" d="M295.6,308.8L228,286.2c-12.4-4.2-25.8,2.4-30.1,14.7c-7.1,20.9-29.8,32.1-50.8,25c-11.7-4-21-13.2-25-25
	c-4.3-12.3-17.8-18.9-30.1-14.7l-67.6,22.6C14.6,312.1,8,321.2,8,331.5V384c0,13.3,10.7,24,24,24h256c13.3,0,24-10.7,24-24v-52.5
	C312,321.2,305.4,312.1,295.6,308.8z M296,384c0,4.4-3.6,8-8,8H32c-4.4,0-8-3.6-8-8v-52.5c0-3.4,2.2-6.5,5.5-7.6l67.6-22.5
	c4-1.4,8.5,0.7,9.9,4.7c10,29.3,41.8,44.9,71.1,34.9c16.4-5.6,29.3-18.5,34.9-34.9c1.5-4,5.9-6.1,9.9-4.7l0,0l67.6,22.5
	c3.3,1.1,5.5,4.1,5.5,7.6V384z"/>
</svg>
