<?xml version="1.0" encoding="utf-8"?>
<!-- Generator: Adobe Illustrator 26.0.1, SVG Export Plug-In . SVG Version: 6.00 Build 0)  -->
<svg version="1.1" id="Icons" xmlns="http://www.w3.org/2000/svg" xmlns:xlink="http://www.w3.org/1999/xlink" x="0px" y="0px"
	 viewBox="0 0 512 512" style="enable-background:new 0 0 512 512;" xml:space="preserve">
<style type="text/css">
	.st0{fill:#2960E3;}
	.st1{fill:#222629;}
</style>
<path class="st0" d="M336,296c-92.7,0.1-167.9,75.3-168,168c0,22.1,17.9,40,40,40h256c22.1,0,40-17.9,40-40
	C503.9,371.3,428.7,296.1,336,296z"/>
<circle class="st0" cx="336" cy="188" r="84"/>
<g>
	<path class="st1" d="M344,208V32c0-13.3-10.7-24-24-24H32C18.7,8,8,18.7,8,32v352c0,13.3,10.7,24,24,24h272
		c57.4,0,104-46.6,104-104C408,262,382.8,224.1,344,208z M32,392c-4.4,0-8-3.6-8-8V32c0-4.4,3.6-8,8-8h288c4.4,0,8,3.6,8,8v170.9
		c-55.8-13.4-111.8,21-125.2,76.8c-10.4,43.4,8.1,88.7,46,112.3H32z M304,392c-48.6,0-88-39.4-88-88s39.4-88,88-88s88,39.4,88,88
		C391.9,352.6,352.6,391.9,304,392z"/>
	<path class="st1" d="M352,296h-40v-56c0-4.4-3.6-8-8-8s-8,3.6-8,8v64c0,4.4,3.6,8,8,8h48c4.4,0,8-3.6,8-8S356.4,296,352,296z"/>
	<path class="st1" d="M120,80h112c4.4,0,8-3.6,8-8s-3.6-8-8-8H120c-4.4,0-8,3.6-8,8S115.6,80,120,80z"/>
	<path class="st1" d="M80,152h192c4.4,0,8-3.6,8-8s-3.6-8-8-8H80c-4.4,0-8,3.6-8,8S75.6,152,80,152z"/>
	<path class="st1" d="M80,216h128c4.4,0,8-3.6,8-8s-3.6-8-8-8H80c-4.4,0-8,3.6-8,8S75.6,216,80,216z"/>
	<path class="st1" d="M176,264H80c-4.4,0-8,3.6-8,8s3.6,8,8,8h96c4.4,0,8-3.6,8-8S180.4,264,176,264z"/>
	<path class="st1" d="M176,328H80c-4.4,0-8,3.6-8,8s3.6,8,8,8h96c4.4,0,8-3.6,8-8S180.4,328,176,328z"/>
</g>
</svg>
