<?xml version="1.0" encoding="utf-8"?>
<!-- Generator: Adobe Illustrator 26.0.1, SVG Export Plug-In . SVG Version: 6.00 Build 0)  -->
<svg version="1.1" id="Line" xmlns="http://www.w3.org/2000/svg" xmlns:xlink="http://www.w3.org/1999/xlink" x="0px" y="0px"
	 viewBox="0 0 512 512" style="enable-background:new 0 0 512 512;" xml:space="preserve">
<style type="text/css">
	.st0{fill:#E55934;}
	.st1{fill:#222629;}
</style>
<path class="st0" d="M480,168H336c-13.3,0-24,10.7-24,24v72h-16v-72c0-13.3-10.7-24-24-24H128c-13.3,0-24,10.7-24,24v288
	c0,13.3,10.7,24,24,24h144c13.3,0,24-10.7,24-24v-72h16v72c0,13.3,10.7,24,24,24h144c13.3,0,24-10.7,24-24V192
	C504,178.7,493.3,168,480,168z M240,376h-80c-4.4,0-8-3.6-8-8s3.6-8,8-8h80c4.4,0,8,3.6,8,8S244.4,376,240,376z M240,312h-80
	c-4.4,0-8-3.6-8-8s3.6-8,8-8h80c4.4,0,8,3.6,8,8S244.4,312,240,312z M240,248h-80c-4.4,0-8-3.6-8-8s3.6-8,8-8h80c4.4,0,8,3.6,8,8
	S244.4,248,240,248z M312,280v48h-16v-48H312z M296,392v-48h16v48H296z M448,376h-80c-4.4,0-8-3.6-8-8s3.6-8,8-8h80c4.4,0,8,3.6,8,8
	S452.4,376,448,376z M448,312h-80c-4.4,0-8-3.6-8-8s3.6-8,8-8h80c4.4,0,8,3.6,8,8S452.4,312,448,312z M448,248h-80c-4.4,0-8-3.6-8-8
	s3.6-8,8-8h80c4.4,0,8,3.6,8,8S452.4,248,448,248z"/>
<g>
	<path class="st1" d="M299.4,24.7c-3.2-10-12.5-16.8-23-16.7H64C50.7,8,40,18.7,40,32v40H16c-4.4,0-8,3.6-8,8s3.6,8,8,8h24v48H16
		c-4.4,0-8,3.6-8,8s3.6,8,8,8h24v48H16c-4.4,0-8,3.6-8,8s3.6,8,8,8h24v48H16c-4.4,0-8,3.6-8,8s3.6,8,8,8h24v48H16c-4.4,0-8,3.6-8,8
		s3.6,8,8,8h24v40c0,13.3,10.7,24,24,24h212.4c10.5,0,19.8-6.7,23-16.7C337.5,272.1,337.5,143.9,299.4,24.7z M284.1,386.5
		c-1.1,3.4-4.4,5.7-8,5.5H64c-4.4,0-8-3.6-8-8v-40h24c4.4,0,8-3.6,8-8s-3.6-8-8-8H56v-48h24c4.4,0,8-3.6,8-8s-3.6-8-8-8H56v-48h24
		c4.4,0,8-3.6,8-8s-3.6-8-8-8H56v-48h24c4.4,0,8-3.6,8-8s-3.6-8-8-8H56V88h24c4.4,0,8-3.6,8-8s-3.6-8-8-8H56V32c0-4.4,3.6-8,8-8
		h212.4c3.6-0.2,6.9,2.1,8,5.5C321.5,145.6,321.4,270.4,284.1,386.5L284.1,386.5z"/>
	<path class="st1" d="M256,72H128c-4.4,0-8,3.6-8,8v64c0,4.4,3.6,8,8,8h128c4.4,0,8-3.6,8-8V80C264,75.6,260.4,72,256,72z M248,136
		H136V88h112V136z"/>
</g>
</svg>
