<?xml version="1.0" encoding="utf-8"?>
<!-- Generator: Adobe Illustrator 26.0.1, SVG Export Plug-In . SVG Version: 6.00 Build 0)  -->
<svg version="1.1" id="line" xmlns="http://www.w3.org/2000/svg" xmlns:xlink="http://www.w3.org/1999/xlink" x="0px" y="0px"
	 viewBox="0 0 512 512" style="enable-background:new 0 0 512 512;" xml:space="preserve">
<style type="text/css">
	.st0{fill:#E55934;}
	.st1{fill:#222629;}
</style>
<path class="st0" d="M496,264h-28.8c-4-16.6-10.4-32.4-19.2-47l20.5-20.5c3.1-3.1,3.1-8.2,0-11.3l-45.3-45.3
	c-3.1-3.1-8.2-3.1-11.3,0l-20.5,20.5c-14.7-8.9-30.7-15.5-47.4-19.6V112c0-4.4-3.6-8-8-8h-64c-4.4,0-8,3.6-8,8v28.8
	c-16.6,4.1-32.5,10.7-47,19.6l-20.5-20.5c-3.1-3.1-8.2-3.1-11.3,0l-45.3,45.3c-3.1,3.1-3.1,8.2,0,11.3l20.5,20.5
	c-8.9,14.6-15.5,30.4-19.6,47H112c-4.4,0-8,3.6-8,8v64c0,4.4,3.6,8,8,8h28.8c4.1,16.6,10.7,32.5,19.6,47l-20.5,20.5
	c-3.1,3.1-3.1,8.2,0,11.3l45.3,45.3c3.1,3.1,8.2,3.1,11.3,0L217,448c14.6,8.8,30.5,15.2,47,19.2V496c0,4.4,3.6,8,8,8h64
	c4.4,0,8-3.6,8-8v-28.8c16.6-4,32.4-10.4,47-19.2l20.5,20.5c3.1,3.1,8.2,3.1,11.3,0l45.3-45.3c3.1-3.1,3.1-8.2,0-11.3L448,391
	c8.8-14.6,15.2-30.5,19.2-47H496c4.4,0,8-3.6,8-8v-64C504,267.6,500.4,264,496,264L496,264z M304,368c-35.3,0-64-28.7-64-64
	s28.7-64,64-64s64,28.7,64,64S339.3,368,304,368z"/>
<g>
	<path class="st1" d="M384,8H32C18.7,8,8,18.7,8,32v352c0,13.3,10.7,24,24,24h352c13.3,0,24-10.7,24-24V32C408,18.7,397.3,8,384,8z
		 M392,384c0,4.4-3.6,8-8,8H32c-4.4,0-8-3.6-8-8V80h368V384z M392,64H24V32c0-4.4,3.6-8,8-8h352c4.4,0,8,3.6,8,8V64z"/>
	<path class="st1" d="M232,280h104c4.4,0,8-3.6,8-8v-96c0-4.4-3.6-8-8-8H232c-4.4,0-8,3.6-8,8v96C224,276.4,227.6,280,232,280z
		 M240,184h88v80h-88V184z"/>
	<path class="st1" d="M80,208h104c4.4,0,8-3.6,8-8v-88c0-4.4-3.6-8-8-8H80c-4.4,0-8,3.6-8,8v88C72,204.4,75.6,208,80,208z M88,120
		h88v72H88V120z"/>
	<path class="st1" d="M232,320h104c4.4,0,8-3.6,8-8s-3.6-8-8-8H232c-4.4,0-8,3.6-8,8S227.6,320,232,320z"/>
	<path class="st1" d="M80,248h104c4.4,0,8-3.6,8-8s-3.6-8-8-8H80c-4.4,0-8,3.6-8,8S75.6,248,80,248z"/>
	<path class="st1" d="M232,368h104c4.4,0,8-3.6,8-8s-3.6-8-8-8H232c-4.4,0-8,3.6-8,8S227.6,368,232,368z"/>
	<path class="st1" d="M80,296h104c4.4,0,8-3.6,8-8s-3.6-8-8-8H80c-4.4,0-8,3.6-8,8S75.6,296,80,296z"/>
</g>
</svg>
