<?xml version="1.0" encoding="utf-8"?>
<!-- Generator: Adobe Illustrator 26.0.1, SVG Export Plug-In . SVG Version: 6.00 Build 0)  -->
<svg version="1.1" id="line" xmlns="http://www.w3.org/2000/svg" xmlns:xlink="http://www.w3.org/1999/xlink" x="0px" y="0px"
	 viewBox="0 0 512 512" style="enable-background:new 0 0 512 512;" xml:space="preserve">
<style type="text/css">
	.st0{fill:#E55934;}
	.st1{fill:#222629;}
</style>
<path class="st0" d="M104,204v264c0,13.3,10.7,24,24,24h352c13.3,0,24-10.7,24-24V204H104z M256,244c0-4.4,3.6-8,8-8h80
	c4.4,0,8,3.6,8,8v88c0,4.4-3.6,8-8,8h-80c-4.4,0-8-3.6-8-8V244z M144,244c0-4.4,3.6-8,8-8h72c4.4,0,8,3.6,8,8v88c0,4.4-3.6,8-8,8
	h-72c-4.4,0-8-3.6-8-8V244z M280,460H152c-4.4,0-8-3.6-8-8s3.6-8,8-8h128c4.4,0,8,3.6,8,8S284.4,460,280,460z M280,420H152
	c-4.4,0-8-3.6-8-8s3.6-8,8-8h128c4.4,0,8,3.6,8,8S284.4,420,280,420z M280,380H152c-4.4,0-8-3.6-8-8s3.6-8,8-8h128c4.4,0,8,3.6,8,8
	S284.4,380,280,380z M456,460H328c-4.4,0-8-3.6-8-8s3.6-8,8-8h128c4.4,0,8,3.6,8,8S460.4,460,456,460z M456,420H328
	c-4.4,0-8-3.6-8-8s3.6-8,8-8h128c4.4,0,8,3.6,8,8S460.4,420,456,420z M456,380H328c-4.4,0-8-3.6-8-8s3.6-8,8-8h128c4.4,0,8,3.6,8,8
	S460.4,380,456,380z M464,332c0,4.4-3.6,8-8,8h-72c-4.4,0-8-3.6-8-8v-88c0-4.4,3.6-8,8-8h72c4.4,0,8,3.6,8,8V332z"/>
<path class="st0" d="M480,124H128c-13.3,0-24,10.7-24,24v40h400v-40C504,134.7,493.3,124,480,124z"/>
<g>
	<path class="st1" d="M342,161.3c2.7-3,2.7-7.6,0-10.7c-3-3.4-75.1-82.7-166-82.7S13.1,147.3,10,150.7c-2.7,3-2.7,7.6,0,10.7
		c3,3.4,75.1,82.7,166,82.7S338.9,164.7,342,161.3z M27.1,156c23.7-23.5,51.3-42.6,81.6-56.6c-27.6,32.7-27.7,80.5,0,113.2
		C78.4,198.6,50.8,179.4,27.1,156z M176,228c-39.8,0-72-32.2-72-72s32.2-72,72-72s72,32.2,72,72C248,195.7,215.7,228,176,228z
		 M243.3,212.6c27.6-32.7,27.7-80.5,0-113.2c30.3,14,57.9,33.1,81.6,56.6C301.2,179.5,273.6,198.6,243.3,212.6L243.3,212.6z"/>
	<circle class="st1" cx="176" cy="156" r="8"/>
	<circle class="st1" cx="144" cy="156" r="8"/>
	<circle class="st1" cx="208" cy="156" r="8"/>
	<path class="st1" d="M16,84c4.4,0,8-3.6,8-8V36h40c4.4,0,8-3.6,8-8s-3.6-8-8-8H16c-4.4,0-8,3.6-8,8v48C8,80.4,11.6,84,16,84z"/>
	<path class="st1" d="M64,276H24v-40c0-4.4-3.6-8-8-8s-8,3.6-8,8v48c0,4.4,3.6,8,8,8h48c4.4,0,8-3.6,8-8S68.4,276,64,276z"/>
	<path class="st1" d="M344,20h-48c-4.4,0-8,3.6-8,8s3.6,8,8,8h40v40c0,4.4,3.6,8,8,8s8-3.6,8-8V28C352,23.6,348.4,20,344,20z"/>
	<path class="st1" d="M344,228c-4.4,0-8,3.6-8,8v40h-40c-4.4,0-8,3.6-8,8s3.6,8,8,8h48c4.4,0,8-3.6,8-8v-48
		C352,231.6,348.4,228,344,228z"/>
</g>
</svg>
