<?xml version="1.0" encoding="utf-8"?>
<!-- Generator: Adobe Illustrator 26.0.1, SVG Export Plug-In . SVG Version: 6.00 Build 0)  -->
<svg version="1.1" id="Calque_1" xmlns="http://www.w3.org/2000/svg" xmlns:xlink="http://www.w3.org/1999/xlink" x="0px" y="0px"
	 viewBox="0 0 512 512" style="enable-background:new 0 0 512 512;" xml:space="preserve">
<style type="text/css">
	.st0{fill:#E55934;}
	.st1{fill:#222629;}
</style>
<path class="st0" d="M256,416v64c0,13.3-10.7,24-24,24h-56c-13.3,0-24-10.7-24-24v-64c0-13.3,10.7-24,24-24h56
	C245.3,392,256,402.7,256,416z M356,392h-56c-13.3,0-24,10.7-24,24v64c0,13.3,10.7,24,24,24h56c13.3,0,24-10.7,24-24v-64
	C380,402.7,369.3,392,356,392z M480,392h-56c-13.3,0-24,10.7-24,24v64c0,13.3,10.7,24,24,24h56c13.3,0,24-10.7,24-24v-64
	C504,402.7,493.3,392,480,392z M504,176v160c0,13.3-10.7,24-24,24h-36.7L321,237.7c-9.4-9.4-24.5-9.4-33.9,0l-120.4,120
	c-8.7-3.7-14.5-12.2-14.6-21.7V176c0-13.3,10.7-24,24-24h304C493.3,152,504,162.7,504,176z M456,232c0-17.7-14.3-32-32-32
	s-32,14.3-32,32s14.3,32,32,32S456,249.7,456,232z M424,216c-8.8,0-16,7.2-16,16s7.2,16,16,16s16-7.2,16-16S432.8,216,424,216z
	 M298.3,249l-111,111h233.4l-111-111C306.6,245.8,301.5,245.8,298.3,249C298.4,248.9,298.3,248.9,298.3,249z"/>
<g>
	<path class="st1" d="M384,8H128c-13.3,0-24,10.7-24,24v280H32c-13.3,0-24,10.7-24,24v16c0,30.9,25.1,56,56,56h288
		c30.9,0,56-25.1,56-56V32C408,18.7,397.3,8,384,8z M64,392c-22.1,0-40-17.9-40-40v-16c0-4.4,3.6-8,8-8h256c4.4,0,8,3.6,8,8v16
		c0,15.1,6.1,29.5,16.9,40H64z M392,352c0,22.1-17.9,40-40,40s-40-17.9-40-40v-16c0-13.3-10.7-24-24-24H120V32c0-4.4,3.6-8,8-8h256
		c4.4,0,8,3.6,8,8V352z M368,288c0,4.4-3.6,8-8,8H152c-4.4,0-8-3.6-8-8s3.6-8,8-8h208C364.4,280,368,283.6,368,288z M360,56H152
		c-4.4,0-8,3.6-8,8c0,5.4,0,97.1,0,96c0,4.4,3.6,8,8,8h208c4.4,0,8-3.6,8-8c0-5.4,0-97.1,0-96C368,59.6,364.4,56,360,56z M160,76.5
		l76.9,35.5L160,147.5V76.5z M188.4,72h135.2L256,103.2L188.4,72z M256,120.8l67.6,31.2H188.4L256,120.8z M275.1,112L352,76.5v71
		L275.1,112z M152,264h48c4.4,0,8-3.6,8-8v-64c-1.4-6.2-5-8-8-8h-48c-4.4,0-8,3.6-8,8v64C144.2,260.3,147.7,263.8,152,264z M168,248
		l24-32v32H168z M184,200l-24,32v-32H184z"/>
	<path class="st1" d="M280,184h-48c-4.4,0-8,3.6-8,8v64c0.2,4.3,3.7,7.8,8,8h48c4.4,0,8-3.6,8-8v-64C286.6,185.8,283,184,280,184z
		 M240,200h24l-24,32V200z M272,248h-24l24-32V248z"/>
	<path class="st1" d="M360,184h-48c-4.4,0-8,3.6-8,8v64c0.2,4.3,3.7,7.8,8,8h48c4.4,0,8-3.6,8-8v-64C366.6,185.8,363,184,360,184z
		 M320,200h24l-24,32V200z M352,248h-24l24-32V248z"/>
</g>
</svg>
