<?xml version="1.0" encoding="utf-8"?>
<!-- Generator: Adobe Illustrator 26.0.1, SVG Export Plug-In . SVG Version: 6.00 Build 0)  -->
<svg version="1.1" id="Calque_1" xmlns="http://www.w3.org/2000/svg" xmlns:xlink="http://www.w3.org/1999/xlink" x="0px" y="0px"
	 viewBox="0 0 62 62" style="enable-background:new 0 0 62 62;" xml:space="preserve">
<style type="text/css">
	.st0{fill:#2960E3;}
	.st1{fill:#222629;}
</style>
<g id="Line" transform="translate(-1 -1)">
	<path id="Tracé_7201" class="st0" d="M63,41V22c0-1.7-1.3-3-3-3H22c-1.7,0-3,1.3-3,3v19H63z M41,38h-2c-0.6,0-1-0.4-1-1s0.4-1,1-1
		h2c0.6,0,1,0.4,1,1S41.6,38,41,38z M33,32c-0.6,0-1-0.4-1-1s0.4-1,1-1h11c0.6,0,1,0.4,1,1s-0.4,1-1,1H33z M50,38h-5
		c-0.6,0-1-0.4-1-1s0.4-1,1-1h5c0.6,0,1,0.4,1,1S50.6,38,50,38z M56,38h-2c-0.6,0-1-0.4-1-1s0.4-1,1-1h2c0.6,0,1,0.4,1,1
		S56.6,38,56,38z M56,32h-2c-0.6,0-1-0.4-1-1s0.4-1,1-1h2c0.6,0,1,0.4,1,1S56.6,32,56,32z M51,24h5c0.6,0,1,0.4,1,1s-0.4,1-1,1h-5
		c-0.6,0-1-0.4-1-1S50.4,24,51,24z M51,31c0,0.6-0.4,1-1,1h-2c-0.6,0-1-0.4-1-1s0.4-1,1-1h2C50.6,30,51,30.4,51,31z M42,24h5
		c0.6,0,1,0.4,1,1s-0.4,1-1,1h-5c-0.6,0-1-0.4-1-1S41.4,24,42,24z M36,24h2c0.6,0,1,0.4,1,1s-0.4,1-1,1h-2c-0.6,0-1-0.4-1-1
		S35.4,24,36,24z M27,24h5c0.6,0,1,0.4,1,1s-0.4,1-1,1h-5c-0.6,0-1-0.4-1-1S26.4,24,27,24z M26,30h3c0.6,0,1,0.4,1,1s-0.4,1-1,1h-3
		c-0.6,0-1-0.4-1-1S25.4,30,26,30z M26,36h9c0.6,0,1,0.4,1,1s-0.4,1-1,1h-9c-0.6,0-1-0.4-1-1S25.4,36,26,36z M50,62c0,0.6-0.4,1-1,1
		H33c-0.6,0-1-0.4-1-1s0.4-1,1-1h1.2l2-8h9.6l2,8H49C49.6,61,50,61.4,50,62z M63,43v5c0,1.7-1.3,3-3,3H22c-1.7,0-3-1.3-3-3v-5H63z"
		/>
	<path id="Tracé_7202" class="st1" d="M48,1H4C2.3,1,1,2.3,1,4v38c0,1.7,1.3,3,3,3h44c1.7,0,3-1.3,3-3V4C51,2.3,49.7,1,48,1z M4,3
		h44c0.6,0,1,0.4,1,1v3H3V4C3,3.4,3.4,3,4,3z M48,43H4c-0.6,0-1-0.4-1-1V9h46v33C49,42.6,48.6,43,48,43z M17.8,17.6L11.3,26l6.5,8.4
		c0.3,0.5,0.2,1.1-0.3,1.4c-0.4,0.3-1,0.2-1.3-0.2l-7-9c-0.3-0.4-0.3-0.9,0-1.2l7-9c0.3-0.5,0.9-0.6,1.4-0.3
		C18.1,16.4,18.2,17.1,17.8,17.6C17.8,17.5,17.8,17.6,17.8,17.6z M42.8,25.4c0.3,0.4,0.3,0.9,0,1.2C35.5,35.7,35.9,36,35,36
		c-0.6,0-1-0.5-1-1c0-0.2,0.1-0.4,0.2-0.6l6.5-8.4l-6.5-8.4c-0.3-0.5-0.2-1.1,0.3-1.4c0.4-0.3,1-0.2,1.3,0.2L42.8,25.4z M30,17.3
		l-6,18c-0.2,0.5-0.7,0.8-1.3,0.6c-0.5-0.2-0.8-0.7-0.6-1.3l6-18c0.2-0.5,0.7-0.8,1.3-0.6C29.9,16.2,30.2,16.8,30,17.3z"/>
</g>
</svg>
