<?xml version="1.0" encoding="utf-8"?>
<!-- Generator: Adobe Illustrator 26.0.1, SVG Export Plug-In . SVG Version: 6.00 Build 0)  -->
<svg version="1.1" id="Calque_1" xmlns="http://www.w3.org/2000/svg" xmlns:xlink="http://www.w3.org/1999/xlink" x="0px" y="0px"
	 viewBox="0 0 750 500" style="enable-background:new 0 0 750 500;" xml:space="preserve">
<style type="text/css">
	.st0{fill:#F8F8FA;}
	.st1{fill:#EBEBEB;}
	.st2{fill:#FFFFFF;}
	.st3{fill:#DBDBDB;}
	.st4{fill:#C7C7C7;}
	.st5{fill:#2960E3;}
	.st6{fill:#263238;}
	.st7{fill:#455A64;}
	.st8{fill:#A6A6A6;}
	.st9{fill:#37474F;}
	.st10{fill-rule:evenodd;clip-rule:evenodd;fill:#FFFFFF;}
	.st11{fill:#FF0066;}
	.st12{fill:none;}
</style>
<g>
	<g id="Groupe_de_masques_60">
		<path id="Tracé_5621" class="st0" d="M584.6,0.2L294.3,0c-16.5,0-29.8,13.4-29.8,29.8l0,0l0.1,80.3c0,16.5-13.4,29.8-29.8,29.8
			l-80.3-0.1c-16.5,0-29.8,13.4-29.8,29.8l0.1,290.4c0,22.2,18,40.1,40.1,40.1l280,0.1c22.1,0,40.1-17.9,40.1-40.1l0,0l0-70
			c0-16.5,13.4-29.8,29.8-29.8l70.1,0c22.1,0,40.1-17.9,40.1-40.1l0,0l-0.1-280C624.7,18.3,606.8,0.3,584.6,0.2
			C584.6,0.3,584.6,0.3,584.6,0.2L584.6,0.2L584.6,0.2z M374.8,420.2l-140-0.1c-16.5,0-29.8-13.4-29.9-29.9l-0.1-140
			c0-16.5,13.4-29.8,29.8-29.8l0,0c16.5,0,29.9,13.4,29.9,29.9l0.1,70c0,22.1,18,40.1,40.1,40.1l0,0l70,0
			c16.5,0,29.9,13.4,29.9,29.9l0,0C404.7,406.7,391.3,420.1,374.8,420.2z M374.7,220.4L374.7,220.4c16.5,0,29.9,13.4,29.9,29.9l0,0
			c0,16.5-13.4,29.8-29.8,29.8l0,0c-16.5,0-29.9-13.4-29.9-29.9l0,0C344.9,233.7,358.2,220.4,374.7,220.4z M484.8,180.3
			c0-22.2-18-40.1-40.2-40.2l-70-0.1c-16.5,0-29.9-13.4-29.9-29.9l0,0l0,0c0-16.5,13.4-29.8,29.8-29.8l140,0.1
			c16.5,0,29.9,13.4,29.9,29.9l0.1,140c0,16.5-13.4,29.8-29.8,29.8l0,0c-16.5,0-29.8-13.4-29.9-29.9L484.8,180.3z"/>
	</g>
</g>
<g id="freepik--background-complete--inject-96">
	<path class="st1" d="M122.9,261.9c0.5-12.8,0.3-25.6-0.5-38.3c-1.9-26.3-5.9-52.4-12-78.1c-3.3-14.4-7.5-28.7-11.8-42.8
		c-0.1-0.4-0.8-0.3-0.7,0.1c13.3,50,24.2,101.6,23.4,153.6c-0.2,14.5-1.9,28.8-3.3,43.3c0,0.4,0.6,0.5,0.7,0.1
		C121.5,287.5,122.4,274.5,122.9,261.9z"/>
	<path class="st1" d="M97.9,102.8c0,0-20.1,51.1-15.6,63.1s13.8,14.6,13.8,14.6s-12.3,17.5-3.7,34.1s27.7,15.7,29,34.4
		C121.3,248.9,122.4,170.8,97.9,102.8z"/>
	<path class="st2" d="M119.2,216.6c0-0.1,0-0.2,0-0.3c-2.8-34.7-9-69.3-19.5-102.7c0-0.1-0.2-0.1-0.2,0c4,14.9,7.5,30,10.6,45
		c-2.7-2.6-6-4.4-9.6-5.4c0,0-0.1,0-0.1,0.1s0,0.1,0.1,0.1c3.7,1.6,7.3,3.5,9.9,6.6c0.6,3,1.2,5.9,1.7,8.9c-4.5-5-10.7-7.5-17-9.9
		c-0.1,0-0.1,0.1,0,0.1c6.5,2.6,13,6.1,17.4,11.6c1.5,8.5,2.9,17,4,25.5c-3.3-3.4-7.4-5.8-12-6.9c-0.1,0-0.2,0.2-0.1,0.2
		c4.7,1.4,8.9,4.1,12.2,7.8c0,0,0,0,0.1,0.1c0.4,3,0.8,6,1.1,9c-2.5-2.1-5.3-3.8-8.4-5.1c0,0-0.1,0.1,0,0.1c0,0,0,0,0,0
		c3.1,1.3,6,3.2,8.4,5.6c0,0,0.1,0,0.1,0.1c0.3,2.9,0.7,5.7,1,8.6c-4.5-5.5-10.4-9.7-17.1-12.2c-0.1,0-0.1,0-0.1,0.1
		c0,0,0,0.1,0,0.1c6.6,2.9,12.3,7.3,16.8,12.9c0.1,0.1,0.3,0.2,0.4,0.1c0.4,4.4,0.8,8.8,1.2,13.2c0,0.1,0.1,0.1,0.1,0
		C119.9,225.7,119.5,221.2,119.2,216.6z"/>
	<path class="st2" d="M103,148.3c-3.5-2.4-7.9-3.4-12.1-3.8c-0.1,0-0.1,0.1,0,0.1c4.3,0.6,8,2.2,11.9,3.9
		C103,148.7,103.2,148.4,103,148.3z"/>
	<path class="st2" d="M105.4,202.4c-2.8-1.6-5.9-2.7-9.1-3.1c-0.1,0-0.1,0.2,0,0.2c3.1,0.6,6.2,1.7,9,3.1
		C105.4,202.6,105.5,202.5,105.4,202.4C105.5,202.4,105.5,202.4,105.4,202.4z"/>
	<path class="st1" d="M175.8,166.7c-8.5,5.9-16.3,12.7-23.3,20.4c-7.2,8.1-12.7,17.5-16.3,27.7c-7.6,21.3-11.7,43.6-12.2,66.2
		c-0.3,12.5,0.9,25,3.6,37.2c0,0.2,0.2,0.3,0.4,0.3s0.3-0.2,0.3-0.4l0,0c-3.3-21.6-3.2-43.6,0.4-65.1c3.5-21.1,8.9-44.1,22.3-61.3
		c7.3-9.4,16.4-16.7,25.4-24.3C176.9,167.1,176.3,166.4,175.8,166.7z"/>
	<path class="st1" d="M127,265.8c4.9-7.8,10.6-15.1,17-21.7c10.1-10.1,18.5-17.2,19.9-23.9s-10.1-11.6-10.1-11.6s13.9,2.5,17.7-3.4
		s5.6-39.7,5.6-39.7s-25.3,18.1-37.1,43.4S127,265.8,127,265.8z"/>
	<path class="st2" d="M168.3,174.3c-10.7,10.5-21.4,21.6-27.7,35.4c-2.1,4.8-4,9.6-5.6,14.6l0,0c-0.3,1-0.6,2-1,3c0,0,0,0.1-0.1,0.2
		c-3,10.3-5.4,20.7-7.2,31.3c0,0.1,0.1,0.1,0.1,0c1.1-5.3,2.3-10.6,3.6-15.9c0,0,0.1,0,0.1,0c2.1-0.9,4.4-1.5,6.6-1.7
		c0.1,0,0.1-0.3,0-0.3c-2.2,0.1-4.5,0.5-6.6,1.2c1.2-4.8,2.6-9.6,4.1-14.3c4.9-1.2,9.9-1.9,15-2 M149.8,225.7
		c-4.9-0.2-9.9,0.2-14.7,1.3c0.3-0.8,0.5-1.6,0.8-2.4c3.3-0.8,6.6-1.3,10-1.7c0.1,0,0.1-0.1,0-0.1c-3.3,0.1-6.6,0.5-9.8,1.2
		c1.4-4.1,2.9-8.1,4.5-12c1.4-3.2,3-6.3,4.8-9.3c2.7-0.7,5.4-1.1,8.1-1.4c0.1,0,0.1-0.1,0-0.1c-2.6-0.2-5.1,0.1-7.6,0.8
		c1.3-2.1,2.7-4.3,4.2-6.3l0,0c5.7-1.3,11.4-2.4,17.3-1.3c0.1,0,0.1-0.1,0-0.2c-5.5-1.5-11-0.6-16.5,0.5c0.6-0.8,1.2-1.6,1.8-2.4
		c3.4-1.1,7-1.6,10.6-1.7c0,0,0.1,0,0.1-0.1c0,0,0-0.1-0.1-0.1c-3.3-0.3-6.7,0-9.9,0.9c4.7-5.8,9.9-11.3,15-16.7
		c0.3-0.3,0.1-0.4-0.2-0.2L149.8,225.7z"/>
	<path class="st2" d="M168,197.4c-1.7-0.2-3.3-0.3-5-0.2c-0.2,0-0.2,0.4,0,0.4c1.7,0,3.3-0.1,5,0C168,197.6,168.1,197.5,168,197.4
		C168,197.4,168,197.4,168,197.4z"/>
	<path class="st2" d="M149.8,230.2c-2.7,0.1-5.3,0.6-7.8,1.6c-0.1,0,0,0.1,0,0.1c2.6-0.6,5.2-0.9,7.8-1.3c0.1,0,0.2-0.1,0.2-0.2
		C150,230.3,149.9,230.3,149.8,230.2z"/>
	<path class="st2" d="M144.3,218.9c-1.1,0-2.2,0.1-3.3,0.3c-0.1,0-0.1,0.2,0,0.2c1.1,0.1,2.2,0,3.3-0.1
		C144.5,219.2,144.5,218.9,144.3,218.9z"/>
	<path class="st1" d="M52.7,202.7c8.2,2.8,16.1,6.5,23.5,11.1c7.7,4.9,14.3,11.2,19.6,18.6c11.1,15.4,19.6,32.6,25.2,50.8
		c3.1,10.1,5,20.5,5.7,31c0,0.2-0.2,0.3-0.3,0.2c-0.1,0-0.2-0.1-0.2-0.2c-2.3-18.2-7.5-36-15.3-52.6c-7.7-16.3-17.4-33.6-32.2-44.4
		c-8.1-5.9-17.2-9.7-26.2-13.8C51.9,203.2,52.2,202.5,52.7,202.7z"/>
	<path class="st1" d="M115.1,271.6c-5.7-5.2-12-9.8-18.8-13.6c-10.5-5.8-19-9.6-21.6-14.7s5.5-11.7,5.5-11.7s-10.7,5.2-15.1,1.4
		s-13.8-30.8-13.8-30.8s24.7,8.8,40.1,26.6S115.1,271.6,115.1,271.6z"/>
	<path class="st2" d="M113.8,266c-12.4-23.2-28.8-44.1-51.4-58l0,0c5.9,3.8,11.4,8.2,16.5,13c-4.6-0.3-9.2,0.7-13.3,2.8
		c0,0,0,0.1,0,0.1c0,0,0,0,0.1,0c4.4-1.6,9-2.4,13.7-2.3c0.1,0,0.1,0,0.2-0.1c0.8,0.8,1.6,1.5,2.4,2.3c-2.4,0.1-4.8,0.4-7.1,0.9
		c0,0-0.1,0-0.1,0.1s0,0.1,0.1,0.1c2.5-0.5,5-0.7,7.5-0.6c4.1,4.2,8,8.6,11.7,13.2c-1.7-0.2-3.4-0.1-5,0.4c-0.1,0-0.1,0.1-0.1,0.1
		c0,0,0,0.1,0.1,0.1c1.8-0.2,3.5-0.2,5.3-0.1c0.7,0.9,1.4,1.7,2,2.6c-5-0.3-10.1,0.2-15,1.5c-0.1,0-0.1,0.1,0,0.1
		c5.1-1,10.2-1.3,15.4-1c0.6,0.8,1.2,1.7,1.8,2.5c-3-0.1-6,0.2-8.9,1c0,0-0.1,0-0.1,0.1c0,0,0,0.1,0.1,0.1c0,0,0,0,0.1,0
		c3-0.7,6.1-0.9,9.2-0.7c2.7,3.6,5.2,7.4,7.7,11.2c-1.3-0.2-2.7-0.2-3.9,0.2c0,0-0.1,0-0.1,0.1s0,0.1,0.1,0.1l0,0
		c1.4-0.1,2.8,0,4.2,0.2c2.2,3.4,4.3,6.9,6.4,10.4C113.5,266.5,114,266.3,113.8,266z"/>
	<path class="st2" d="M94.6,246.8c-2.4-0.2-4.9,0.1-7.2,0.9c-0.1,0,0,0.1,0,0.1c2.4-0.4,4.7-0.6,7.1-0.7
		C94.7,247,94.8,246.8,94.6,246.8z"/>
	<path class="st2" d="M73.1,218.5c-1.1-0.1-2.2,0-3.3,0.2c-0.1,0-0.1,0.1-0.1,0.1c0,0,0,0.1,0.1,0.1c1.1-0.1,2.2-0.1,3.2-0.1
		c0.1,0,0.2,0,0.2-0.1C73.2,218.6,73.1,218.5,73.1,218.5z"/>
	<polygon class="st3" points="146.9,348.2 91.2,348.2 99.2,290 101.2,275.1 136.9,275.1 139,290 	"/>
	<polygon class="st4" points="139,290 99.2,290 101.2,275.1 136.9,275.1 	"/>
	<rect x="96.1" y="269.9" class="st3" width="46" height="12.6"/>
	<g id="freepik--aiZGp2--inject-96">
		<path class="st1" d="M570.9,82.7c-2.6,6.7-4.2,13.8-4.6,21.1h-18.4h-0.2v-0.5l0.2-1.4c0.2-2.5,0.6-4.9,1.2-7.4
			c1-4,2.4-7.8,4.2-11.5c0.1-0.2,0.3-0.3,0.5-0.3L570.9,82.7L570.9,82.7z"/>
		<path class="st1" d="M570.3,129.7h-17.1c-0.2,0-0.4-0.1-0.4-0.3c-2-4.1-3.4-8.5-4.2-13c-0.4-2.2-0.7-4.4-0.8-6.6
			c0-0.1,0-0.2,0-0.2v-0.5h0.3H566c0.3,0,0.3,0,0.3,0.3c0.1,1.5,0.2,3,0.4,4.5c0.2,2.4,0.6,4.7,1.2,7.1c0.6,2.8,1.4,5.7,2.4,8.4
			C570.3,129.5,570.3,129.6,570.3,129.7z"/>
		<path class="st1" d="M642.4,135.1c0,0.1-0.1,0.2-0.1,0.2c-1.5,2.2-3.1,4.3-4.9,6.3c-2.1,2.4-4.5,4.6-7.1,6.6
			c-2.5,1.9-5.3,3.6-8.1,5c-2.7,1.4-5.6,2.5-8.6,3.3c-2.3,0.7-4.7,1.2-7.1,1.5l-0.7,0.1h-0.4L605,158l0.5-0.3
			c5.2-3.6,9.8-8,13.5-13.1c2.1-2.9,4-6,5.5-9.2c0.1-0.2,0.2-0.3,0.4-0.3L642.4,135.1L642.4,135.1z"/>
		<path class="st1" d="M625.3,103.7h-24.1v-21h0.3H620c0.2,0,0.3,0.1,0.4,0.2c1.7,4,3,8.1,3.8,12.3c0.4,2.2,0.7,4.4,0.9,6.7
			C625.2,102.5,625.2,103.1,625.3,103.7z"/>
		<path class="st1" d="M625.1,109.3c0,0.5,0,1-0.1,1.5c-0.1,1.2-0.2,2.3-0.3,3.5c-0.2,1.6-0.5,3.2-0.8,4.8
			c-0.7,3.5-1.8,6.9-3.1,10.3c0,0.2-0.2,0.3-0.4,0.3h-19.3v-20.4H625.1z"/>
		<path class="st1" d="M595.8,82.8v21.1h-23.5c0-0.5,0-1.1,0.1-1.6c0.1-1.2,0.2-2.4,0.4-3.5c0.3-1.8,0.6-3.6,1-5.3
			c0.8-3.6,1.9-7.1,3.4-10.4c0.1-0.2,0.2-0.3,0.4-0.3L595.8,82.8L595.8,82.8z"/>
		<path class="st1" d="M595.8,109.6c0,6.6,0,13.2,0,19.8v0.3H577c-0.2,0-0.4-0.1-0.4-0.3c-1.4-3.4-2.5-7-3.2-10.6
			c-0.3-1.9-0.6-3.8-0.8-5.7c-0.2-1.2-0.2-2.5-0.3-3.7c0,0,0-0.1,0-0.1h23.2C595.8,109.3,595.8,109.4,595.8,109.6z"/>
		<path class="st1" d="M650.8,103.8h-19.7c-0.4-7.3-2-14.4-4.6-21.2h18.4c0.2,0,0.4,0.1,0.4,0.3c2.1,4.2,3.6,8.6,4.5,13.2
			c0.5,2.4,0.8,4.9,1,7.4L650.8,103.8z"/>
		<path class="st1" d="M650.8,109.2c0,0.5,0,0.9-0.1,1.4c-0.1,1.8-0.3,3.6-0.7,5.3c-0.7,4.1-1.9,8.1-3.6,11.8
			c-0.3,0.6-0.6,1.2-0.8,1.8c0,0.1-0.2,0.2-0.3,0.2H627c0.2-0.6,0.4-1.2,0.7-1.9c1.1-3.1,1.9-6.3,2.4-9.6c0.4-2.4,0.7-4.8,0.8-7.2
			c0-0.6,0.1-1.1,0.1-1.7c0-0.2,0-0.2,0.2-0.2c0.1,0,0.1,0,0.2,0L650.8,109.2z"/>
		<path class="st1" d="M641.9,77.3L641.9,77.3l-0.3,0.1c-5.8,0-11.5,0-17.2,0c-0.2,0-0.4-0.1-0.4-0.2c-2.3-4.6-5.2-8.8-8.6-12.7
			c-2-2.2-4.2-4.2-6.6-6.1c-1.2-0.9-2.4-1.8-3.6-2.6l-0.2-0.2l0.2-0.2c0-0.1-0.1-0.2-0.1-0.4c6.1,0.7,12,2.5,17.5,5.2
			C630.4,64.2,637,70,641.9,77.3z"/>
		<path class="st1" d="M592.4,158c-0.2,0.1-0.3,0.1-0.5,0.1c-1.9-0.2-3.8-0.6-5.6-1.1c-3.5-0.9-6.8-2.1-10-3.7
			c-3.7-1.8-7.1-4.1-10.2-6.7c-2.2-1.9-4.3-3.9-6.1-6.1c-1.4-1.7-2.7-3.5-3.8-5.3c0-0.1-0.1-0.1-0.1-0.2h0.3c5.4,0,10.7,0,16.1,0
			c0.2,0,0.3,0.1,0.4,0.3c1.7,3.4,3.7,6.6,5.9,9.6c2.1,2.7,4.4,5.3,6.9,7.7c2.1,2,4.3,3.7,6.7,5.4L592.4,158z"/>
		<path class="st1" d="M592.2,55.6c-0.7,0.5-1.6,1.2-2.4,1.8c-2.8,2.2-5.4,4.6-7.8,7.2c-3.2,3.5-6,7.4-8.2,11.7
			c-0.1,0.3-0.3,0.6-0.4,0.8c-0.1,0.1-0.1,0.1-0.2,0.2c-0.3,0-0.6,0-0.9,0h-15.7c8.8-12.3,20.5-19.8,35.5-22c0,0.1-0.1,0.1-0.1,0.2
			L592.2,55.6z"/>
		<path class="st1" d="M618.1,135.1c-2.2,3.9-4.9,7.5-8,10.8c-2.7,2.9-5.8,5.5-9.1,7.7v-18.5H618.1z"/>
		<path class="st1" d="M595.8,135.2v18.1c-6.8-4.7-12.4-10.9-16.3-18.1H595.8z"/>
		<path class="st1" d="M617.6,77.2h-16.4V60c3.4,2.2,6.4,4.8,9.2,7.7C613.1,70.6,615.5,73.8,617.6,77.2z"/>
		<path class="st1" d="M595.8,60.5v16.9h-15.7C583.9,70.6,589.3,64.8,595.8,60.5z"/>
	</g>
	<path class="st1" d="M284.2,147H146.8V57.5h137.4V147z M147.8,146h135.4V58.5H147.8V146z"/>
	<path class="st1" d="M284.2,70.3H146.8V57.5h137.4V70.3z M147.8,69.3h135.4V58.5H147.8V69.3z"/>
	<path class="st4" d="M158.4,64c0,1.7-1.3,3-3,3s-3-1.3-3-3s1.3-3,3-3S158.4,62.3,158.4,64z"/>
	<path class="st1" d="M170.4,64c0,1.7-1.3,3-3,3c-1.7,0-3-1.3-3-3c0-1.7,1.3-3,3-3c0,0,0,0,0,0C169.1,61,170.4,62.3,170.4,64
		C170.4,64,170.4,64,170.4,64z"/>
	<path class="st5" d="M182.5,64c0,1.7-1.3,3-3,3s-3-1.3-3-3s1.3-3,3-3S182.5,62.3,182.5,64z"/>
</g>
<g id="freepik--Shadow--inject-96">
	<ellipse class="st1" cx="375" cy="402.5" rx="328.8" ry="41.3"/>
</g>
<g id="freepik--Floor--inject-96">
	<polygon class="st6" points="50.7,348.2 131.8,348 212.9,347.9 375,347.7 537.1,347.9 618.2,348 699.3,348.2 618.2,348.4 
		537.1,348.5 375,348.7 212.9,348.5 131.8,348.4 	"/>
</g>
<g id="freepik--Computer--inject-96">
	<rect x="180.5" y="102.4" class="st3" width="388.2" height="259.7"/>
	<rect x="183.4" y="105.6" class="st6" width="382.6" height="253.3"/>
	<rect x="130" y="381.6" class="st4" width="489.3" height="17.8"/>
	<polygon class="st3" points="130,381.6 180.5,362.1 568.7,362.1 619.3,381.6 	"/>
	<polygon class="st6" points="185.1,374.7 217.7,362.1 531.6,362.1 564.2,374.7 	"/>
	<rect x="205" y="124.9" class="st2" width="339.3" height="214.8"/>
	<rect x="204.7" y="124.9" class="st7" width="339.6" height="8.3"/>
	<path class="st4" d="M211.3,129c0,1.1-0.9,2-2.1,2c-1.1,0-2-0.9-2-2.1c0-1.1,0.9-2,2.1-2c0,0,0,0,0,0
		C210.4,127,211.3,127.9,211.3,129z"/>
	<path class="st2" d="M219.6,129c0,1.1-0.9,2-2.1,2c-1.1,0-2-0.9-2-2.1c0-1.1,0.9-2,2.1-2c0,0,0,0,0,0
		C218.7,127,219.6,127.9,219.6,129z"/>
	<path class="st5" d="M228,129c0,1.1-0.9,2.1-2.1,2.1c-1.1,0-2.1-0.9-2.1-2.1c0-1.1,0.9-2.1,2.1-2.1S228,127.9,228,129L228,129z"/>
	<rect x="221.3" y="150.5" class="st1" width="131.9" height="92.4"/>
	<path class="st3" d="M236.7,176.8c0,6,4.9,10.9,10.9,10.9s10.9-4.9,10.9-10.9c0-6-4.9-10.9-10.9-10.9S236.7,170.7,236.7,176.8
		L236.7,176.8z"/>
	<polygon class="st4" points="279.8,223 353.2,223 316.5,173.3 	"/>
	<polygon class="st3" points="251.1,223.1 311.7,223.1 281.4,190.7 	"/>
	<rect x="221.3" y="223" class="st3" width="131.9" height="19.9"/>
	<rect x="372" y="255.3" class="st1" width="73.7" height="66.7"/>
	<path class="st3" d="M381.5,269.9c-0.9,4.3,1.9,8.4,6.2,9.3s8.4-1.9,9.3-6.2c0.9-4.3-1.9-8.4-6.2-9.3c-1-0.2-2.1-0.2-3.1,0
		C384.6,264.3,382.1,266.7,381.5,269.9z"/>
	<polygon class="st4" points="392.8,307.6 445.7,307.6 419.2,271.7 	"/>
	<polygon class="st3" points="372,307.6 415.7,307.6 393.9,284.3 	"/>
	<rect x="372" y="307.6" class="st3" width="73.7" height="14.4"/>
	<rect x="372" y="150.5" class="st8" width="118.3" height="6"/>
	<rect x="372" y="162.9" class="st3" width="144" height="6"/>
	<rect x="372" y="175.2" class="st3" width="144" height="6"/>
	<rect x="372" y="187.6" class="st3" width="144" height="6"/>
	<rect x="372" y="199.9" class="st3" width="144" height="6"/>
	<rect x="372" y="212.3" class="st3" width="95.6" height="6"/>
	<rect x="452.3" y="255.3" class="st8" width="52.3" height="5.9"/>
	<rect x="452.3" y="267.5" class="st3" width="63.7" height="5.9"/>
	<rect x="452.3" y="279.6" class="st3" width="63.7" height="5.9"/>
	<rect x="452.3" y="291.8" class="st3" width="63.7" height="5.9"/>
	<rect x="452.3" y="304" class="st3" width="63.7" height="5.9"/>
	<rect x="452.3" y="316.1" class="st3" width="43.2" height="5.9"/>
	<rect x="372" y="225.4" class="st5" width="144" height="17.5"/>
	<rect x="221.3" y="255.3" class="st8" width="131.9" height="17.5"/>
	<rect x="221.3" y="279.2" class="st3" width="131.9" height="5.9"/>
	<rect x="221.3" y="291.5" class="st3" width="131.9" height="5.9"/>
	<rect x="221.3" y="303.8" class="st3" width="131.9" height="5.9"/>
	<rect x="221.3" y="316.1" class="st3" width="90.4" height="5.9"/>
	<rect x="535.2" y="133.1" class="st3" width="9.1" height="206.6"/>
	<path class="st8" d="M539.7,241.2L539.7,241.2c-1.3,0-2.3-1-2.3-2.3c0,0,0,0,0,0V137.5c0-1.3,1-2.3,2.3-2.3l0,0l0,0
		c1.3,0,2.3,1,2.3,2.3c0,0,0,0,0,0v101.4C542.1,240.2,541,241.2,539.7,241.2L539.7,241.2z"/>
</g>
<g id="freepik--Tablet--inject-96">
	<path class="st7" d="M335.1,241v146.6c-0.1,6.6-5.4,11.9-12,11.8H92.7c-6.6,0-11.9-5.2-12-11.8V241c0.1-6.6,5.4-11.9,12-11.8H323
		C329.6,229.1,335,234.4,335.1,241C335.1,241,335.1,241,335.1,241z"/>
	<rect x="98.6" y="236.3" class="st2" width="219" height="155.7"/>
	<rect x="111.6" y="247.2" class="st1" width="97.2" height="68"/>
	<path class="st3" d="M123,266.5c0,4.4,3.6,8,8,7.9c4.4,0,8-3.6,7.9-8c0-4.4-3.6-7.9-8-8C126.6,258.5,123,262.1,123,266.5
		C123,266.5,123,266.5,123,266.5z"/>
	<polygon class="st4" points="154.8,300.6 208.8,300.6 181.8,264 	"/>
	<polygon class="st3" points="133.6,300.6 178.2,300.6 155.9,276.8 	"/>
	<rect x="111.6" y="300.6" class="st3" width="97.2" height="14.7"/>
	<rect x="239.6" y="334.4" class="st1" width="65" height="45.5"/>
	<path class="st3" d="M247.2,347.3c0,3,2.4,5.4,5.4,5.4c3,0,5.4-2.4,5.4-5.4c0-3-2.4-5.4-5.4-5.4c0,0,0,0,0,0
		C249.6,341.9,247.2,344.3,247.2,347.3C247.2,347.3,247.2,347.3,247.2,347.3z"/>
	<polygon class="st4" points="268.4,370.1 304.6,370.1 286.5,345.6 	"/>
	<polygon class="st3" points="254.3,370.1 284.1,370.1 269.2,354.1 	"/>
	<rect x="239.6" y="370.1" class="st3" width="65" height="9.8"/>
	<rect x="217.2" y="247.2" class="st5" width="87.4" height="16.6"/>
	<rect x="217.2" y="270.1" class="st3" width="87.4" height="2.3"/>
	<rect x="217.2" y="275.6" class="st3" width="87.4" height="2.3"/>
	<rect x="217.2" y="281.1" class="st3" width="87.4" height="2.3"/>
	<rect x="217.2" y="286.5" class="st3" width="87.4" height="2.3"/>
	<rect x="217.2" y="292" class="st3" width="87.4" height="2.3"/>
	<rect x="217.2" y="297.5" class="st3" width="87.4" height="2.3"/>
	<rect x="217.2" y="303" class="st3" width="50.2" height="2.3"/>
	<rect x="142.9" y="367.2" class="st3" width="87.4" height="2.3"/>
	<rect x="142.9" y="334.4" class="st3" width="87.4" height="2.3"/>
	<rect x="142.9" y="339.9" class="st3" width="87.4" height="2.3"/>
	<rect x="142.9" y="345.3" class="st3" width="87.4" height="2.3"/>
	<rect x="142.9" y="350.8" class="st3" width="59.6" height="2.3"/>
	<rect x="142.9" y="361.7" class="st3" width="87.4" height="2.3"/>
	<rect x="142.9" y="372.7" class="st3" width="59.6" height="2.3"/>
	<rect x="111.6" y="322.8" class="st7" width="192.9" height="5.5"/>
	<rect x="111.6" y="334.4" class="st5" width="25" height="45.5"/>
	<path class="st9" d="M91.1,295.8h0.2c0.7,0,1.2,0.6,1.2,1.2v34.5c0,0.7-0.6,1.2-1.2,1.2h-0.2c-0.7,0-1.2-0.6-1.2-1.2V297
		C89.8,296.3,90.4,295.8,91.1,295.8z"/>
	<path class="st9" d="M332,314.3c0,2.7-2.1,4.8-4.8,4.8s-4.8-2.1-4.8-4.8s2.1-4.8,4.8-4.8c0,0,0,0,0,0
		C329.9,309.5,332,311.6,332,314.3z"/>
</g>
<g id="freepik--Mobile--inject-96">
	<path class="st7" d="M654.1,197.8H565c-5,0.1-9,4.2-9,9.2v183.4c0,5,4,9.1,9,9.2h89.1c5-0.1,9-4.2,9-9.2V207
		C663.1,202,659.1,197.9,654.1,197.8z M657.5,384.7c0,4.8-3.6,8.7-8.1,8.7h-79.7c-4.5,0-8.1-3.9-8.1-8.7V213.9
		c0-9.8,3.6-10.3,8.1-10.3h16c0.9,0,1.7,1,1.7,2.4v0.6c0,3.1,1.7,3.1,3.7,3.1H628c2.1,0,3.7,0,3.7-3.1V206c0-1.3,0.8-2.4,1.7-2.4h16
		c4.5,0,8.1,1.3,8.1,10.3L657.5,384.7z"/>
	<path class="st2" d="M614.6,205.8h-10.1c-0.3,0-0.6-0.3-0.6-0.6l0,0c0-0.3,0.3-0.6,0.6-0.6h10.1c0.3,0,0.6,0.3,0.6,0.6l0,0
		C615.2,205.5,614.9,205.8,614.6,205.8z"/>
	<path class="st2" d="M657.5,213.9v170.8c0,4.8-3.6,8.7-8.1,8.7h-79.7c-4.5,0-8.1-3.9-8.1-8.7V213.9c0-9.8,3.6-10.3,8.1-10.3h16
		c0.9,0,1.7,1,1.7,2.4v0.6c0,3.1,1.7,3.1,3.7,3.1H628c2.1,0,3.7,0,3.7-3.1V206c0-1.3,0.8-2.4,1.7-2.4h16
		C653.9,203.6,657.5,204.9,657.5,213.9z"/>
	<path class="st5" d="M657.5,213.9v12.7h-95.9v-12.7c0-9.8,3.6-10.3,8.1-10.3h16c0.9,0,1.7,1,1.7,2.4v0.6c0,3.1,1.7,3.1,3.7,3.1H628
		c2.1,0,3.7,0,3.7-3.1V206c0-1.3,0.8-2.4,1.7-2.4h16C653.9,203.6,657.5,204.9,657.5,213.9z"/>
	<polygon class="st2" points="570.7,220.4 567.9,217.8 570.7,215.1 571.2,215.6 568.8,217.8 571.2,220 	"/>
	<path class="st2" d="M648.8,220.7h-2V220c0,0,0-0.1-0.1-0.1l-0.2-0.1c0,0-0.1,0-0.1,0l-0.6,0.4l-1-1.7l0.6-0.4c0,0,0-0.1,0-0.1
		v-0.2c0,0,0-0.1,0-0.1l-0.6-0.4l1-1.7l0.6,0.4c0,0,0.1,0,0.1,0l0.2-0.1c0,0,0.1-0.1,0.1-0.1v-0.7h2v0.7c0,0,0,0.1,0.1,0.1l0.2,0.1
		c0,0,0.1,0,0.1,0l0.6-0.4l1,1.7l-0.6,0.4c0,0,0,0.1,0,0.1v0.2c0,0,0,0.1,0,0.1l0.6,0.4l-1,1.7l-0.6-0.4c0,0-0.1,0-0.1,0l-0.2,0.1
		c0,0-0.1,0.1-0.1,0.1V220.7z M647.3,220.2h1V220c0-0.2,0.1-0.4,0.3-0.5c0.1,0,0.1-0.1,0.2-0.1c0.2-0.1,0.4-0.1,0.6,0l0.2,0.1
		l0.5-0.9l-0.2-0.1c-0.2-0.1-0.3-0.3-0.3-0.6v-0.2c0-0.2,0.1-0.4,0.3-0.6l0.2-0.1l-0.5-0.9l-0.2,0.1c-0.2,0.1-0.4,0.1-0.6,0
		l-0.2-0.1c-0.2-0.1-0.3-0.3-0.3-0.5v-0.2h-1v0.2c0,0.2-0.1,0.4-0.3,0.5c-0.1,0-0.1,0.1-0.2,0.1c-0.2,0.1-0.4,0.1-0.6,0l-0.2-0.1
		l-0.5,0.9l0.2,0.1c0.2,0.1,0.3,0.3,0.3,0.6v0.2c0,0.2-0.1,0.4-0.3,0.6l-0.2,0.1l0.5,0.9l0.2-0.1c0.2-0.1,0.4-0.1,0.6,0
		c0.1,0,0.1,0.1,0.2,0.1c0.2,0.1,0.3,0.3,0.3,0.5V220.2z M647.8,219.3c-0.8,0-1.5-0.7-1.5-1.5c0-0.8,0.7-1.5,1.5-1.5
		c0.8,0,1.5,0.7,1.5,1.5c0,0,0,0,0,0C649.3,218.6,648.7,219.3,647.8,219.3z M647.8,216.8c-0.6,0-1,0.4-1,1s0.4,1,1,1s1-0.4,1-1
		C648.8,217.3,648.4,216.8,647.8,216.8L647.8,216.8z"/>
	<g id="freepik--u5Zjqx--inject-96">
		<path class="st2" d="M582.9,207.4l-0.2,0.2l-0.1,0.1c-0.8-0.8-2.1-0.8-3,0c0,0,0,0,0,0l-0.1-0.1l-0.2-0.1l0,0
			c0.1-0.1,0.1-0.1,0.2-0.2c0.1-0.1,0.3-0.2,0.5-0.3c0.2-0.1,0.4-0.2,0.6-0.2h0.3h0.5c0.2,0,0.4,0.1,0.5,0.1c0.1,0,0.3,0.1,0.4,0.2
			c0.1,0.1,0.2,0.1,0.4,0.2L582.9,207.4L582.9,207.4z"/>
		<path class="st2" d="M580.2,208.2l-0.2-0.2c0.7-0.7,1.8-0.7,2.5,0c0,0,0,0,0,0l-0.2,0.2C581.6,207.6,580.8,207.6,580.2,208.2
			L580.2,208.2z"/>
		<path class="st2" d="M582,208.4l-0.2,0.2c-0.3-0.3-0.7-0.3-1,0c0,0,0,0,0,0l-0.2-0.2C580.9,208,581.6,208,582,208.4z"/>
		<path class="st2" d="M581.4,208.9c0,0.1-0.1,0.2-0.2,0.2c-0.1,0-0.2-0.1-0.2-0.2s0.1-0.2,0.2-0.2l0,0
			C581.3,208.7,581.4,208.8,581.4,208.9C581.4,208.9,581.4,208.9,581.4,208.9z"/>
	</g>
	<path class="st2" d="M567.9,207.9c0-0.3,0.3-0.6,0.6-0.6l0,0c0.3,0,0.6,0.3,0.6,0.6c0,0.4-0.3,0.6-0.6,0.6l0,0
		C568.2,208.6,567.9,208.3,567.9,207.9z"/>
	<path class="st2" d="M569.9,207.9c0-0.3,0.3-0.6,0.6-0.6l0,0c0.3,0,0.6,0.3,0.6,0.6c0,0.4-0.3,0.6-0.6,0.6l0,0
		C570.2,208.6,569.9,208.3,569.9,207.9z"/>
	<path class="st2" d="M571.9,207.9c0-0.4,0.4-0.6,0.7-0.6c0.3,0,0.5,0.3,0.6,0.6c0,0.4-0.2,0.7-0.6,0.7c-0.4,0-0.7-0.2-0.7-0.6
		C571.9,208,571.9,208,571.9,207.9z"/>
	<path class="st2" d="M573.9,207.9c0-0.4,0.3-0.6,0.6-0.6s0.6,0.3,0.6,0.6c0,0.4-0.3,0.6-0.6,0.6S573.9,208.3,573.9,207.9
		L573.9,207.9z"/>
	<path class="st2" d="M575.9,207.9c0-0.3,0.3-0.6,0.6-0.6c0.3,0,0.6,0.3,0.6,0.6c0,0,0,0,0,0c0,0.3-0.3,0.6-0.6,0.6
		C576.2,208.6,575.9,208.3,575.9,207.9L575.9,207.9z"/>
	<path class="st2" d="M650.3,209.3h-5.2v-2.4h5.2V209.3z M645.4,209.1h4.7v-1.9h-4.7V209.1z"/>
	<rect x="645.6" y="207.3" class="st2" width="3.3" height="1.6"/>
	<rect x="650.3" y="207.5" class="st2" width="0.5" height="1.3"/>
	<polygon class="st1" points="576.2,383 575.5,383 575.5,386.4 574.1,386.4 574.1,384.6 571.7,384.6 571.7,386.4 570.3,386.4 
		570.3,383 569.6,383 572.9,379.6 	"/>
	<rect x="641.6" y="379.6" class="st1" width="8" height="1.1"/>
	<rect x="641.6" y="382.4" class="st1" width="8" height="1.1"/>
	<rect x="641.6" y="385.2" class="st1" width="8" height="1.1"/>
	<path class="st3" d="M576,243.4c-1.7,1.1-3.9,1.1-5.6,0c-2.5-1.6-3.3-4.9-1.7-7.4c1.6-2.5,4.9-3.3,7.4-1.7c2.5,1.6,3.3,4.9,1.7,7.4
		C577.3,242.4,576.8,243,576,243.4z"/>
	<path class="st2" d="M574.9,238.3c0,0.9-0.7,1.6-1.6,1.6c-0.9,0-1.6-0.7-1.6-1.6s0.7-1.6,1.6-1.6c0,0,0,0,0,0
		C574.1,236.7,574.9,237.4,574.9,238.3z"/>
	<path class="st2" d="M576,242.8v0.7c-1.7,1.1-3.9,1.1-5.6,0v-0.7c0.1-1.6,1.4-2.7,3-2.6C574.8,240.2,576,241.3,576,242.8z"/>
	<rect x="585.3" y="233.9" class="st1" width="34" height="2.8"/>
	<rect x="585.3" y="238.5" class="st1" width="29.7" height="1.9"/>
	<rect x="585.3" y="242.1" class="st1" width="49.1" height="1.9"/>
	<rect x="561.6" y="248.7" class="st1" width="95.9" height="67.1"/>
	<path class="st3" d="M572.8,267.8c0,4.4,3.6,7.9,7.9,7.9s7.9-3.6,7.9-7.9s-3.6-7.9-7.9-7.9S572.8,263.4,572.8,267.8L572.8,267.8z"
		/>
	<polygon class="st4" points="604.2,301.3 657.5,301.3 630.8,265.2 	"/>
	<polygon class="st3" points="583.3,301.4 627.3,301.4 605.3,277.8 	"/>
	<rect x="561.6" y="301.3" class="st3" width="95.9" height="14.5"/>
	<path class="st3" d="M576,351.2c-1.7,1.1-3.9,1.1-5.6,0c-2.5-1.6-3.3-4.9-1.7-7.4c1.6-2.5,4.9-3.3,7.4-1.7s3.3,4.9,1.7,7.4
		C577.3,350.2,576.8,350.7,576,351.2z"/>
	<circle class="st2" cx="573.2" cy="346" r="1.6"/>
	<path class="st2" d="M576,350.5v0.7c-1.7,1.1-3.9,1.1-5.6,0v-0.7c0.1-1.6,1.4-2.7,3-2.6C574.8,347.9,576,349.1,576,350.5z"/>
	<rect x="585.3" y="341.6" class="st1" width="43.7" height="2.8"/>
	<rect x="585.3" y="346.3" class="st1" width="55.8" height="1.9"/>
	<rect x="585.3" y="349.8" class="st1" width="19" height="1.9"/>
	<rect x="561.6" y="356.4" class="st1" width="95.8" height="16.4"/>
	<path class="st3" d="M588.2,372.8h-14.9c1.5-4.1,6-6.3,10.1-4.8C585.7,368.8,587.5,370.6,588.2,372.8z"/>
	<path class="st1" d="M568.1,323.6c-0.4-1.7,0.6-3.4,2.3-3.8c1.7-0.4,3.4,0.6,3.8,2.3c0.4,1.7-0.6,3.4-2.3,3.8
		C570.2,326.4,568.5,325.4,568.1,323.6C568.1,323.7,568.1,323.7,568.1,323.6z"/>
	<g id="freepik--xsrjP0--inject-96">
		<path class="st10" d="M570.7,324.2c-0.1,0-0.2-0.1-0.3-0.1s0,0,0,0v-1.3c0,0,0,0,0-0.1c0.3-0.2,0.5-0.5,0.7-0.8
			c0.2-0.3,0.3-0.6,0.2-1c0-0.1,0-0.1,0.1-0.1c0.1,0,0.2,0,0.2,0.1c0.1,0.2,0.2,0.4,0.2,0.6c0,0.2,0,0.3,0,0.5c0,0.1,0,0.2-0.1,0.4
			s0.1,0,0.1,0h1.1c0.2,0,0.2,0,0.2,0.1c0,0.1,0,0.3-0.2,0.3c0,0-0.1,0-0.1,0s0,0,0.1,0s0.1,0.3,0,0.4s-0.1,0-0.1,0.1s0.1,0,0.1,0.1
			c0.1,0.1,0.1,0.3,0,0.3c0,0,0,0-0.1,0h-0.1c0,0,0,0,0,0c0.1,0,0.1,0.2,0.1,0.3c0,0-0.1,0.1-0.1,0.1l0,0c-0.1,0-0.1,0-0.2,0H571
			C571,324.2,570.9,324.2,570.7,324.2C570.8,324.2,570.8,324.2,570.7,324.2z"/>
		<path class="st10" d="M569.1,323.4c0-0.3,0-0.5,0-0.8c0,0,0-0.1,0.1-0.1c0.3,0,0.7,0,1,0c0.1,0,0.1,0,0.1,0.1v1.6
			c0,0.1,0,0.1-0.1,0.1h-1c-0.1,0-0.1,0-0.1-0.1C569.1,324,569.1,323.7,569.1,323.4z"/>
	</g>
	<path class="st5" d="M574.7,323.6c-0.4-1.7,0.6-3.4,2.3-3.8s3.4,0.6,3.8,2.3c0.4,1.7-0.6,3.4-2.3,3.8
		C576.9,326.4,575.2,325.4,574.7,323.6C574.7,323.7,574.7,323.7,574.7,323.6z"/>
	<path class="st2" d="M579.4,323.3c0,0.9-0.7,1.6-1.6,1.6c-0.9,0-1.6-0.7-1.6-1.6c-0.4-0.6-0.2-1.4,0.3-1.8c0,0,0.1-0.1,0.2-0.1
		c0.9-0.3,1.1,1.3,1.1,1.3s0.2-1.6,1.1-1.3C579.6,321.6,579.8,322.5,579.4,323.3z"/>
	<rect x="585.8" y="322.5" class="st1" width="45" height="1.8"/>
	<polygon class="st1" points="561.6,333.4 573.6,333.2 585.6,333.1 609.6,333 633.5,333.1 645.5,333.2 657.5,333.4 645.5,333.6 
		633.5,333.7 609.6,333.8 585.6,333.7 573.6,333.6 	"/>
</g>
<path class="st11" d="M685.2,284.2c2.8,5.3,2.7,12-0.2,20.5s-8.6,18.8-18.1,20.9c-9.4,2.2-22.6-3.8-26.6-12.9
	c-4-9.1,1.2-21.3,7.7-28.8c6.6-7.5,14.6-10.2,21.5-9.6C676.5,274.9,682.4,278.9,685.2,284.2z"/>
<g>
	<g>
		<path class="st11" d="M465.1,115.2c0.1,0,0.1-0.1,0.1-0.2C465.1,115.1,465.1,115.2,465.1,115.2z"/>
		<polygon class="st11" points="465.2,115 465.2,115 465.2,115 		"/>
		<path class="st11" d="M461.2,102.6C461.2,102.6,461.2,102.6,461.2,102.6C461.2,102.6,461.2,102.6,461.2,102.6z"/>
		<path class="st11" d="M465.1,112l-0.1,0c0-0.1,0.2-0.1,0.1-0.2c-0.2,0,0-0.2-0.1-0.3c0,0,0-0.1,0.1-0.1c-0.1,0,0-0.1-0.1-0.1
			c0,0,0,0-0.1,0l0-0.1c0,0,0.1-0.1,0.1,0c0-0.3,0.1-1.5,0-1.8c-0.1,0,0,0.1-0.1,0.2c-0.1-0.1,0-0.1-0.1-0.1c0.2,0,0-0.2,0.2-0.2
			l-0.1,0l0.1,0c-0.1-0.3-0.1-0.1,0-0.4c0-0.2-0.2-0.2-0.1-0.3c0,0-0.1,0.1-0.1,0c0.1,0-0.1-0.1,0-0.1c0,0,0-0.2-0.1-0.1
			c0.1,0,0.1-0.1,0.1-0.1c0,0,0-0.1,0-0.1l0,0.1c0-0.1,0.1-0.2,0-0.3l-0.1,0.1c0-0.1,0-0.2,0.1-0.2l0,0.1c0-0.1,0-0.2-0.1-0.3l0,0
			c-0.1-0.1-0.2-0.9-0.4-1l-0.1,0.1l-0.1-0.1c0,0,0.3,0.1,0.3,0.1c0-0.2,0-1.5,0-1.8c0.1-0.1,0.2,0,0.2,0c0-0.1-0.1-0.1-0.1-0.1
			c0,0,0.1,0,0.1,0c0,0,0-0.1,0-0.1c0,0.1-0.2,0-0.2,0l0-0.1l0.1,0c0,0-0.2-0.1-0.2-0.2c0-0.2,0-0.4,0.1-0.6c0,0,0.1,0,0.1,0.1
			c0,0,0-0.1,0-0.1c-0.1,0-0.1-0.1-0.1-0.1c-0.2-0.2,0-0.3-0.1-0.5c-0.2,0-2.9-0.5-3.1-0.5c0,0,0-0.1,0-0.1c0,0-0.1,0.1,0,0.1l0.1,0
			c0,0.1-0.1,0-0.1,0.1c-0.1,0-0.1-0.1-0.1-0.2c0,0.1-0.1,0.1,0,0.2c0,0.1-0.1,0-0.1,0.1c0,0.1,0.1,0.1,0.1,0.2l0,0
			c-0.1,0.2,0.1,0.3,0,0.4l0,0c-0.1,0,0,0.2,0,0.3c0,0,0.1,0,0.1,0c-0.1,0.1,0,0.2-0.1,0.3l0.1,0.1c0,0.4,0,1.9,0,2.3l0,0
			c0,0.6,0,1.8,0.1,2.4c-0.1,0.1-0.1,0.2-0.1,0.3c0-0.1,0.1,0,0.1,0c0,0.3,0.1,0,0.1,0.3c0.1,0.3,0.1,1.7,0,2c0.1,0.2,0,0.4,0.1,0.5
			l0,0c0,0.1,0,0.4,0,0.7c0,0.3,0,0.6,0,0.7l0,0c0.1,0.2,0,0.2-0.1,0.3c0.1,0,0.2,0.1,0.2,0.2l0,0c0,0.1,0.2,0.3,0.2,0.4l-0.1,0
			c0.1,0.1,0.1,0.3,0.1,0.4c0,0.2-0.1,0.5,0,0.8l-0.2,0.2l0,0c0,0,2.6-0.1,3.2-0.5l0.1,0l0-0.1c0-0.1-0.1-0.1,0-0.1l0,0.1
			c0-0.1,0.1,0,0.1,0c0,0,0-0.1,0-0.1c0,0,0,0,0,0c0,0-0.1-0.1-0.1-0.1c0-0.1,0.1,0,0.1-0.1c0-0.5,0.1-1,0-1.5c0,0,0,0,0,0
			c0-0.1,0-0.3-0.1-0.4c0,0,0.1-0.1,0.1-0.1C465.2,112.8,465.1,112,465.1,112z"/>
	</g>
	<g>
		<path class="st11" d="M474.9,75c0.1,0,0.1-0.1,0.1-0.2C474.9,74.9,474.9,74.9,474.9,75z"/>
		<polygon class="st11" points="475,74.8 475,74.8 475,74.8 		"/>
		<path class="st11" d="M471,62.4C471,62.4,471,62.4,471,62.4C471,62.4,471,62.4,471,62.4z"/>
		<path class="st11" d="M475,71.8l-0.1,0c0-0.1,0.2-0.1,0.1-0.2c-0.2,0,0-0.2-0.1-0.3c0,0,0-0.1,0.1-0.1c-0.1,0,0-0.1-0.1-0.1
			c0,0,0,0-0.1,0l0-0.1c0,0,0.1-0.1,0.1,0c0-0.3,0.1-1.5,0-1.8c-0.1,0,0,0.1-0.1,0.2c-0.1-0.1,0-0.1-0.1-0.1c0.2,0,0-0.2,0.2-0.2
			l-0.1,0l0.1,0c-0.1-0.3-0.1-0.1,0-0.4c0-0.2-0.2-0.2-0.1-0.3c0,0-0.1,0.1-0.1,0c0.1,0-0.1-0.1,0-0.1c0,0,0-0.2-0.1-0.1
			c0.1,0,0.1-0.1,0.1-0.1c0,0,0-0.1,0-0.1l0,0.1c0-0.1,0.1-0.2,0-0.3l-0.1,0.1c0-0.1,0-0.2,0.1-0.2l0,0.1c0-0.1,0-0.2-0.1-0.3l0,0
			c-0.1-0.1-0.2-0.9-0.4-1l-0.1,0.1l-0.1-0.1c0,0,0.3,0.1,0.3,0.1c0-0.2,0-1.5,0-1.8c0.1-0.1,0.2,0,0.2,0c0-0.1-0.1-0.1-0.1-0.1
			c0,0,0.1,0,0.1,0c0,0,0-0.1,0-0.1c0,0.1-0.2,0-0.2,0l0-0.1l0.1,0c0,0-0.2-0.1-0.2-0.2c0-0.2,0-0.4,0-0.6c0,0,0.1,0.1,0.1,0.1
			c0,0,0-0.1,0-0.1c-0.1,0-0.1-0.1-0.1-0.1c-0.2-0.2,0-0.3-0.1-0.5c-0.2,0-2.9-0.5-3.1-0.5c0,0,0-0.1,0-0.1c0,0-0.1,0.1,0,0.1l0.1,0
			c0,0.1-0.1,0-0.1,0.1c-0.1,0-0.1-0.1-0.1-0.2c0,0.1-0.1,0.1,0,0.2c0,0.1-0.1,0-0.1,0.1c0,0.1,0.1,0.1,0.1,0.2l0,0
			c-0.1,0.2,0.1,0.3,0,0.4l0,0c-0.1,0.1,0,0.2,0,0.3c0,0,0.1,0,0.1,0c-0.1,0.1,0,0.2-0.1,0.3l0.1,0.1c0,0.4,0,1.9,0,2.3l0,0
			c0,0.6,0,1.8,0.1,2.4c-0.1,0.1-0.1,0.2-0.1,0.3c0-0.1,0.1,0,0.1,0c0,0.3,0.1,0,0.1,0.3c0.1,0.3,0.1,1.7,0,2c0.1,0.2,0,0.4,0.1,0.5
			l0,0c0,0.1,0,0.4,0,0.7c0,0.3,0,0.6,0,0.7l0,0c0.1,0.2,0,0.2-0.1,0.3c0.1,0,0.2,0.1,0.2,0.2l0,0c0,0.1,0.2,0.3,0.2,0.4l-0.1,0
			c0.1,0.1,0.1,0.3,0.1,0.4c0,0.2-0.1,0.5,0,0.8l-0.2,0.2l0,0c0,0,2.6-0.1,3.2-0.5l0.1,0l0-0.1c0-0.1-0.1-0.1,0-0.1l0,0.1
			c0-0.1,0.1,0,0.1,0c0,0,0-0.1,0-0.1c0,0,0,0,0,0c0,0-0.1-0.1-0.1-0.1c0-0.1,0.1,0,0.1-0.1c0-0.5,0.1-1,0-1.5c0,0,0,0,0,0
			c0-0.1,0-0.3-0.1-0.4c0,0,0.1-0.1,0.1-0.1C475,72.6,474.9,71.8,475,71.8z"/>
	</g>
	<g>
		<path class="st11" d="M474.9,124.7c0.1,0,0.1-0.1,0.1-0.1C474.9,124.6,474.9,124.6,474.9,124.7z"/>
		<polygon class="st11" points="475,124.5 475,124.5 475,124.5 		"/>
		<path class="st11" d="M471.6,113.1C471.6,113.1,471.6,113.2,471.6,113.1C471.6,113.2,471.6,113.1,471.6,113.1z"/>
		<path class="st11" d="M475.3,121.7l-0.1,0c0-0.1,0.2,0,0.1-0.2c-0.2-0.1,0-0.2-0.1-0.3c0,0,0-0.1,0.1-0.1c-0.1,0,0-0.1,0-0.1
			c0,0,0,0-0.1,0l0-0.1c0,0,0.1,0,0.1,0c0-0.2,0.2-1.4,0.1-1.6c-0.1,0,0,0.1-0.2,0.1c-0.1-0.1,0-0.1,0-0.1c0.2,0,0.1-0.1,0.2-0.2
			l-0.1,0l0.1,0c-0.1-0.3-0.1-0.1,0-0.3c0-0.1-0.2-0.2-0.1-0.3c0,0-0.1,0-0.1,0c0.1,0-0.1-0.1,0-0.1c0,0,0-0.2-0.1-0.1
			c0.1,0,0.1-0.1,0.1-0.1c0,0,0-0.1,0-0.1l0,0c0-0.1,0.1-0.2,0-0.3l-0.1,0c0-0.1,0-0.1,0.1-0.2l0,0.1c0-0.1,0-0.2-0.1-0.3l0,0
			c-0.1-0.1-0.2-0.8-0.4-0.9l-0.1,0.1l-0.1-0.1c0,0,0.3,0.1,0.3,0.1c0-0.2,0-1.4,0-1.6c0.1-0.1,0.2,0,0.2,0c0-0.1-0.1,0-0.1-0.1
			c0,0,0.1,0,0.1,0c0,0,0-0.1,0-0.1c0,0-0.2,0-0.2,0l0-0.1l0.1,0c0,0-0.2-0.1-0.2-0.2c0-0.2,0-0.4,0-0.6c0,0,0.1,0,0.1,0.1
			c0,0,0-0.1,0-0.1c-0.1,0-0.1-0.1-0.1,0c-0.2-0.1,0-0.3-0.1-0.4c-0.2,0-2.9-0.4-3.1-0.4c0,0,0-0.1,0-0.1c0,0-0.1,0.1,0,0.1l0.1,0
			c0,0.1-0.1,0-0.1,0.1c-0.1,0-0.1-0.1-0.1-0.2c0,0.1-0.1,0.1,0,0.2c0,0.1-0.1,0-0.1,0.1c0,0.1,0.1,0.1,0.1,0.2l0,0
			c-0.1,0.1,0.1,0.2,0,0.4l0,0c-0.1,0,0,0.1,0,0.2c0,0,0.1,0,0.1,0c-0.1,0.1,0,0.2-0.1,0.2l0.1,0.1c0,0.3,0.1,1.7,0.1,2l0,0
			c0,0.5,0,1.6,0.1,2.1c-0.1,0.1-0.1,0.2-0.1,0.3c0,0,0.1,0,0.1,0c0,0.3,0.1,0,0.1,0.3c0.1,0.3-0.1,1.4-0.1,1.7
			c0.1,0.1,0,0.3,0.1,0.5l0,0c0,0.2-0.1,1-0.1,1.2l0,0c0.1,0.2-0.1,0.1-0.1,0.2c0.1,0,0.2,0.1,0.2,0.2l0,0c0,0.1,0.1,0.3,0.2,0.4
			l-0.1,0c0.1,0.1,0,0.3,0,0.4c0,0.2-0.2,0.4-0.1,0.7l-0.2,0.1l0,0c0,0,2.6,0.4,3.2,0.1l0.1,0l0-0.1c0-0.1,0-0.1,0-0.1l0,0.1
			c0-0.1,0.1,0,0.1,0c0,0,0-0.1,0-0.1c0,0,0,0,0,0c0,0-0.1-0.1-0.1-0.1c0-0.1,0.1,0,0.1-0.1c0.1-0.5,0.2-0.9,0.2-1.4c0,0,0,0,0,0
			c0-0.1,0-0.3,0-0.4c0,0,0.1,0,0.1-0.1C475.3,122.4,475.3,121.7,475.3,121.7z"/>
	</g>
	<g>
		<path class="st11" d="M488.7,123c0.1,0,0.1-0.1,0.1-0.1C488.7,122.9,488.7,123,488.7,123z"/>
		<polygon class="st11" points="488.8,122.9 488.8,122.9 488.8,122.9 		"/>
		<path class="st11" d="M485.4,112.2C485.4,112.2,485.4,112.2,485.4,112.2C485.4,112.2,485.4,112.2,485.4,112.2z"/>
		<path class="st11" d="M489.1,120.2l-0.1,0c0-0.1,0.2,0,0.1-0.2c-0.2-0.1,0-0.2-0.1-0.2c0,0,0-0.1,0.1-0.1c-0.1,0,0-0.1,0-0.1
			c0,0,0,0-0.1,0l0-0.1c0,0,0.1,0,0.1,0c0-0.2,0.2-1.3,0.1-1.5c-0.1,0,0,0.1-0.2,0.1c-0.1-0.1,0-0.1,0-0.1c0.2,0,0-0.1,0.2-0.2
			l-0.1,0l0.1,0c-0.1-0.3-0.1-0.1,0-0.3c0-0.1-0.2-0.2-0.1-0.3c0,0-0.1,0-0.1,0c0.1,0-0.1-0.1,0-0.1c0,0,0-0.1-0.1-0.1
			c0.1,0,0.1-0.1,0.1-0.1c0,0,0-0.1,0-0.1l0,0c0-0.1,0.1-0.2,0-0.3l-0.1,0c0-0.1,0-0.1,0.1-0.2l0,0.1c0-0.1,0-0.2-0.1-0.3l0,0
			c-0.1-0.1-0.2-0.8-0.4-0.9l-0.1,0l-0.1-0.1c0,0,0.3,0.1,0.3,0.1c0-0.2,0-1.3,0-1.5c0.1-0.1,0.2,0,0.2,0c0-0.1-0.1,0-0.1-0.1
			c0,0,0.1,0,0.1,0c0,0,0-0.1,0-0.1c0,0-0.2,0-0.2,0l0-0.1l0.1,0c0,0-0.2-0.1-0.2-0.2c0-0.2,0-0.4,0-0.5c0,0,0.1,0,0.1,0.1
			c0,0,0-0.1,0-0.1c-0.1,0-0.1-0.1-0.1,0c-0.2-0.1,0-0.3-0.1-0.4c-0.2,0-2.9-0.4-3.1-0.4c0,0,0-0.1,0-0.1c0,0-0.1,0.1,0,0.1l0.1,0
			c0,0.1-0.1,0-0.1,0.1c-0.1,0-0.1-0.1-0.1-0.1c0,0.1-0.1,0.1,0,0.1c0,0.1-0.1,0-0.1,0.1c0,0.1,0.1,0.1,0.1,0.2l0,0
			c-0.1,0.1,0.1,0.2,0,0.3l0,0c-0.1,0,0,0.1,0,0.2c0,0,0.1,0,0.1,0c-0.1,0.1,0,0.2-0.1,0.2l0.1,0.1c0,0.3,0.1,1.6,0.1,1.9l0,0
			c0,0.5,0,1.5,0.1,2c-0.1,0.1-0.1,0.2-0.1,0.3c0,0,0.1,0,0.1,0c0,0.2,0.1,0,0.1,0.3c0.1,0.3,0,1.4-0.1,1.6c0.1,0.1,0,0.3,0.1,0.4
			l0,0c0,0.1-0.1,0.9-0.1,1.1l0,0c0.1,0.1-0.1,0.1-0.1,0.2c0.1,0,0.2,0.1,0.2,0.2l0,0c0,0.1,0.1,0.2,0.2,0.4l-0.1,0
			c0.1,0.1,0,0.3,0,0.4c0,0.2-0.2,0.4-0.1,0.6l-0.2,0.1l0,0c0,0,2.6,0.4,3.2,0.1l0.1,0l0-0.1c0-0.1,0-0.1,0-0.1l0,0.1
			c0-0.1,0.1,0,0.1,0c0,0,0-0.1,0-0.1c0,0,0,0,0,0c0,0-0.1-0.1-0.1-0.1c0-0.1,0.1,0,0.1-0.1c0.1-0.4,0.2-0.8,0.2-1.3c0,0,0,0,0,0
			c0-0.1,0-0.3,0-0.4c0,0,0.1,0,0.1,0C489.1,120.9,489.1,120.3,489.1,120.2z"/>
	</g>
	<g>
		<path class="st11" d="M456.4,126.1c0.1,0,0.1-0.1,0.1-0.1C456.4,126,456.4,126,456.4,126.1z"/>
		<polygon class="st11" points="456.5,126 456.5,126 456.5,126 		"/>
		<path class="st11" d="M453.1,115.3C453.1,115.3,453.1,115.3,453.1,115.3C453.1,115.3,453.1,115.3,453.1,115.3z"/>
		<path class="st11" d="M456.8,123.3l-0.1,0c0-0.1,0.2,0,0.1-0.2c-0.2-0.1,0-0.2-0.1-0.2c0,0,0-0.1,0.1-0.1c-0.1,0,0-0.1,0-0.1
			c0,0,0,0-0.1,0l0-0.1c0,0,0.1,0,0.1,0c0-0.2,0.2-1.3,0.1-1.5c-0.1,0,0,0.1-0.2,0.1c-0.1-0.1,0-0.1,0-0.1c0.2,0,0-0.1,0.2-0.2
			l-0.1,0l0.1,0c-0.1-0.3-0.1-0.1,0-0.3c0-0.1-0.2-0.2-0.1-0.3c0,0-0.1,0-0.1,0c0.1,0-0.1-0.1,0-0.1c0,0,0-0.1-0.1-0.1
			c0.1,0,0.1-0.1,0.1-0.1c0,0,0-0.1,0-0.1l0,0c0-0.1,0.1-0.2,0-0.3l-0.1,0c0-0.1,0-0.1,0.1-0.2l0,0.1c0-0.1,0-0.2-0.1-0.3l0,0
			c-0.1-0.1-0.2-0.8-0.4-0.9l-0.1,0l-0.1-0.1c0,0,0.3,0.1,0.3,0.1c0-0.2,0-1.3,0-1.5c0.1-0.1,0.2,0,0.2,0c0-0.1-0.1,0-0.1-0.1
			c0,0,0.1,0,0.1,0c0,0,0-0.1,0-0.1c0,0-0.2,0-0.2,0l0-0.1l0.1,0c0,0-0.2-0.1-0.2-0.2c0-0.2,0-0.4,0-0.5c0,0,0.1,0,0.1,0.1
			c0,0,0-0.1,0-0.1c-0.1,0-0.1-0.1-0.1,0c-0.2-0.1,0-0.3-0.1-0.4c-0.2,0-2.9-0.4-3.1-0.4c0,0,0-0.1,0-0.1c0,0-0.1,0.1,0,0.1l0.1,0
			c0,0.1-0.1,0-0.1,0.1c-0.1,0-0.1-0.1-0.1-0.1c0,0.1-0.1,0.1,0,0.1c0,0.1-0.1,0-0.1,0.1c0,0.1,0.1,0.1,0.1,0.2l0,0
			c-0.1,0.1,0.1,0.2,0,0.3l0,0c-0.1,0,0,0.1,0,0.2c0,0,0.1,0,0.1,0c-0.1,0.1,0,0.2-0.1,0.2l0.1,0.1c0,0.3,0.1,1.6,0.1,1.9l0,0
			c0,0.5,0,1.5,0.1,2c-0.1,0.1-0.1,0.2-0.1,0.3c0,0,0.1,0,0.1,0c0,0.2,0.1,0,0.1,0.3c0.1,0.3,0,1.4-0.1,1.6c0.1,0.1,0,0.3,0.1,0.4
			l0,0c0,0.1-0.1,0.9-0.1,1.1l0,0c0.1,0.1-0.1,0.1-0.1,0.2c0.1,0,0.2,0.1,0.2,0.2l0,0c0,0.1,0.1,0.2,0.2,0.4l-0.1,0
			c0.1,0.1,0,0.3,0,0.4c0,0.2-0.2,0.4-0.1,0.6l-0.2,0.1l0,0c0,0,2.6,0.4,3.2,0.1l0.1,0l0-0.1c0-0.1,0-0.1,0-0.1l0,0.1
			c0-0.1,0.1,0,0.1,0c0,0,0-0.1,0-0.1c0,0,0,0,0,0c0,0-0.1-0.1-0.1-0.1c0-0.1,0.1,0,0.1-0.1c0.1-0.4,0.2-0.8,0.2-1.3c0,0,0,0,0,0
			c0-0.1,0-0.3,0-0.4c0,0,0.1,0,0.1,0C456.8,124,456.8,123.3,456.8,123.3z"/>
	</g>
	<g>
		<path class="st11" d="M494,78.7c0.1,0,0.1-0.1,0.1-0.1C494,78.6,494,78.6,494,78.7z"/>
		<polygon class="st11" points="494.1,78.5 494.1,78.5 494.1,78.5 		"/>
		<path class="st11" d="M490.7,67.8C490.7,67.8,490.7,67.9,490.7,67.8C490.7,67.9,490.7,67.8,490.7,67.8z"/>
		<path class="st11" d="M494.4,75.9l-0.1,0c0-0.1,0.2,0,0.1-0.2c-0.2-0.1,0-0.2-0.1-0.2c0,0,0-0.1,0.1-0.1c-0.1,0,0-0.1,0-0.1
			c0,0,0,0-0.1,0l0-0.1c0,0,0.1,0,0.1,0c0-0.2,0.2-1.3,0.1-1.5c-0.1,0,0,0.1-0.2,0.1c-0.1-0.1,0-0.1,0-0.1c0.2,0,0-0.1,0.2-0.2
			l-0.1,0l0.1,0c-0.1-0.3-0.1-0.1,0-0.3c0-0.1-0.2-0.2-0.1-0.3c0,0-0.1,0-0.1,0c0.1,0-0.1-0.1,0-0.1c0,0,0-0.1-0.1-0.1
			c0.1,0,0.1-0.1,0.1-0.1c0,0,0-0.1,0-0.1l0,0c0-0.1,0.1-0.2,0-0.3l-0.1,0c0-0.1,0-0.1,0.1-0.2l0,0.1c0-0.1,0-0.2-0.1-0.3l0,0
			c-0.1-0.1-0.2-0.8-0.4-0.9l-0.1,0l-0.1-0.1c0,0,0.3,0.1,0.3,0.1c0-0.2,0-1.3,0-1.5c0.1-0.1,0.2,0,0.2,0c0-0.1-0.1,0-0.1-0.1
			c0,0,0.1,0,0.1,0c0,0,0-0.1,0-0.1c0,0-0.2,0-0.2,0l0-0.1l0.1,0c0,0-0.2-0.1-0.2-0.2c0-0.2,0-0.4,0-0.5c0,0,0.1,0,0.1,0.1
			c0,0,0-0.1,0-0.1c-0.1,0-0.1-0.1-0.1,0c-0.2-0.1,0-0.3-0.1-0.4c-0.2,0-2.9-0.4-3.1-0.4c0,0,0-0.1,0-0.1c0,0-0.1,0.1,0,0.1l0.1,0
			c0,0.1-0.1,0-0.1,0.1c-0.1,0-0.1-0.1-0.1-0.1c0,0.1-0.1,0.1,0,0.1c0,0.1-0.1,0-0.1,0.1c0,0.1,0.1,0.1,0.1,0.2l0,0
			c-0.1,0.1,0.1,0.2,0,0.3l0,0c-0.1,0,0,0.1,0,0.2c0,0,0.1,0,0.1,0c-0.1,0.1,0,0.2-0.1,0.2l0.1,0.1c0,0.3,0.1,1.6,0.1,1.9l0,0
			c0,0.5,0,1.5,0.1,2c-0.1,0.1-0.1,0.2-0.1,0.3c0,0,0.1,0,0.1,0c0,0.2,0.1,0,0.1,0.3c0.1,0.3,0,1.4-0.1,1.6c0.1,0.1,0,0.3,0.1,0.4
			l0,0c0,0.1-0.1,0.9-0.1,1.1l0,0c0.1,0.1-0.1,0.1-0.1,0.2c0.1,0,0.2,0.1,0.2,0.2l0,0c0,0.1,0.1,0.2,0.2,0.4l-0.1,0
			c0.1,0.1,0,0.3,0,0.4c0,0.2-0.2,0.4-0.1,0.6l-0.2,0.1l0,0c0,0,2.6,0.4,3.2,0.1l0.1,0l0-0.1c0-0.1,0-0.1,0-0.1l0,0.1
			c0-0.1,0.1,0,0.1,0c0,0,0-0.1,0-0.1c0,0,0,0,0,0c0,0-0.1-0.1-0.1-0.1c0-0.1,0.1,0,0.1-0.1c0.1-0.4,0.2-0.8,0.2-1.3c0,0,0,0,0,0
			c0-0.1,0-0.3,0-0.4c0,0,0.1,0,0.1,0C494.4,76.6,494.4,75.9,494.4,75.9z"/>
	</g>
	<g>
		<path class="st11" d="M483.2,84.7c0.1,0,0.1-0.1,0.1-0.1C483.3,84.6,483.2,84.7,483.2,84.7z"/>
		<polygon class="st11" points="483.3,84.6 483.3,84.6 483.3,84.6 		"/>
		<path class="st11" d="M479.9,73.9C479.9,73.9,479.9,73.9,479.9,73.9C479.9,73.9,479.9,73.9,479.9,73.9z"/>
		<path class="st11" d="M483.7,81.9l-0.1,0c0-0.1,0.2,0,0.1-0.2c-0.2-0.1,0-0.2-0.1-0.2c0,0,0-0.1,0.1-0.1c-0.1,0,0-0.1,0-0.1
			c0,0,0,0-0.1,0l0-0.1c0,0,0.1,0,0.1,0c0-0.2,0.2-1.3,0.1-1.5c-0.1,0,0,0.1-0.2,0.1c-0.1-0.1,0-0.1,0-0.1c0.2,0,0-0.1,0.2-0.2
			l-0.1,0l0.1,0c-0.1-0.3-0.1-0.1,0-0.3c0-0.1-0.2-0.2-0.1-0.3c0,0-0.1,0-0.1,0c0.1,0-0.1-0.1,0-0.1c0,0,0-0.1-0.1-0.1
			c0.1,0,0.1-0.1,0.1-0.1c0,0,0-0.1,0-0.1l0,0c0-0.1,0.1-0.2,0-0.3l-0.1,0c0-0.1,0-0.1,0.1-0.2l0,0.1c0-0.1,0-0.2-0.1-0.3l0,0
			c-0.1-0.1-0.2-0.8-0.4-0.9l-0.1,0l-0.1-0.1c0,0,0.3,0.1,0.3,0.1c0-0.2,0-1.3,0-1.5c0.1-0.1,0.2,0,0.2,0c0-0.1-0.1,0-0.1-0.1
			c0,0,0.1,0,0.1,0c0,0,0-0.1,0-0.1c0,0-0.2,0-0.2,0l0-0.1l0.1,0c0,0-0.2-0.1-0.2-0.2c0-0.2,0-0.4,0-0.5c0,0,0.1,0,0.1,0.1
			c0,0,0-0.1,0-0.1c-0.1,0-0.1-0.1-0.1,0c-0.2-0.1,0-0.3-0.1-0.4c-0.2,0-2.9-0.4-3.1-0.4c0,0,0-0.1,0-0.1c0,0-0.1,0.1,0,0.1l0.1,0
			c0,0.1-0.1,0-0.1,0.1c-0.1,0-0.1-0.1-0.1-0.1c0,0.1-0.1,0.1,0,0.1c0,0.1-0.1,0-0.1,0.1c0,0.1,0.1,0.1,0.1,0.2l0,0
			c-0.1,0.1,0.1,0.2,0,0.3l0,0c-0.1,0,0,0.1,0,0.2c0,0,0.1,0,0.1,0c-0.1,0.1,0,0.2-0.1,0.2l0.1,0.1c0,0.3,0.1,1.6,0.1,1.9l0,0
			c0,0.5,0,1.5,0.1,2c-0.1,0.1-0.1,0.2-0.1,0.3c0,0,0.1,0,0.1,0c0,0.2,0.1,0,0.1,0.3c0.1,0.3,0,1.4-0.1,1.6c0.1,0.1,0,0.3,0.1,0.4
			l0,0c0,0.1-0.1,0.9-0.1,1.1l0,0c0.1,0.1-0.1,0.1-0.1,0.2c0.1,0,0.2,0.1,0.2,0.2l0,0c0,0.1,0.1,0.2,0.2,0.4l-0.1,0
			c0.1,0.1,0,0.3,0,0.4c0,0.2-0.2,0.4-0.1,0.6l-0.2,0.1l0,0c0,0,2.6,0.4,3.2,0.1l0.1,0l0-0.1c0-0.1,0-0.1,0-0.1l0,0.1
			c0-0.1,0.1,0,0.1,0c0,0,0-0.1,0-0.1c0,0,0,0,0,0c0,0-0.1-0.1-0.1-0.1c0-0.1,0.1,0,0.1-0.1c0.1-0.4,0.2-0.8,0.2-1.3c0,0,0,0,0,0
			c0-0.1,0-0.3,0-0.4c0,0,0.1,0,0.1,0C483.6,82.6,483.6,81.9,483.7,81.9z"/>
	</g>
	<g>
		<path class="st11" d="M483.8,140.3c0.1,0,0.1-0.1,0.1-0.1C483.9,140.2,483.8,140.2,483.8,140.3z"/>
		<polygon class="st11" points="484,140.1 484,140.1 484,140.1 		"/>
		<path class="st11" d="M480.5,129.4C480.5,129.4,480.5,129.4,480.5,129.4C480.5,129.4,480.5,129.4,480.5,129.4z"/>
		<path class="st11" d="M484.3,137.5l-0.1,0c0-0.1,0.2,0,0.1-0.2c-0.2-0.1,0-0.2-0.1-0.2c0,0,0-0.1,0.1-0.1c-0.1,0,0-0.1,0-0.1
			c0,0,0,0-0.1,0l0-0.1c0,0,0.1,0,0.1,0c0-0.2,0.2-1.3,0.1-1.5c-0.1,0,0,0.1-0.2,0.1c-0.1-0.1,0-0.1,0-0.1c0.2,0,0-0.1,0.2-0.2
			l-0.1,0l0.1,0c-0.1-0.3-0.1-0.1,0-0.3c0-0.1-0.2-0.2-0.1-0.3c0,0-0.1,0-0.1,0c0.1,0-0.1-0.1,0-0.1c0,0,0-0.1-0.1-0.1
			c0.1,0,0.1-0.1,0.1-0.1c0,0,0-0.1,0-0.1l0,0c0-0.1,0.1-0.2,0-0.3l-0.1,0c0-0.1,0-0.1,0.1-0.2l0,0.1c0-0.1,0-0.2-0.1-0.3l0,0
			c-0.1-0.1-0.2-0.8-0.4-0.9l-0.1,0l-0.1-0.1c0,0,0.3,0.1,0.3,0.1c0-0.2,0-1.3,0-1.5c0.1-0.1,0.2,0,0.2,0c0-0.1-0.1,0-0.1-0.1
			c0,0,0.1,0,0.1,0c0,0,0-0.1,0-0.1c0,0-0.2,0-0.2,0l0-0.1l0.1,0c0,0-0.2-0.1-0.2-0.2c0-0.2,0-0.4,0-0.5c0,0,0.1,0,0.1,0.1
			c0,0,0-0.1,0-0.1c-0.1,0-0.1-0.1-0.1,0c-0.2-0.1,0-0.3-0.1-0.4c-0.2,0-2.9-0.4-3.1-0.4c0,0,0-0.1,0-0.1c0,0-0.1,0.1,0,0.1l0.1,0
			c0,0.1-0.1,0-0.1,0.1c-0.1,0-0.1-0.1-0.1-0.1c0,0.1-0.1,0.1,0,0.1c0,0.1-0.1,0-0.1,0.1c0,0.1,0.1,0.1,0.1,0.2l0,0
			c-0.1,0.1,0.1,0.2,0,0.3l0,0c-0.1,0,0,0.1,0,0.2c0,0,0.1,0,0.1,0c-0.1,0.1,0,0.2-0.1,0.2l0.1,0.1c0,0.3,0.1,1.6,0.1,1.9l0,0
			c0,0.5,0,1.5,0.1,2c-0.1,0.1-0.1,0.2-0.1,0.3c0,0,0.1,0,0.1,0c0,0.2,0.1,0,0.1,0.3c0.1,0.3,0,1.4-0.1,1.6c0.1,0.1,0,0.3,0.1,0.4
			l0,0c0,0.1-0.1,0.9-0.1,1.1l0,0c0.1,0.1-0.1,0.1-0.1,0.2c0.1,0,0.2,0.1,0.2,0.2l0,0c0,0.1,0.1,0.2,0.2,0.4l-0.1,0
			c0.1,0.1,0,0.3,0,0.4c0,0.2-0.2,0.4-0.1,0.6l-0.2,0.1l0,0c0,0,2.6,0.4,3.2,0.1l0.1,0l0-0.1c0-0.1,0-0.1,0-0.1l0,0.1
			c0-0.1,0.1,0,0.1,0c0,0,0-0.1,0-0.1c0,0,0,0,0,0c0,0-0.1-0.1-0.1-0.1c0-0.1,0.1,0,0.1-0.1c0.1-0.4,0.2-0.8,0.2-1.3c0,0,0,0,0,0
			c0-0.1,0-0.3,0-0.4c0,0,0.1,0,0.1,0C484.2,138.2,484.3,137.5,484.3,137.5z"/>
	</g>
	<g>
		<path class="st11" d="M481.6,108.8c0.1,0,0.1-0.1,0.1-0.2C481.6,108.6,481.6,108.7,481.6,108.8z"/>
		<polygon class="st11" points="481.7,108.6 481.7,108.6 481.7,108.6 		"/>
		<path class="st11" d="M478.4,96.2C478.4,96.2,478.4,96.2,478.4,96.2C478.4,96.2,478.4,96.2,478.4,96.2z"/>
		<path class="st11" d="M482,105.5l-0.1,0c0-0.2,0.2,0,0.1-0.2c-0.2-0.1,0-0.2-0.1-0.3c0,0,0-0.1,0.1-0.1c-0.1,0,0-0.1,0-0.1
			c0,0,0,0-0.1,0l0-0.1c0,0,0.1,0,0.1,0c0-0.3,0.2-1.5,0.1-1.8c-0.1,0,0,0.1-0.2,0.2c-0.1-0.1,0-0.1,0-0.1c0.2,0,0.1-0.2,0.2-0.2
			l-0.1,0l0.1,0c-0.1-0.3-0.1-0.1,0-0.4c0-0.2-0.2-0.2-0.1-0.3c0,0-0.1,0-0.1,0c0.1,0-0.1-0.1,0-0.1c0,0,0-0.2-0.1-0.1
			c0.1,0,0.1-0.1,0.1-0.1c0,0,0-0.1,0-0.1l0,0.1c0-0.1,0.1-0.2,0-0.3l-0.1,0c0-0.1,0-0.1,0.1-0.2l0,0.1c0-0.1,0-0.2-0.1-0.3l0,0
			c-0.1-0.1-0.2-0.9-0.4-1l-0.1,0.1l-0.1-0.1c0,0,0.3,0.1,0.3,0.1c0-0.2,0-1.5,0-1.7c0.1-0.1,0.2,0,0.2,0c0-0.1-0.1-0.1-0.1-0.1
			c0,0,0.1,0,0.1,0c0,0,0-0.1,0-0.1c0,0-0.2,0-0.2,0l0-0.1l0.1,0c0,0-0.2-0.1-0.2-0.2c0-0.2,0-0.4,0-0.6c0,0,0.1,0,0.1,0.1
			c0,0,0-0.1,0-0.1c-0.1,0-0.1-0.1-0.1-0.1c-0.2-0.2,0-0.3-0.1-0.5c-0.2,0-2.9-0.5-3.1-0.5c0,0,0-0.1,0-0.1c0,0-0.1,0.1,0,0.1l0.1,0
			c0,0.1-0.1,0-0.1,0.1c-0.1,0-0.1-0.1-0.1-0.2c0,0.1-0.1,0.1,0,0.2c0,0.1-0.1,0-0.1,0.1c0,0.1,0.1,0.1,0.1,0.2l0,0
			c-0.1,0.2,0.1,0.2,0,0.4l0,0c-0.1,0,0,0.2,0,0.2c0,0,0.1,0,0.1,0c-0.1,0.1,0,0.2-0.1,0.3l0.1,0.1c0,0.4,0,1.8,0,2.2l0,0
			c0,0.6,0,1.7,0.1,2.3c-0.1,0.1-0.1,0.2-0.1,0.3c0-0.1,0.1,0,0.1,0c0,0.3,0.1,0,0.1,0.3c0.1,0.3-0.1,1.6-0.1,1.9
			c0.1,0.2,0,0.4,0.1,0.5l0,0c0,0.2-0.1,1.1-0.1,1.3l0,0c0.1,0.2-0.1,0.1-0.1,0.3c0.1,0,0.2,0.1,0.2,0.2l0,0c0,0.1,0.1,0.3,0.2,0.4
			l-0.1,0c0.1,0.1,0,0.3,0,0.4c0,0.2-0.2,0.5-0.1,0.7l-0.2,0.1l0,0c0,0,2.6,0.4,3.2,0.1l0.1,0l0-0.1c0-0.1,0-0.1,0-0.1l0,0.1
			c0-0.1,0.1,0,0.1,0c0,0,0-0.1,0-0.1c0,0,0,0,0,0c0,0-0.1-0.1-0.1-0.2c0-0.1,0.1,0,0.1-0.1c0.1-0.5,0.2-1,0.2-1.5c0,0,0,0,0,0
			c0-0.2,0-0.3,0-0.4c0,0,0.1,0,0.1-0.1C482,106.3,482,105.5,482,105.5z"/>
	</g>
	<g>
		<path class="st11" d="M458.5,88c0.1,0,0.1-0.1,0.1-0.2C458.6,87.9,458.5,88,458.5,88z"/>
		<polygon class="st11" points="458.7,87.9 458.7,87.9 458.7,87.9 		"/>
		<path class="st11" d="M455.3,75.5C455.3,75.5,455.3,75.5,455.3,75.5C455.3,75.5,455.3,75.5,455.3,75.5z"/>
		<path class="st11" d="M459,84.8l-0.1,0c0-0.2,0.2,0,0.1-0.2c-0.2-0.1,0-0.2-0.1-0.3c0,0,0-0.1,0.1-0.1c-0.1,0,0-0.1,0-0.1
			c0,0,0,0-0.1,0l0-0.1c0,0,0.1,0,0.1,0c0-0.3,0.2-1.5,0.1-1.8c-0.1,0,0,0.1-0.2,0.2c-0.1-0.1,0-0.1,0-0.1c0.2,0,0.1-0.2,0.2-0.2
			l-0.1,0l0.1,0c-0.1-0.3-0.1-0.1,0-0.4c0-0.2-0.2-0.2-0.1-0.3c0,0-0.1,0-0.1,0c0.1,0-0.1-0.1,0-0.1c0,0,0-0.2-0.1-0.1
			c0.1,0,0.1-0.1,0.1-0.1c0,0,0-0.1,0-0.1l0,0.1c0-0.1,0.1-0.2,0-0.3l-0.1,0c0-0.1,0-0.1,0.1-0.2l0,0.1c0-0.1,0-0.2-0.1-0.3l0,0
			c-0.1-0.1-0.2-0.9-0.4-1l-0.1,0.1l-0.1-0.1c0,0,0.3,0.1,0.3,0.1c0-0.2,0-1.5,0-1.7c0.1-0.1,0.2,0,0.2,0c0-0.1-0.1-0.1-0.1-0.1
			c0,0,0.1,0,0.1,0c0,0,0-0.1,0-0.1c0,0-0.2,0-0.2,0l0-0.1l0.1,0c0,0-0.2-0.1-0.2-0.2c0-0.2,0-0.4,0-0.6c0,0,0.1,0,0.1,0.1
			c0,0,0-0.1,0-0.1c-0.1,0-0.1-0.1-0.1-0.1c-0.2-0.2,0-0.3-0.1-0.5c-0.2,0-2.9-0.5-3.1-0.5c0,0,0-0.1,0-0.1c0,0-0.1,0.1,0,0.1l0.1,0
			c0,0.1-0.1,0-0.1,0.1c-0.1,0-0.1-0.1-0.1-0.2c0,0.1-0.1,0.1,0,0.2c0,0.1-0.1,0-0.1,0.1c0,0.1,0.1,0.1,0.1,0.2l0,0
			c-0.1,0.2,0.1,0.2,0,0.4l0,0c-0.1,0,0,0.2,0,0.2c0,0,0.1,0,0.1,0c-0.1,0.1,0,0.2-0.1,0.3l0.1,0.1c0,0.4,0,1.8,0,2.2l0,0
			c0,0.6,0,1.7,0.1,2.3c-0.1,0.1-0.1,0.2-0.1,0.3c0-0.1,0.1,0,0.1,0c0,0.3,0.1,0,0.1,0.3c0.1,0.3-0.1,1.6-0.1,1.9
			c0.1,0.2,0,0.4,0.1,0.5l0,0c0,0.2-0.1,1.1-0.1,1.3l0,0c0.1,0.2-0.1,0.1-0.1,0.3c0.1,0,0.2,0.1,0.2,0.2l0,0c0,0.1,0.1,0.3,0.2,0.4
			l-0.1,0c0.1,0.1,0,0.3,0,0.4c0,0.2-0.2,0.5-0.1,0.7l-0.2,0.1l0,0c0,0,2.6,0.4,3.2,0.1l0.1,0l0-0.1c0-0.1,0-0.1,0-0.1l0,0.1
			c0-0.1,0.1,0,0.1,0c0,0,0-0.1,0-0.1c0,0,0,0,0,0c0,0-0.1-0.1-0.1-0.2c0-0.1,0.1,0,0.1-0.1c0.1-0.5,0.2-1,0.2-1.5c0,0,0,0,0,0
			c0-0.2,0-0.3,0-0.4c0,0,0.1,0,0.1-0.1C459,85.6,459,84.8,459,84.8z"/>
	</g>
	<g>
		<path class="st11" d="M514.7,89.8c0.1,0,0.1-0.1,0.1-0.2C514.8,89.7,514.7,89.7,514.7,89.8z"/>
		<polygon class="st11" points="514.9,89.6 514.9,89.6 514.9,89.6 		"/>
		<path class="st11" d="M511.5,77.2C511.5,77.2,511.5,77.2,511.5,77.2C511.5,77.2,511.5,77.2,511.5,77.2z"/>
		<path class="st11" d="M515.2,86.5l-0.1,0c0-0.2,0.2,0,0.1-0.2c-0.2-0.1,0-0.2-0.1-0.3c0,0,0-0.1,0.1-0.1c-0.1,0,0-0.1,0-0.1
			c0,0,0,0-0.1,0l0-0.1c0,0,0.1,0,0.1,0c0-0.3,0.2-1.5,0.1-1.8c-0.1,0,0,0.1-0.2,0.1c-0.1-0.1,0-0.1,0-0.1c0.2,0,0.1-0.2,0.2-0.2
			l-0.1,0l0.1,0c-0.1-0.3-0.1-0.1,0-0.4c0-0.2-0.2-0.2-0.1-0.3c0,0-0.1,0-0.1,0c0.1,0-0.1-0.1,0-0.1c0,0,0-0.2-0.1-0.1
			c0.1,0,0.1-0.1,0.1-0.1c0,0,0-0.1,0-0.1l0,0.1c0-0.1,0.1-0.2,0-0.3l-0.1,0c0-0.1,0-0.2,0.1-0.2l0,0.1c0-0.1,0-0.2-0.1-0.3l0,0
			c-0.1-0.1-0.2-0.9-0.4-1l-0.1,0.1l-0.1-0.1c0,0,0.3,0.1,0.3,0.1c0-0.2,0-1.5,0-1.7c0.1-0.1,0.2,0,0.2,0c0-0.1-0.1-0.1-0.1-0.1
			c0,0,0.1,0,0.1,0c0,0,0-0.1,0-0.1c0,0-0.2,0-0.2,0l0-0.1l0.1,0c0,0-0.2-0.1-0.2-0.2c0-0.2,0-0.4,0-0.6c0,0,0.1,0,0.1,0.1
			c0,0,0-0.1,0-0.1c-0.1,0-0.1-0.1-0.1-0.1c-0.2-0.2,0-0.3-0.1-0.5c-0.2,0-2.9-0.5-3.1-0.5c0,0,0-0.1,0-0.1c0,0-0.1,0.1,0,0.1l0.1,0
			c0,0.1-0.1,0-0.1,0.1c-0.1,0-0.1-0.1-0.1-0.2c0,0.1-0.1,0.1,0,0.2c0,0.1-0.1,0-0.1,0.1c0,0.1,0.1,0.1,0.1,0.2l0,0
			c-0.1,0.2,0.1,0.2,0,0.4l0,0c-0.1,0,0,0.2,0,0.2c0,0,0.1,0,0.1,0c-0.1,0.1,0,0.2-0.1,0.3l0.1,0.1c0,0.4,0,1.8,0,2.2l0,0
			c0,0.6,0,1.7,0.1,2.3c-0.1,0.1-0.1,0.2-0.1,0.3c0-0.1,0.1,0,0.1,0c0,0.3,0.1,0,0.1,0.3c0.1,0.3-0.1,1.6-0.1,1.9
			c0.1,0.2,0,0.4,0.1,0.5l0,0c0,0.2-0.1,1.1-0.1,1.3l0,0c0.1,0.2-0.1,0.1-0.1,0.3c0.1,0,0.2,0.1,0.2,0.2l0,0c0,0.1,0.1,0.3,0.2,0.4
			l-0.1,0c0.1,0.1,0,0.3,0,0.4c0,0.2-0.2,0.5-0.1,0.7l-0.2,0.1l0,0c0,0,2.6,0.4,3.2,0.1l0.1,0l0-0.1c0-0.1,0-0.1,0-0.1l0,0.1
			c0-0.1,0.1,0,0.1,0c0,0,0-0.1,0-0.1c0,0,0,0,0,0c0,0-0.1-0.1-0.1-0.2c0-0.1,0.1,0,0.1-0.1c0.1-0.5,0.2-1,0.2-1.5c0,0,0,0,0,0
			c0-0.2,0-0.3,0-0.4c0,0,0.1,0,0.1-0.1C515.2,87.4,515.2,86.6,515.2,86.5z"/>
	</g>
	<g>
		<path class="st11" d="M471.3,95.7c0.1,0,0.1-0.1,0.1-0.1C471.3,95.6,471.3,95.6,471.3,95.7z"/>
		<polygon class="st11" points="471.4,95.5 471.4,95.5 471.4,95.5 		"/>
		<path class="st11" d="M467.6,85.3C467.6,85.3,467.6,85.4,467.6,85.3C467.6,85.4,467.6,85.3,467.6,85.3z"/>
		<path class="st11" d="M471.7,92.9l-0.1,0c0-0.1,0.2,0,0.1-0.2c-0.2,0,0-0.2-0.1-0.2c0,0,0-0.1,0.1-0.1c-0.1,0,0-0.1-0.1-0.1
			c0,0,0,0-0.1,0l0-0.1c0,0,0.1,0,0.1,0c0-0.2,0.2-1.3,0.1-1.5c-0.1,0,0,0.1-0.2,0.1c-0.1-0.1,0-0.1,0-0.1c0.2,0,0-0.1,0.2-0.2
			l-0.1,0l0.1,0c-0.1-0.3-0.1-0.1,0-0.3c0-0.1-0.2-0.2-0.1-0.3c0,0-0.1,0-0.1,0c0.1,0-0.1-0.1,0-0.1c0,0,0-0.1-0.1-0.1
			c0.1,0,0.1-0.1,0.1-0.1c0,0,0-0.1,0-0.1l0,0c0-0.1,0.1-0.2,0-0.3l0,0c0-0.1,0-0.1,0.1-0.2l0,0.1c0-0.1,0-0.2-0.1-0.3l0,0
			c-0.1-0.1-0.3-0.8-0.4-0.9l-0.1,0.1l-0.1-0.1c0,0,0.3,0,0.3,0c0-0.2-0.1-1.3-0.1-1.5c0.1-0.1,0.2,0,0.2,0c0-0.1-0.1,0-0.1-0.1
			c0,0,0.1,0,0.1,0c0,0,0-0.1,0-0.1c0,0-0.2,0-0.2,0.1l0-0.1l0.1,0c0,0-0.2-0.1-0.2-0.2c0-0.2,0-0.4,0-0.5c0,0,0.1,0,0.1,0.1
			c0,0,0-0.1,0-0.1c-0.1,0-0.1-0.1-0.1,0c-0.2-0.1,0-0.3-0.2-0.4c-0.2,0-2.9-0.1-3.1-0.1c0,0,0-0.1,0-0.1c0,0-0.1,0.1,0,0.1l0.1,0
			c0,0.1-0.1,0-0.1,0.1c-0.1,0-0.1-0.1-0.1-0.1c0,0.1-0.1,0.1,0,0.1c0,0.1-0.1,0-0.1,0.1c0,0,0.1,0.1,0.1,0.2l0,0
			c-0.1,0.1,0.1,0.2,0.1,0.3l0,0c0,0,0,0.1,0,0.2c0,0,0.1,0,0.1,0c-0.1,0.1,0,0.1-0.1,0.2l0.1,0.1c0,0.3,0.1,1.5,0.2,1.8l0,0
			c0.1,0.5,0.1,1.4,0.2,1.9c-0.1,0.1-0.1,0.2-0.1,0.3c0,0,0.1,0,0.1,0c0,0.2,0.1,0,0.1,0.3c0.1,0.3,0,1.3-0.1,1.5
			c0.1,0.1,0,0.3,0.1,0.4l0,0c0,0.1-0.1,0.9,0,1.1l0,0c0.1,0.1-0.1,0.1-0.1,0.2c0.1,0,0.2,0.1,0.2,0.2l0,0c0,0.1,0.1,0.2,0.2,0.3
			l-0.1,0c0.1,0.1,0,0.3,0.1,0.3c0,0.2-0.2,0.4-0.1,0.6l-0.2,0.1l0,0c0,0,2.6,0.4,3.2,0.1l0.1,0l0-0.1c0-0.1,0-0.1,0-0.1l0,0.1
			c0-0.1,0.1,0,0.1,0c0,0,0-0.1,0-0.1c0,0,0,0,0,0c0,0-0.1-0.1-0.1-0.1c0-0.1,0.1,0,0.1-0.1c0.1-0.4,0.2-0.8,0.2-1.3c0,0,0,0,0,0
			c0-0.1,0-0.2,0-0.4c0,0,0.1,0,0.1,0C471.7,93.6,471.7,92.9,471.7,92.9z"/>
	</g>
	<g>
		<path class="st11" d="M492.8,103.5c0.1,0,0.1-0.1,0.1-0.2C492.9,103.4,492.8,103.5,492.8,103.5z"/>
		<polygon class="st11" points="492.9,103.4 492.9,103.4 492.9,103.4 		"/>
		<path class="st11" d="M489,90.6C489,90.6,489,90.6,489,90.6C489,90.6,489,90.6,489,90.6z"/>
		<path class="st11" d="M493.3,100.1l-0.1,0c0-0.2,0.2,0,0.1-0.2c-0.2-0.1,0-0.2-0.1-0.3c0,0,0-0.1,0.1-0.1c-0.1,0,0-0.1-0.1-0.1
			c0,0,0,0-0.1,0l0-0.1c0,0,0.1-0.1,0.1,0c0-0.3,0.1-1.6,0.1-1.9c-0.1,0,0,0.1-0.2,0.2c-0.1-0.1,0-0.1,0-0.1c0.2,0,0-0.2,0.2-0.2
			l-0.1,0l0.1,0c-0.1-0.3-0.1-0.1,0-0.4c0-0.2-0.2-0.3-0.1-0.4c0,0-0.1,0.1-0.1,0c0.1,0-0.1-0.1,0-0.1c0,0,0-0.2-0.1-0.1
			c0.1,0,0.1-0.2,0.1-0.1c0,0,0-0.1,0-0.1l0,0.1c0-0.1,0.1-0.2,0-0.3l0,0.1c0-0.1,0-0.2,0.1-0.2l0,0.1c0-0.1,0-0.2-0.1-0.4l0,0
			c-0.1-0.2-0.3-1-0.4-1.1l-0.1,0.1l-0.1-0.1c0,0,0.3,0,0.3,0.1c0-0.3-0.2-1.6-0.1-1.9c0-0.1,0.2,0,0.2,0c0-0.1-0.1,0-0.1-0.1
			c0,0,0.1,0,0.1,0c0,0,0-0.1,0-0.1c0,0.1-0.2,0-0.2,0.1l0-0.1l0.1,0c0,0-0.2-0.1-0.2-0.2c0-0.2,0-0.5,0-0.7c0,0,0.1,0,0.1,0.1
			c0,0,0-0.1,0-0.1c-0.1,0.1-0.1-0.1-0.1,0c-0.2-0.1,0-0.4-0.2-0.5c-0.2,0-2.9,0-3.1,0c0,0,0-0.1,0-0.1c0,0-0.1,0.1,0,0.1l0.1,0
			c0,0.1-0.1,0,0,0.1c-0.1,0-0.1-0.1-0.1-0.2c0,0.1-0.1,0.1,0,0.2c0,0.1-0.1,0-0.1,0.1c0,0.1,0.1,0.1,0.1,0.2l0,0
			c-0.1,0.2,0.2,0.2,0.1,0.4l0,0c0,0.1,0,0.2,0,0.2c0,0,0.1-0.1,0.1,0c0,0.1,0,0.2,0,0.3l0.1,0.1c0,0.4,0.3,1.8,0.3,2.2l0,0
			c0.1,0.6,0.1,1.8,0.2,2.4c-0.1,0.1-0.1,0.2-0.1,0.3c0-0.1,0.1,0,0.1,0c0,0.3,0.1,0,0.1,0.3c0.1,0.3,0,1.7-0.1,2
			c0.1,0.2,0,0.4,0.1,0.5l0,0c0,0.2-0.1,1.2,0,1.3l0,0c0.1,0.2-0.1,0.1-0.1,0.3c0.1,0,0.2,0.1,0.2,0.2l0,0c0,0.1,0.1,0.3,0.1,0.4
			l-0.1,0c0.1,0.1,0,0.3,0,0.4c0,0.2-0.2,0.5-0.1,0.8l-0.2,0.2l0,0c0,0,2.6,0.4,3.2,0.1l0.1,0l0-0.1c0-0.1,0-0.1,0-0.1l0,0.1
			c0-0.1,0.1,0,0.1,0c0,0,0-0.1,0-0.1c0,0,0,0,0,0c0,0-0.1-0.1-0.1-0.2c0-0.1,0.1,0,0.1-0.1c0.1-0.5,0.2-1.1,0.2-1.6c0,0,0,0,0,0
			c0-0.2,0-0.3,0-0.5c0,0,0.1-0.1,0.1-0.1C493.3,100.9,493.3,100.1,493.3,100.1z"/>
	</g>
	<g>
		<path class="st11" d="M494.4,139.9c0.1,0,0.1-0.1,0.1-0.2C494.4,139.7,494.4,139.8,494.4,139.9z"/>
		<polygon class="st11" points="494.5,139.7 494.5,139.7 494.5,139.7 		"/>
		<path class="st11" d="M490.5,126.9C490.5,126.9,490.5,126.9,490.5,126.9C490.5,126.9,490.5,126.9,490.5,126.9z"/>
		<path class="st11" d="M494.8,136.4l-0.1,0c0-0.2,0.2,0,0.1-0.2c-0.2-0.1,0-0.2-0.1-0.3c0,0,0-0.1,0.1-0.1c-0.1,0,0-0.1-0.1-0.1
			c0,0,0,0-0.1,0l0-0.1c0,0,0.1-0.1,0.1,0c0-0.3,0.1-1.6,0.1-1.9c-0.1,0,0,0.1-0.2,0.2c-0.1-0.1,0-0.1,0-0.1c0.2,0,0-0.2,0.2-0.2
			l-0.1,0l0.1,0c-0.1-0.3-0.1-0.1,0-0.4c0-0.2-0.2-0.3-0.1-0.4c0,0-0.1,0.1-0.1,0c0.1,0-0.1-0.1,0-0.1c0,0,0-0.2-0.1-0.1
			c0.1,0,0.1-0.2,0.1-0.1c0,0,0-0.1,0-0.1l0,0.1c0-0.1,0.1-0.2,0-0.3l0,0.1c0-0.1,0-0.2,0.1-0.2l0,0.1c0-0.1,0-0.2-0.1-0.4l0,0
			c-0.1-0.2-0.3-1-0.4-1.1l-0.1,0.1l-0.1-0.1c0,0,0.3,0,0.3,0.1c0-0.3-0.2-1.6-0.1-1.9c0-0.1,0.2,0,0.2,0c0-0.1-0.1,0-0.1-0.1
			c0,0,0.1,0,0.1,0c0,0,0-0.1,0-0.1c0,0.1-0.2,0-0.2,0.1l0-0.1l0.1,0c0,0-0.2-0.1-0.2-0.2c0-0.2,0-0.5,0-0.7c0,0,0.1,0,0.1,0.1
			c0,0,0-0.1,0-0.1c-0.1,0.1-0.1-0.1-0.1,0c-0.2-0.1,0-0.4-0.2-0.5c-0.2,0-2.9,0-3.1,0c0,0,0-0.1,0-0.1c0,0-0.1,0.1,0,0.1l0.1,0
			c0,0.1-0.1,0,0,0.1c-0.1,0-0.1-0.1-0.1-0.2c0,0.1-0.1,0.1,0,0.2c0,0.1-0.1,0-0.1,0.1c0,0.1,0.1,0.1,0.1,0.2l0,0
			c-0.1,0.2,0.2,0.2,0.1,0.4l0,0c0,0.1,0,0.2,0,0.2c0,0,0.1-0.1,0.1,0c0,0.1,0,0.2,0,0.3l0.1,0.1c0,0.4,0.3,1.8,0.3,2.2l0,0
			c0.1,0.6,0.1,1.8,0.2,2.4c-0.1,0.1-0.1,0.2-0.1,0.3c0-0.1,0.1,0,0.1,0c0,0.3,0.1,0,0.1,0.3c0.1,0.3,0,1.7-0.1,2
			c0.1,0.2,0,0.4,0.1,0.5l0,0c0,0.2-0.1,1.2,0,1.3l0,0c0.1,0.2-0.1,0.1-0.1,0.3c0.1,0,0.2,0.1,0.2,0.2l0,0c0,0.1,0.1,0.3,0.1,0.4
			l-0.1,0c0.1,0.1,0,0.3,0,0.4c0,0.2-0.2,0.5-0.1,0.8l-0.2,0.2l0,0c0,0,2.6,0.4,3.2,0.1l0.1,0l0-0.1c0-0.1,0-0.1,0-0.1l0,0.1
			c0-0.1,0.1,0,0.1,0c0,0,0-0.1,0-0.1c0,0,0,0,0,0c0,0-0.1-0.1-0.1-0.2c0-0.1,0.1,0,0.1-0.1c0.1-0.5,0.2-1.1,0.2-1.6c0,0,0,0,0,0
			c0-0.2,0-0.3,0-0.5c0,0,0.1-0.1,0.1-0.1C494.8,137.3,494.8,136.4,494.8,136.4z"/>
	</g>
	<g>
		<path class="st11" d="M514.8,134.5c0.1,0,0.1-0.1,0.1-0.2C514.8,134.4,514.8,134.5,514.8,134.5z"/>
		<polygon class="st11" points="514.9,134.3 514.9,134.3 514.9,134.3 		"/>
		<path class="st11" d="M510.9,121.6C510.9,121.6,510.9,121.6,510.9,121.6C511,121.6,511,121.6,510.9,121.6z"/>
		<path class="st11" d="M515.3,131.1l-0.1,0c0-0.2,0.2,0,0.1-0.2c-0.2-0.1,0-0.2-0.1-0.3c0,0,0-0.1,0.1-0.1c-0.1,0,0-0.1-0.1-0.1
			c0,0,0,0-0.1,0l0-0.1c0,0,0.1-0.1,0.1,0c0-0.3,0.1-1.6,0.1-1.9c-0.1,0,0,0.1-0.2,0.2c-0.1-0.1,0-0.1,0-0.1c0.2,0,0-0.2,0.2-0.2
			l-0.1,0l0.1,0c-0.1-0.3-0.1-0.1,0-0.4c0-0.2-0.2-0.3-0.1-0.4c0,0-0.1,0.1-0.1,0c0.1,0-0.1-0.1,0-0.1c0,0,0-0.2-0.1-0.1
			c0.1,0,0.1-0.2,0.1-0.1c0,0,0-0.1,0-0.1l0,0.1c0-0.1,0.1-0.2,0-0.3l0,0.1c0-0.1,0-0.2,0.1-0.2l0,0.1c0-0.1,0-0.2-0.1-0.4l0,0
			c-0.1-0.2-0.3-1-0.4-1.1l-0.1,0.1l-0.1-0.1c0,0,0.3,0,0.3,0.1c0-0.3-0.2-1.6-0.1-1.9c0-0.1,0.2,0,0.2,0c0-0.1-0.1,0-0.1-0.1
			c0,0,0.1,0,0.1,0c0,0,0-0.1,0-0.1c0,0.1-0.2,0-0.2,0.1l0-0.1l0.1,0c0,0-0.2-0.1-0.2-0.2c0-0.2,0-0.5,0-0.7c0,0,0.1,0,0.1,0.1
			c0,0,0-0.1,0-0.1c-0.1,0.1-0.1-0.1-0.1,0c-0.2-0.1,0-0.4-0.2-0.5c-0.2,0-2.9,0-3.1,0c0,0,0-0.1,0-0.1c0,0-0.1,0.1,0,0.1l0.1,0
			c0,0.1-0.1,0,0,0.1c-0.1,0-0.1-0.1-0.1-0.2c0,0.1-0.1,0.1,0,0.2c0,0.1-0.1,0-0.1,0.1c0,0.1,0.1,0.1,0.1,0.2l0,0
			c-0.1,0.2,0.2,0.2,0.1,0.4l0,0c0,0.1,0,0.2,0,0.2c0,0,0.1-0.1,0.1,0c0,0.1,0,0.2,0,0.3l0.1,0.1c0,0.4,0.3,1.8,0.3,2.2l0,0
			c0.1,0.6,0.1,1.8,0.2,2.4c-0.1,0.1-0.1,0.2-0.1,0.3c0-0.1,0.1,0,0.1,0c0,0.3,0.1,0,0.1,0.3c0.1,0.3,0,1.7-0.1,2
			c0.1,0.2,0,0.4,0.1,0.5l0,0c0,0.2-0.1,1.2,0,1.3l0,0c0.1,0.2-0.1,0.1-0.1,0.3c0.1,0,0.2,0.1,0.2,0.2l0,0c0,0.1,0.1,0.3,0.1,0.4
			l-0.1,0c0.1,0.1,0,0.3,0,0.4c0,0.2-0.2,0.5-0.1,0.8l-0.2,0.2l0,0c0,0,2.6,0.4,3.2,0.1l0.1,0l0-0.1c0-0.1,0-0.1,0-0.1l0,0.1
			c0-0.1,0.1,0,0.1,0c0,0,0-0.1,0-0.1c0,0,0,0,0,0c0,0-0.1-0.1-0.1-0.2c0-0.1,0.1,0,0.1-0.1c0.1-0.5,0.2-1.1,0.2-1.6c0,0,0,0,0,0
			c0-0.2,0-0.3,0-0.5c0,0,0.1-0.1,0.1-0.1C515.2,131.9,515.2,131.1,515.3,131.1z"/>
	</g>
	<g>
		<path class="st11" d="M501.9,121.8c0.1,0,0.1-0.1,0.1-0.2C501.9,121.7,501.9,121.8,501.9,121.8z"/>
		<polygon class="st11" points="502,121.6 502,121.6 502,121.7 		"/>
		<path class="st11" d="M498.7,108.7C498.7,108.7,498.7,108.7,498.7,108.7C498.7,108.7,498.7,108.7,498.7,108.7z"/>
		<path class="st11" d="M502.1,118.6l-0.1,0c0-0.2,0.2,0,0.1-0.2c-0.2-0.1,0-0.2-0.1-0.3c0,0,0-0.1,0.1-0.1c-0.1,0,0-0.1-0.1-0.1
			c0,0,0,0-0.1,0l0-0.1c0,0,0.1,0,0.1,0c0-0.3,0.2-1.5,0.1-1.8c-0.1,0,0,0.1-0.2,0.1c-0.1-0.1,0-0.1,0-0.1c0.2,0,0-0.2,0.2-0.2
			l-0.1,0l0.1,0c-0.1-0.3-0.1-0.1,0-0.4c0-0.2-0.1-0.3-0.1-0.3c0,0-0.1,0-0.1,0c0.1,0-0.1-0.1,0-0.1c0,0,0-0.2-0.1-0.1
			c0.1,0,0.1-0.1,0.1-0.1c0,0,0-0.1,0-0.1l0,0.1c0-0.1,0.1-0.2,0-0.3l-0.1,0c0-0.1,0-0.2,0.1-0.2l0,0.1c0-0.1,0-0.2-0.1-0.3l0,0
			c-0.1-0.2-0.2-0.9-0.3-1.1l-0.1,0.1l-0.1-0.1c0,0,0.3,0.1,0.3,0.1c0-0.3,0.1-1.6,0.2-1.8c0.1-0.1,0.2,0,0.2,0
			c0-0.1-0.1-0.1-0.1-0.2c0,0,0.1,0,0.1,0c0,0,0-0.1,0-0.1c0,0-0.2,0-0.2,0l0-0.1l0.1,0c0,0-0.2-0.1-0.1-0.2
			c0.1-0.2,0.1-0.4,0.1-0.6c0,0,0.1,0.1,0.1,0.1c0,0,0-0.1,0-0.1c-0.1,0,0-0.1-0.1-0.1c-0.2-0.2,0-0.4-0.1-0.5c-0.2,0-2.8-0.7-3-0.7
			c0,0,0-0.1,0-0.1c0,0-0.1,0.1-0.1,0.1l0.1,0c0,0.1-0.1,0-0.1,0.1c-0.1,0-0.1-0.1-0.1-0.2c0,0.1-0.1,0.1,0,0.2c0,0.1-0.1,0-0.2,0.1
			c0,0.1,0.1,0.2,0,0.2l0,0c-0.1,0.2,0.1,0.3,0,0.4l0,0c-0.1,0,0,0.2-0.1,0.3c0,0,0.1,0,0.1,0c-0.1,0.1,0,0.2-0.1,0.3l0.1,0.1
			c-0.1,0.4-0.1,2-0.1,2.4l0,0c0,0.6-0.1,1.9,0,2.5c-0.1,0.1-0.1,0.2-0.1,0.3c0-0.1,0.1,0,0.1,0c0,0.3,0.1,0,0.1,0.3
			c0.1,0.4,0,1.7-0.1,2.1c0.1,0.2,0,0.4,0.1,0.6l0,0c0,0.1,0,0.4,0,0.7c0,0.3,0,0.6,0,0.7l0,0c0.1,0.2,0,0.2-0.1,0.3
			c0.1,0,0.2,0.1,0.2,0.2l0,0c0,0.1,0.2,0.3,0.2,0.4l-0.1,0c0.1,0.1,0.1,0.4,0.1,0.4c0,0.2-0.1,0.5,0,0.8l-0.2,0.2l0,0
			c0,0,2.6,0,3.2-0.4l0.1,0l0-0.1c0-0.1-0.1-0.1,0-0.1l0,0.1c0-0.1,0.1,0,0.1,0c0,0,0-0.1,0-0.1c0,0,0,0,0,0c0,0-0.1-0.1-0.1-0.1
			c0-0.1,0.1,0,0.1-0.1c0-0.5,0.1-1,0-1.5c0,0,0,0,0,0c0-0.2,0-0.3-0.1-0.4c0,0,0.1-0.1,0.1-0.1C502.1,119.4,502,118.6,502.1,118.6z
			"/>
	</g>
	<g>
		<path class="st11" d="M503.2,92.9c0.1,0,0.1-0.1,0.1-0.1C503.3,92.8,503.2,92.8,503.2,92.9z"/>
		<polygon class="st11" points="503.4,92.8 503.4,92.8 503.4,92.8 		"/>
		<path class="st11" d="M500.3,81.9L500.3,81.9C500.3,81.9,500.3,81.9,500.3,81.9z"/>
		<path class="st11" d="M503.9,90.1l-0.1,0c0-0.1,0.2,0,0.1-0.2c-0.2-0.1,0-0.2-0.1-0.3c0,0,0-0.1,0.1,0c-0.1,0,0-0.1,0-0.1
			c0,0,0,0-0.1,0l0-0.1c0,0,0.1,0,0.1,0c0.1-0.2,0.3-1.3,0.3-1.6c-0.1,0,0,0.1-0.2,0.1c-0.1-0.1,0-0.1,0-0.1c0.2,0,0.1-0.1,0.3-0.2
			l-0.1,0l0.1,0c-0.1-0.3,0-0.1,0-0.3c0-0.2-0.1-0.2-0.1-0.3c0,0-0.1,0-0.1,0c0.1,0-0.1-0.1,0-0.1c0,0,0-0.2-0.1-0.1
			c0.1,0,0.1-0.1,0.2-0.1c0,0,0-0.1,0-0.1l0,0c0-0.1,0.1-0.2,0-0.3l-0.1,0c0-0.1,0-0.1,0.1-0.2l0,0.1c0-0.1,0-0.2-0.1-0.3l0,0
			c-0.1-0.1-0.2-0.9-0.3-1l-0.1,0.1l-0.1-0.1c0,0,0.3,0.1,0.3,0.1c0-0.1,0-0.5,0-0.8c0-0.4,0-0.7,0-0.9c0.1-0.1,0.2,0,0.2,0
			c0-0.1-0.1,0-0.1-0.1c0,0,0.1,0,0.1,0c0,0,0-0.1,0-0.1c0,0.1-0.2,0-0.2,0.1l0-0.1l0.1,0c0,0-0.2-0.1-0.2-0.2c0-0.2,0-0.4,0-0.6
			c0,0,0.1,0,0.1,0.1c0,0,0-0.1,0-0.1c-0.1,0.1-0.1-0.1-0.1,0c-0.2-0.1-0.1-0.4-0.2-0.5c-0.2,0-2.9,0.2-3.1,0.2c0,0,0-0.1,0-0.1
			c0,0-0.1,0.1,0,0.1l0.1,0c0,0.1-0.1,0,0,0.1c-0.1,0-0.1,0-0.1-0.1c0,0.1-0.1,0.1,0,0.1c0,0.1-0.1,0-0.1,0.1c0,0,0.1,0.1,0.1,0.1
			l0,0c-0.1,0.1,0.2,0.2,0.1,0.3l0,0c0,0,0,0.1,0,0.2c0,0,0.1,0,0.1,0c0,0.1,0,0.1-0.1,0.2l0.1,0.1c0,0.3,0.1,1.5,0.1,1.8l0,0
			c0,0.5-0.1,1.5,0,2c-0.1,0.1-0.1,0.2-0.1,0.3c0,0,0.1,0,0.1,0c0,0.3,0.1,0,0.1,0.3c0,0.3-0.2,1.4-0.3,1.7c0.1,0.2,0,0.3,0.1,0.5
			l0,0c0,0.2-0.2,1-0.2,1.2l0,0c0.1,0.2-0.1,0.1-0.1,0.2c0.1,0,0.2,0.1,0.2,0.2l0,0c0,0.1,0.1,0.3,0.1,0.4l-0.1,0
			c0.1,0.1,0,0.3,0,0.4c0,0.2-0.2,0.4-0.1,0.7l-0.2,0.1l0,0c0,0,0.7,0.1,1.4,0.2c0.7,0.1,1.5,0.1,1.8,0l0.1,0l0-0.1
			c0-0.1,0-0.1,0-0.1l0,0.1c0-0.1,0.1,0,0.1,0c0,0,0-0.1,0-0.1c0,0,0,0-0.1,0c0,0-0.1-0.1-0.1-0.1c0-0.1,0.1,0,0.1-0.1
			c0.1-0.4,0.2-0.8,0.3-1.3c0,0,0,0,0,0c0-0.1,0-0.3,0-0.4c0,0,0.1,0,0.1,0C503.8,90.8,503.9,90.1,503.9,90.1z"/>
	</g>
	<g>
		<path class="st11" d="M465.8,139.8c0.1,0,0.1-0.1,0.1-0.1C465.8,139.7,465.8,139.7,465.8,139.8z"/>
		<polygon class="st11" points="465.9,139.7 465.9,139.7 465.9,139.7 		"/>
		<path class="st11" d="M462.9,128.8L462.9,128.8C462.9,128.8,462.9,128.8,462.9,128.8z"/>
		<path class="st11" d="M466.4,137l-0.1,0c0-0.1,0.2,0,0.1-0.2c-0.2-0.1,0-0.2-0.1-0.3c0,0,0-0.1,0.1,0c-0.1,0,0-0.1,0-0.1
			c0,0,0,0-0.1,0l0-0.1c0,0,0.1,0,0.1,0c0.1-0.2,0.3-1.3,0.3-1.6c-0.1,0,0,0.1-0.2,0.1c-0.1-0.1,0-0.1,0-0.1c0.2,0,0.1-0.1,0.3-0.2
			l-0.1,0l0.1,0c-0.1-0.3,0-0.1,0-0.3c0-0.2-0.1-0.2-0.1-0.3c0,0-0.1,0-0.1,0c0.1,0-0.1-0.1,0-0.1c0,0,0-0.2-0.1-0.1
			c0.1,0,0.1-0.1,0.2-0.1c0,0,0-0.1,0-0.1l0,0c0-0.1,0.1-0.2,0-0.3l-0.1,0c0-0.1,0-0.1,0.1-0.2l0,0.1c0-0.1,0-0.2-0.1-0.3l0,0
			c-0.1-0.1-0.2-0.9-0.3-1l-0.1,0.1l-0.1-0.1c0,0,0.3,0.1,0.3,0.1c0-0.1,0-0.5,0-0.8c0-0.4,0-0.7,0-0.9c0.1-0.1,0.2,0,0.2,0
			c0-0.1-0.1,0-0.1-0.1c0,0,0.1,0,0.1,0c0,0,0-0.1,0-0.1c0,0.1-0.2,0-0.2,0.1l0-0.1l0.1,0c0,0-0.2-0.1-0.2-0.2c0-0.2,0-0.4,0-0.6
			c0,0,0.1,0,0.1,0.1c0,0,0-0.1,0-0.1c-0.1,0.1-0.1-0.1-0.1,0c-0.2-0.1-0.1-0.4-0.2-0.5c-0.2,0-2.9,0.2-3.1,0.2c0,0,0-0.1,0-0.1
			c0,0-0.1,0.1,0,0.1l0.1,0c0,0.1-0.1,0,0,0.1c-0.1,0-0.1,0-0.1-0.1c0,0.1-0.1,0.1,0,0.1c0,0.1-0.1,0-0.1,0.1c0,0,0.1,0.1,0.1,0.1
			l0,0c-0.1,0.1,0.1,0.2,0.1,0.3l0,0c0,0,0,0.1,0,0.2c0,0,0.1,0,0.1,0c0,0.1,0,0.1-0.1,0.2l0.1,0.1c0,0.3,0.1,1.5,0.1,1.8l0,0
			c0,0.5-0.1,1.5,0,2c-0.1,0.1-0.1,0.2-0.1,0.3c0,0,0.1,0,0.1,0c0,0.3,0.1,0,0.1,0.3c0,0.3-0.2,1.4-0.3,1.7c0.1,0.2,0,0.3,0.1,0.5
			l0,0c0,0.2-0.2,1-0.2,1.2l0,0c0.1,0.2-0.1,0.1-0.1,0.2c0.1,0,0.2,0.1,0.2,0.2l0,0c0,0.1,0.1,0.3,0.1,0.4l-0.1,0
			c0.1,0.1,0,0.3,0,0.4c0,0.2-0.2,0.4-0.1,0.7l-0.2,0.1l0,0c0,0,0.7,0.1,1.4,0.2c0.7,0.1,1.5,0.1,1.8,0l0.1,0l0-0.1
			c0-0.1,0-0.1,0-0.1l0,0.1c0-0.1,0.1,0,0.1,0c0,0,0-0.1,0-0.1c0,0,0,0,0,0c0,0-0.1-0.1-0.1-0.1c0-0.1,0.1,0,0.1-0.1
			c0.1-0.4,0.2-0.8,0.3-1.3c0,0,0,0,0,0c0-0.1,0-0.3,0-0.4c0,0,0.1,0,0.1,0C466.3,137.7,466.4,137,466.4,137z"/>
	</g>
	<g>
		<path class="st11" d="M511.2,111.8c0.1,0,0.1-0.1,0.1-0.2C511.2,111.7,511.2,111.7,511.2,111.8z"/>
		<polygon class="st11" points="511.3,111.6 511.3,111.6 511.3,111.6 		"/>
		<path class="st11" d="M507.3,99.1C507.3,99.2,507.3,99.2,507.3,99.1C507.3,99.2,507.3,99.2,507.3,99.1z"/>
		<path class="st11" d="M511.5,108.5l-0.1,0c0-0.2,0.2,0,0.1-0.2c-0.2-0.1,0-0.2-0.1-0.3c0,0,0-0.1,0.1-0.1c-0.1,0,0-0.1-0.1-0.1
			c0,0,0,0-0.1,0l0-0.1c0,0,0.1-0.1,0.1,0c0-0.3,0.1-1.5,0-1.8c-0.1,0,0,0.1-0.1,0.2c-0.1-0.1,0-0.1-0.1-0.1c0.2,0,0-0.2,0.2-0.2
			l-0.1,0l0.1,0c-0.1-0.3-0.1-0.1,0-0.4c0-0.2-0.2-0.2-0.1-0.3c0,0-0.1,0.1-0.1,0c0.1,0-0.1-0.1,0-0.1c0,0,0-0.2-0.1-0.1
			c0.1,0,0.1-0.1,0.1-0.1c0,0,0-0.1,0-0.1l0,0.1c0-0.1,0.1-0.2,0-0.3l-0.1,0.1c0-0.1,0-0.2,0.1-0.2l0,0.1c0-0.1,0-0.2-0.1-0.3l0,0
			c-0.1-0.1-0.2-0.9-0.4-1.1l-0.1,0.1l-0.1-0.1c0,0,0.3,0,0.3,0.1c0-0.3-0.1-1.6-0.1-1.8c0.1-0.1,0.2,0,0.2,0c0-0.1-0.1,0-0.1-0.1
			c0,0,0.1,0,0.1,0c0,0,0-0.1,0-0.1c0,0.1-0.2,0-0.2,0.1l0-0.1l0.1,0c0,0-0.2-0.1-0.2-0.2c0-0.2,0-0.4,0-0.6c0,0,0.1,0,0.1,0.1
			c0,0,0-0.1,0-0.1c-0.1,0.1-0.1-0.1-0.1,0c-0.2-0.1,0-0.4-0.2-0.5c-0.2,0-2.9-0.2-3.1-0.2c0,0,0-0.1,0-0.1c0,0-0.1,0.1,0,0.1l0.1,0
			c0,0.1-0.1,0-0.1,0.1c-0.1,0-0.1-0.1-0.1-0.2c0,0.1-0.1,0.1,0,0.2c0,0.1-0.1,0-0.1,0.1c0,0.1,0.1,0.1,0.1,0.2l0,0
			c-0.1,0.2,0.1,0.2,0.1,0.4l0,0c0,0.1,0,0.2,0,0.2c0,0,0.1-0.1,0.1,0c-0.1,0.1,0,0.2-0.1,0.3l0.1,0.1c0,0.4,0.1,1.9,0.2,2.2l0,0
			c0.1,0.6,0.1,1.8,0.2,2.3c-0.1,0.1-0.1,0.2-0.1,0.3c0-0.1,0.1,0,0.1,0c0,0.3,0.1,0,0.1,0.3c0.1,0.3,0,1.6,0,1.9
			c0.1,0.2,0,0.4,0.1,0.5l0,0c0.1,0.2,0,1.1,0,1.3l0,0c0.1,0.2-0.1,0.1-0.1,0.3c0.1,0,0.2,0.1,0.2,0.2l0,0c0,0.1,0.2,0.3,0.2,0.4
			l-0.1,0c0.1,0.1,0.1,0.3,0.1,0.4c0,0.2-0.2,0.5,0,0.8l-0.2,0.2l0,0c0,0,2.7,0.2,3.2-0.1l0.1,0l0-0.1c0-0.1-0.1-0.1,0-0.1l0,0.1
			c0-0.1,0.1,0,0.1,0c0,0,0-0.1,0-0.1c0,0,0,0,0,0c0,0-0.1-0.1-0.1-0.2c0-0.1,0.1,0,0.1-0.1c0-0.5,0.1-1,0.1-1.5c0,0,0,0,0,0
			c0-0.2,0-0.3-0.1-0.4c0,0,0.1-0.1,0.1-0.1C511.5,109.3,511.5,108.5,511.5,108.5z"/>
	</g>
</g>
<path class="st11" d="M139.7,130.6c3.3-1.3,7.3-0.8,12.1,1.5c4.8,2.3,10.6,6.3,11.2,12.1c0.7,5.7-3.7,13.1-9.4,14.9
	c-5.6,1.8-12.5-2.1-16.5-6.5c-4-4.4-5.1-9.3-4.3-13.4C133.6,135.2,136.4,132,139.7,130.6z"/>
<g>
	<g>
		<g>
			<path class="st11" d="M207,356c-20.6,0-37.3-16.7-37.3-37.3c0-20.6,16.7-37.3,37.3-37.3s37.3,16.7,37.3,37.3
				C244.2,339.3,227.5,356,207,356z M207,282.7c-19.9,0-36,16.2-36,36c0,19.9,16.2,36,36,36s36-16.2,36-36
				C243,298.9,226.8,282.7,207,282.7z"/>
		</g>
		<g>
			<path class="st11" d="M207,352c-18.3,0-33.2-14.9-33.2-33.2c0-18.3,14.9-33.2,33.2-33.2s33.2,14.9,33.2,33.2
				C240.2,337.1,225.3,352,207,352z M207,286.8c-17.6,0-32,14.3-32,32c0,17.6,14.3,32,32,32s32-14.3,32-32
				C238.9,301.2,224.6,286.8,207,286.8z"/>
		</g>
		<g>
			<path class="st11" d="M207,347.9c-16.1,0-29.1-13.1-29.1-29.1c0-16.1,13.1-29.1,29.1-29.1s29.1,13.1,29.1,29.1
				C236.1,334.8,223,347.9,207,347.9z M207,290.9c-15.4,0-27.9,12.5-27.9,27.9c0,15.4,12.5,27.9,27.9,27.9s27.9-12.5,27.9-27.9
				C234.9,303.4,222.3,290.9,207,290.9z"/>
		</g>
		<g>
			<path class="st11" d="M207,343.8c-13.8,0-25.1-11.2-25.1-25.1c0-13.8,11.2-25.1,25.1-25.1c13.8,0,25.1,11.2,25.1,25.1
				C232,332.6,220.8,343.8,207,343.8z M207,295c-13.1,0-23.8,10.7-23.8,23.8c0,13.1,10.7,23.8,23.8,23.8s23.8-10.7,23.8-23.8
				C230.8,305.6,220.1,295,207,295z"/>
		</g>
		<g>
			<path class="st11" d="M207,339.8c-11.6,0-21-9.4-21-21c0-11.6,9.4-21,21-21s21,9.4,21,21C228,330.3,218.5,339.8,207,339.8z
				 M207,299c-10.9,0-19.7,8.9-19.7,19.7c0,10.9,8.9,19.7,19.7,19.7c10.9,0,19.7-8.9,19.7-19.7C226.7,307.9,217.9,299,207,299z"/>
		</g>
		<g>
			<path class="st11" d="M207,335.7c-9.3,0-16.9-7.6-16.9-16.9c0-9.3,7.6-16.9,16.9-16.9s16.9,7.6,16.9,16.9
				C223.9,328.1,216.3,335.7,207,335.7z M207,303.1c-8.6,0-15.7,7-15.7,15.7c0,8.6,7,15.7,15.7,15.7s15.7-7,15.7-15.7
				C222.6,310.1,215.6,303.1,207,303.1z"/>
		</g>
	</g>
</g>
<rect x="-450.1" y="9" class="st12" width="429.2" height="302.8"/>
</svg>
