<svg xmlns="http://www.w3.org/2000/svg" viewBox="0 0 831.92 593.48"><defs><style>.cls-1{fill:#f8f8fa;}.cls-2{fill:#ebebeb;}.cls-3{fill:#dedee0;}.cls-14,.cls-4{fill:#fff;}.cls-5{fill:#dbdbdb;}.cls-6{fill:#c7c7c7;}.cls-7{fill:#2960e3;}.cls-8{fill:#263238;}.cls-9{fill:#222629;}.cls-10{fill:#3a434d;}.cls-11{fill:#a6a6a6;}.cls-12{fill:#455a64;}.cls-13{fill:#37474f;}.cls-14{fill-rule:evenodd;}.cls-15{fill:#e55934;}</style></defs><g id="Calque_2" data-name="Calque 2"><g id="Calque_1-2" data-name="Calque 1"><g id="Groupe_de_masques_60" data-name="Groupe de masques 60"><path id="Tracé_5621" data-name="Tracé 5621" class="cls-1" d="M817.44,264.38,564.2,10.78a36.87,36.87,0,0,0-52.1,0h0l-70,70.12a36.87,36.87,0,0,1-52.1,0L320,10.78a36.89,36.89,0,0,0-52.1,0L14.49,264.38a49.62,49.62,0,0,0,0,70.09L258.85,579a49.42,49.42,0,0,0,69.92,0h0l61.06-61.14a36.85,36.85,0,0,1,52.1,0L503.14,579a49.42,49.42,0,0,0,69.92,0h0l244.38-244.5a49.57,49.57,0,0,0,0-70h0ZM267.77,447.84,145.6,325.52a37,37,0,0,1,0-52.17l122.17-122.3a36.83,36.83,0,0,1,52.1,0h0a37,37,0,0,1,0,52.17l-61,61.16a49.56,49.56,0,0,0,0,70h0l61.06,61.14a36.94,36.94,0,0,1,0,52.16h0A36.85,36.85,0,0,1,267.77,447.84ZM442.08,273.31h0a37,37,0,0,1,0,52.17h0a36.83,36.83,0,0,1-52.1,0h0a36.94,36.94,0,0,1,0-52.17h0A36.83,36.83,0,0,1,442.08,273.31Zm131.06,61.18a49.63,49.63,0,0,0,0-70.11l-61.06-61.16a36.94,36.94,0,0,1,0-52.17h0a36.85,36.85,0,0,1,52.1,0L686.35,273.37a37,37,0,0,1,0,52.17L564.2,447.84a36.85,36.85,0,0,1-52.1,0h0a37,37,0,0,1,0-52.17Z"/></g><g id="freepik--background-complete--inject-96"><path class="cls-2" d="M165.71,305.19a362.66,362.66,0,0,0-.52-38.31,488.75,488.75,0,0,0-12-78c-3.35-14.45-7.47-28.65-11.77-42.83-.12-.43-.81-.31-.69.14,13.28,50,24.17,101.6,23.42,153.58-.21,14.55-1.89,28.84-3.27,43.29,0,.39.6.54.69.14C164.31,330.78,165.2,317.82,165.71,305.19Z"/><path class="cls-3" d="M140.73,146.14s-20.12,51.06-15.61,63.06,13.79,14.56,13.79,14.56-12.31,17.53-3.71,34.06,27.71,15.7,29,34.39C164.18,292.21,165.25,214.07,140.73,146.14Z"/><path class="cls-4" d="M162,259.94a.42.42,0,0,0,0-.27C159.17,225,153,190.34,142.48,157c0-.1-.19-.07-.16,0q6,22.41,10.56,45a22.23,22.23,0,0,0-9.6-5.35,0,0,0,0,0-.05.05.05.05,0,0,0,.05,0c3.72,1.61,7.28,3.47,9.91,6.63.59,3,1.17,5.92,1.71,8.88-4.49-5-10.73-7.52-17-9.89-.08,0-.13.11,0,.14,6.49,2.65,13,6,17.37,11.65q2.29,12.72,4,25.51a24.3,24.3,0,0,0-12-6.87c-.14,0-.22.17-.07.21a25.26,25.26,0,0,1,12.16,7.79l.08.06q.6,4.5,1.13,9a30.77,30.77,0,0,0-8.4-5.07.06.06,0,0,0,0,.09l0,0a28.71,28.71,0,0,1,8.42,5.57.15.15,0,0,1,.11.05c.33,2.86.67,5.72,1,8.58A40.73,40.73,0,0,0,144.64,247a.11.11,0,0,0-.13.09.11.11,0,0,0,.05.11,44.56,44.56,0,0,1,16.82,12.94.37.37,0,0,0,.42.14q.66,6.58,1.15,13.2c0,.06.1.07.1,0Q162.54,266.7,162,259.94Z"/><path class="cls-4" d="M145.83,191.61c-3.49-2.39-7.92-3.42-12.09-3.76a.08.08,0,1,0,0,.15c4.33.64,8,2.21,11.95,3.9C145.83,192,146,191.72,145.83,191.61Z"/><path class="cls-4" d="M148.27,245.68a25.27,25.27,0,0,0-9.07-3.11.09.09,0,1,0,0,.17,33.92,33.92,0,0,1,9,3.15.14.14,0,0,0,.11-.13A.12.12,0,0,0,148.27,245.68Z"/><path class="cls-2" d="M218.6,210a136.4,136.4,0,0,0-23.29,20.36A83.4,83.4,0,0,0,179,258.08a206.85,206.85,0,0,0-12.15,66.21,160.28,160.28,0,0,0,3.59,37.25.35.35,0,0,0,.41.28.36.36,0,0,0,.28-.41h0a208.48,208.48,0,0,1,.37-65.11c3.46-21.12,8.88-44.1,22.31-61.27,7.31-9.35,16.43-16.7,25.44-24.3C219.69,210.35,219.09,209.69,218.6,210Z"/><path class="cls-3" d="M169.83,309.1a124.69,124.69,0,0,1,17-21.69c10.07-10.06,18.54-17.21,19.85-23.87S196.6,252,196.6,252s13.93,2.5,17.74-3.35S220,209,220,209,194.65,227,182.85,252.39,169.83,309.1,169.83,309.1Z"/><path class="cls-4" d="M211.14,217.62c-10.66,10.47-21.39,21.63-27.67,35.39a133.3,133.3,0,0,0-5.59,14.59h0c-.32,1-.65,2-1,3a.3.3,0,0,0,0,.16A285.66,285.66,0,0,0,169.64,302c0,.06.08.1.1,0,1.09-5.28,2.29-10.62,3.64-15.93h.15a21.85,21.85,0,0,1,6.65-1.69c.15,0,.14-.28,0-.27a24.56,24.56,0,0,0-6.58,1.2c1.23-4.8,2.56-9.58,4.06-14.29a69.58,69.58,0,0,1,15-2m0-.09a56.87,56.87,0,0,0-14.72,1.32c.26-.81.53-1.61.8-2.42a75.1,75.1,0,0,1,10-1.69c.06,0,.06-.11,0-.11a48.09,48.09,0,0,0-9.79,1.19c1.37-4.08,2.86-8.1,4.52-12a70.22,70.22,0,0,1,4.78-9.29,60.13,60.13,0,0,1,8.11-1.44c.08,0,.07-.13,0-.14a21.79,21.79,0,0,0-7.58.75c1.33-2.15,2.73-4.26,4.23-6.3h0c5.68-1.26,11.44-2.43,17.26-1.34a.09.09,0,1,0,0-.17c-5.53-1.46-11-.62-16.53.47.6-.8,1.22-1.59,1.84-2.37a37.44,37.44,0,0,1,10.61-1.67.06.06,0,0,0,.06-.06.06.06,0,0,0-.06-.06,27.48,27.48,0,0,0-9.89.88c4.69-5.83,9.88-11.31,15-16.74.28-.26.09-.4-.16-.16Z"/><path class="cls-4" d="M210.83,240.7a23.24,23.24,0,0,0-5-.18c-.2,0-.19.36,0,.36,1.67,0,3.33-.07,5,0a.1.1,0,0,0,0-.14A.08.08,0,0,0,210.83,240.7Z"/><path class="cls-4" d="M192.62,273.54a22.69,22.69,0,0,0-7.81,1.57c-.06,0,0,.12,0,.11,2.58-.62,5.19-.87,7.79-1.3a.2.2,0,0,0,.2-.18A.19.19,0,0,0,192.62,273.54Z"/><path class="cls-4" d="M187.16,262.19a16.74,16.74,0,0,0-3.32.3c-.11,0-.1.2,0,.2a16.76,16.76,0,0,0,3.32-.15C187.36,262.5,187.35,262.2,187.16,262.19Z"/><path class="cls-2" d="M95.51,246a114.85,114.85,0,0,1,23.55,11.09,70.2,70.2,0,0,1,19.61,18.64,174.25,174.25,0,0,1,25.16,50.78,135.54,135.54,0,0,1,5.7,31,.3.3,0,0,1-.35.24.31.31,0,0,1-.24-.24,176,176,0,0,0-15.34-52.61c-7.68-16.29-17.39-33.63-32.22-44.42-8.08-5.88-17.16-9.72-26.21-13.79C94.7,246.46,95,245.79,95.51,246Z"/><path class="cls-3" d="M157.92,314.85a105.47,105.47,0,0,0-18.75-13.64c-10.47-5.81-19-9.64-21.58-14.72s5.48-11.68,5.48-11.68-10.69,5.24-15.12,1.39S94.2,245.38,94.2,245.38s24.68,8.78,40.1,26.58S157.92,314.85,157.92,314.85Z"/><path class="cls-4" d="M156.63,309.29c-12.35-23.18-28.8-44.14-51.39-58h0a113.11,113.11,0,0,1,16.51,13,26.07,26.07,0,0,0-13.27,2.8.07.07,0,0,0,0,.11.09.09,0,0,0,.07,0,36.37,36.37,0,0,1,13.66-2.31.39.39,0,0,0,.15-.06c.81.76,1.6,1.53,2.38,2.31a41.23,41.23,0,0,0-7.09.94,0,0,0,0,0,0,.05.05.05,0,0,0,0,0,36.2,36.2,0,0,1,7.49-.62,155.9,155.9,0,0,1,11.7,13.19,11.73,11.73,0,0,0-5,.36.09.09,0,0,0-.07.12.12.12,0,0,0,.07.07,25.28,25.28,0,0,1,5.29-.07c.68.86,1.36,1.71,2,2.58a48,48,0,0,0-15,1.46c-.07,0-.05.13,0,.12a59.73,59.73,0,0,1,15.39-1c.63.83,1.23,1.69,1.84,2.54a31.91,31.91,0,0,0-8.92,1,.09.09,0,0,0-.12.05.1.1,0,0,0,.06.12h.06a33.65,33.65,0,0,1,9.23-.71c2.66,3.65,5.2,7.39,7.65,11.18a8.14,8.14,0,0,0-3.92.24,0,0,0,0,0,0,.05.05.05,0,0,0,0,.05h0a16.75,16.75,0,0,1,4.24.2q3.3,5.13,6.36,10.36C156.32,309.81,156.83,309.59,156.63,309.29Z"/><path class="cls-4" d="M137.43,290.06a19.38,19.38,0,0,0-7.18.88c-.06,0,0,.12,0,.11a53.32,53.32,0,0,1,7.14-.73C137.56,290.29,137.59,290.08,137.43,290.06Z"/><path class="cls-4" d="M115.89,261.82a11.76,11.76,0,0,0-3.3.2.09.09,0,0,0-.07.12.12.12,0,0,0,.07.07c1.09-.11,2.16-.07,3.25-.11A.14.14,0,0,0,116,262,.13.13,0,0,0,115.89,261.82Z"/><polygon class="cls-5" points="189.76 391.48 134.03 391.48 141.98 333.28 144.01 318.36 179.78 318.36 181.81 333.28 189.76 391.48"/><polygon class="cls-6" points="181.81 333.28 141.98 333.28 144.01 318.36 179.78 318.36 181.81 333.28"/><rect class="cls-5" x="138.89" y="313.18" width="46" height="12.64"/><g id="freepik--aiZGp2--inject-96"><path class="cls-3" d="M613.74,125.94A68,68,0,0,0,609.13,147H590.48v-.51l.15-1.43a50.77,50.77,0,0,1,1.2-7.37A55.94,55.94,0,0,1,596,126.21a.41.41,0,0,1,.45-.27h17.31Z"/><path class="cls-3" d="M613.18,173H596a.4.4,0,0,1-.42-.27,52.25,52.25,0,0,1-4.25-13,48.43,48.43,0,0,1-.84-6.56.36.36,0,0,0,0-.22v-.52h18.35c.33,0,.32,0,.34.34.12,1.49.22,3,.36,4.49a56.43,56.43,0,0,0,1.15,7.06,64.82,64.82,0,0,0,2.43,8.39A1,1,0,0,0,613.18,173Z"/><path class="cls-3" d="M685.26,178.43c0,.1-.1.18-.14.25a52.84,52.84,0,0,1-4.86,6.3,48.1,48.1,0,0,1-7.12,6.56,51.54,51.54,0,0,1-8.11,5,50.72,50.72,0,0,1-8.57,3.34,56.33,56.33,0,0,1-7.14,1.52l-.7.12h-.41l-.38-.23.46-.32a55,55,0,0,0,13.54-13.12,63.15,63.15,0,0,0,5.53-9.16.38.38,0,0,1,.42-.27h17.48Z"/><path class="cls-3" d="M668.12,147H644V126h18.79a.34.34,0,0,1,.37.25A57.79,57.79,0,0,1,667,138.57a62.2,62.2,0,0,1,.93,6.67C668,145.78,668.07,146.37,668.12,147Z"/><path class="cls-3" d="M668,152.61a10.41,10.41,0,0,1-.07,1.48c-.1,1.17-.19,2.35-.35,3.51-.23,1.61-.47,3.23-.8,4.83a57.55,57.55,0,0,1-3.12,10.26.41.41,0,0,1-.44.31H643.9V152.61Z"/><path class="cls-3" d="M638.61,126.08v21.07H615.1a13.66,13.66,0,0,1,.11-1.58c.12-1.18.21-2.36.4-3.53.29-1.78.59-3.57,1-5.34A54.3,54.3,0,0,1,620,126.29a.37.37,0,0,1,.4-.26h18.23Z"/><path class="cls-3" d="M638.64,152.89V173H619.83a.39.39,0,0,1-.42-.28,54,54,0,0,1-3.2-10.61c-.35-1.87-.62-3.76-.85-5.65-.16-1.23-.2-2.48-.28-3.73a.28.28,0,0,1,0-.13h23.23C638.58,152.58,638.64,152.65,638.64,152.89Z"/><path class="cls-3" d="M693.65,147.14H673.92a68.49,68.49,0,0,0-4.6-21.2h18.39a.4.4,0,0,1,.43.26,52,52,0,0,1,4.55,13.19,59.11,59.11,0,0,1,1,7.39Z"/><path class="cls-3" d="M693.66,152.45a10.39,10.39,0,0,1-.06,1.38c-.13,1.78-.35,3.55-.65,5.31A51.73,51.73,0,0,1,689.32,171c-.26.61-.56,1.21-.83,1.82a.28.28,0,0,1-.29.19H669.83c.22-.63.44-1.24.65-1.86a65.72,65.72,0,0,0,3.29-16.76c0-.57.07-1.14.09-1.7,0-.15,0-.23.21-.21h.18Z"/><path class="cls-3" d="M684.72,120.57v.09H667.21a.4.4,0,0,1-.42-.25,58.91,58.91,0,0,0-8.56-12.69,48.32,48.32,0,0,0-6.57-6.06c-1.18-.9-2.4-1.75-3.6-2.62l-.2-.15.24-.17a1.55,1.55,0,0,0-.12-.37,51.49,51.49,0,0,1,36.74,22.22Z"/><path class="cls-3" d="M635.27,201.29a2.09,2.09,0,0,1-.5.08,48.49,48.49,0,0,1-5.62-1.09,50.84,50.84,0,0,1-20.21-10.41,48.71,48.71,0,0,1-6.13-6.14,52,52,0,0,1-3.83-5.3.65.65,0,0,1-.08-.17h16.35a.39.39,0,0,1,.4.26,62.55,62.55,0,0,0,5.91,9.62,61.31,61.31,0,0,0,6.92,7.67,52.71,52.71,0,0,0,6.66,5.35Z"/><path class="cls-3" d="M635.06,98.86c-.74.54-1.6,1.15-2.44,1.79a60.07,60.07,0,0,0-7.79,7.25,54.29,54.29,0,0,0-8.17,11.65c-.14.27-.26.55-.42.8a.42.42,0,0,1-.25.16H599.42c8.75-12.35,20.5-19.78,35.46-22,0,.07-.07.14-.11.2Z"/><path class="cls-3" d="M660.93,178.44a56.84,56.84,0,0,1-8,10.76,50.24,50.24,0,0,1-9.08,7.7V178.44Z"/><path class="cls-3" d="M638.61,178.45v18.1a52.27,52.27,0,0,1-16.34-18.1Z"/><path class="cls-3" d="M660.4,120.5H644V103.29a50.36,50.36,0,0,1,9.18,7.69A58.38,58.38,0,0,1,660.4,120.5Z"/><path class="cls-3" d="M638.61,103.78v16.86h-15.7A49.61,49.61,0,0,1,638.61,103.78Z"/></g><path class="cls-3" d="M327.07,190.29H189.64v-89.5H327.07Zm-136.43-1H326.07v-87.5H190.64Z"/><path class="cls-3" d="M327.07,113.55H189.64V100.79H327.07Zm-136.43-1H326.07V101.79H190.64Z"/><path class="cls-6" d="M201.18,107.29a3,3,0,1,1-3-3A3,3,0,0,1,201.18,107.29Z"/><path class="cls-2" d="M213.25,107.29a3,3,0,1,1-3-3h.05a3,3,0,0,1,2.95,2.95Z"/><path class="cls-7" d="M225.33,107.29a3,3,0,1,1-3-3A3,3,0,0,1,225.33,107.29Z"/></g><g id="freepik--Shadow--inject-96"><ellipse class="cls-3" cx="417.83" cy="445.83" rx="328.77" ry="41.32"/></g><g id="freepik--Floor--inject-96"><polygon class="cls-8" points="93.55 391.48 174.62 391.24 255.69 391.15 417.83 390.98 579.97 391.15 661.04 391.24 742.11 391.48 661.04 391.73 579.97 391.81 417.83 391.98 255.69 391.81 174.62 391.72 93.55 391.48"/></g><g id="freepik--Computer--inject-96"><rect class="cls-5" x="223.36" y="145.73" width="388.19" height="259.67"/><rect class="cls-9" x="226.18" y="148.9" width="382.55" height="253.33"/><rect class="cls-6" x="172.8" y="424.87" width="489.31" height="17.82"/><polygon class="cls-5" points="172.8 424.87 223.36 405.4 611.55 405.4 662.11 424.87 172.8 424.87"/><polygon class="cls-8" points="227.88 417.97 260.51 405.4 574.41 405.4 607.04 417.97 227.88 417.97"/><rect class="cls-4" x="247.8" y="168.15" width="339.31" height="214.84"/><rect class="cls-10" x="247.52" y="168.15" width="339.6" height="8.27"/><path class="cls-6" d="M254.09,172.29a2.05,2.05,0,1,1-2.05-2h.05A2,2,0,0,1,254.09,172.29Z"/><path class="cls-4" d="M262.46,172.29a2.05,2.05,0,1,1-2-2h0A2,2,0,0,1,262.46,172.29Z"/><path class="cls-7" d="M270.83,172.29a2.05,2.05,0,1,1-2.05-2,2.05,2.05,0,0,1,2.05,2Z"/><rect class="cls-2" x="264.1" y="193.79" width="131.95" height="92.41"/><path class="cls-5" d="M279.52,220.06a10.93,10.93,0,1,0,10.93-10.93,10.93,10.93,0,0,0-10.93,10.93Z"/><polygon class="cls-6" points="322.67 266.29 396.06 266.29 359.36 216.56 322.67 266.29"/><polygon class="cls-5" points="293.93 266.34 354.51 266.34 324.22 233.95 293.93 266.34"/><rect class="cls-5" x="264.1" y="266.29" width="131.95" height="19.91"/><rect class="cls-2" x="414.82" y="298.58" width="73.73" height="66.71"/><path class="cls-5" d="M424.35,313.16a7.9,7.9,0,1,0,9.29-6.2,7.66,7.66,0,0,0-3.09,0A7.89,7.89,0,0,0,424.35,313.16Z"/><polygon class="cls-6" points="435.58 350.91 488.56 350.91 462.07 315.01 435.58 350.91"/><polygon class="cls-5" points="414.83 350.94 458.57 350.94 436.7 327.56 414.83 350.94"/><rect class="cls-5" x="414.83" y="350.91" width="73.73" height="14.37"/><rect class="cls-11" x="414.83" y="193.8" width="118.27" height="5.97"/><rect class="cls-5" x="414.83" y="206.15" width="143.99" height="5.97"/><rect class="cls-5" x="414.83" y="218.5" width="143.99" height="5.97"/><rect class="cls-5" x="414.83" y="230.86" width="143.99" height="5.97"/><rect class="cls-5" x="414.83" y="243.21" width="143.99" height="5.97"/><rect class="cls-5" x="414.83" y="255.56" width="95.59" height="5.97"/><rect class="cls-11" x="495.13" y="298.57" width="52.31" height="5.88"/><rect class="cls-5" x="495.13" y="310.74" width="63.68" height="5.88"/><rect class="cls-5" x="495.13" y="322.91" width="63.68" height="5.88"/><rect class="cls-5" x="495.13" y="335.07" width="63.68" height="5.88"/><rect class="cls-5" x="495.13" y="347.24" width="63.68" height="5.88"/><rect class="cls-5" x="495.13" y="359.41" width="43.22" height="5.88"/><rect class="cls-7" x="414.83" y="268.66" width="143.99" height="17.54"/><rect class="cls-11" x="264.1" y="298.57" width="131.95" height="17.54"/><rect class="cls-5" x="264.1" y="322.5" width="131.95" height="5.93"/><rect class="cls-5" x="264.1" y="334.78" width="131.95" height="5.93"/><rect class="cls-5" x="264.1" y="347.07" width="131.95" height="5.93"/><rect class="cls-5" x="264.1" y="359.35" width="90.41" height="5.93"/><rect class="cls-5" x="578.04" y="176.41" width="9.07" height="206.57"/><path class="cls-11" d="M582.57,284.52h0a2.34,2.34,0,0,1-2.34-2.34h0V180.8a2.33,2.33,0,0,1,2.34-2.34h0a2.34,2.34,0,0,1,2.34,2.34h0V282.18a2.34,2.34,0,0,1-2.34,2.34Z"/></g><g id="freepik--Tablet--inject-96"><path class="cls-10" d="M377.89,284.29V430.87a11.94,11.94,0,0,1-12,11.82H135.49a11.93,11.93,0,0,1-12-11.82V284.29a11.91,11.91,0,0,1,12-11.81H365.83a11.92,11.92,0,0,1,12.06,11.77Z"/><rect class="cls-4" x="141.43" y="279.63" width="218.99" height="155.68"/><rect class="cls-2" x="154.46" y="290.48" width="97.15" height="68.03"/><path class="cls-5" d="M165.83,309.83a8,8,0,1,0,0-.05Z"/><polygon class="cls-6" points="197.58 343.86 251.61 343.86 224.59 307.25 197.58 343.86"/><polygon class="cls-5" points="176.42 343.89 221.02 343.89 198.72 320.05 176.42 343.89"/><rect class="cls-5" x="154.46" y="343.86" width="97.15" height="14.66"/><rect class="cls-2" x="282.43" y="377.66" width="64.96" height="45.49"/><path class="cls-5" d="M290,390.6a5.39,5.39,0,1,0,5.4-5.38h0a5.37,5.37,0,0,0-5.39,5.37Z"/><polygon class="cls-6" points="311.27 413.35 347.39 413.35 329.33 388.87 311.27 413.35"/><polygon class="cls-5" points="297.12 413.38 326.94 413.38 312.03 397.43 297.12 413.38"/><rect class="cls-5" x="282.43" y="413.36" width="64.96" height="9.8"/><rect class="cls-7" x="259.99" y="290.49" width="87.41" height="16.62"/><rect class="cls-5" x="259.99" y="313.42" width="87.41" height="2.33"/><rect class="cls-5" x="259.99" y="318.89" width="87.41" height="2.33"/><rect class="cls-5" x="259.99" y="324.36" width="87.41" height="2.33"/><rect class="cls-5" x="259.99" y="329.83" width="87.41" height="2.33"/><rect class="cls-5" x="259.99" y="335.3" width="87.41" height="2.33"/><rect class="cls-5" x="259.99" y="340.77" width="87.41" height="2.33"/><rect class="cls-5" x="259.99" y="346.24" width="50.25" height="2.33"/><rect class="cls-5" x="185.78" y="410.49" width="87.41" height="2.33"/><rect class="cls-5" x="185.78" y="377.67" width="87.41" height="2.33"/><rect class="cls-5" x="185.78" y="383.14" width="87.41" height="2.33"/><rect class="cls-5" x="185.78" y="388.61" width="87.41" height="2.33"/><rect class="cls-5" x="185.78" y="394.08" width="59.61" height="2.33"/><rect class="cls-5" x="185.78" y="405.02" width="87.41" height="2.33"/><rect class="cls-5" x="185.78" y="415.96" width="59.61" height="2.33"/><rect class="cls-12" x="154.46" y="366.11" width="192.94" height="5.5"/><rect class="cls-7" x="154.46" y="377.67" width="24.98" height="45.49"/><rect class="cls-13" x="132.63" y="339.05" width="2.65" height="37.05" rx="1.25"/><path class="cls-9" d="M374.83,357.57a4.8,4.8,0,1,1-4.81-4.79h0A4.8,4.8,0,0,1,374.83,357.57Z"/></g><g id="freepik--Mobile--inject-96"><path class="cls-10" d="M696.94,241.09H607.83a9.09,9.09,0,0,0-9,9.18v183.4a9.11,9.11,0,0,0,9,9.18h89.09a9.12,9.12,0,0,0,9-9.18V250.29A9.1,9.1,0,0,0,696.94,241.09ZM700.33,428c0,4.83-3.62,8.73-8.08,8.73h-79.7c-4.47,0-8.08-3.9-8.08-8.73V257.22c0-9.83,3.61-10.31,8.08-10.31h16c.93,0,1.69,1,1.69,2.36v.56c0,3.07,1.68,3.08,3.74,3.08h36.85c2.07,0,3.73,0,3.73-3.08v-.54c0-1.31.75-2.36,1.7-2.36h16c4.46,0,8.08,1.31,8.08,10.31Z"/><path class="cls-4" d="M657.43,249.08H647.36a.62.62,0,0,1-.62-.62h0a.61.61,0,0,1,.62-.62h10.07a.63.63,0,0,1,.63.62h0A.64.64,0,0,1,657.43,249.08Z"/><path class="cls-4" d="M700.33,257.22V428c0,4.83-3.62,8.73-8.08,8.73h-79.7c-4.47,0-8.08-3.9-8.08-8.73V257.22c0-9.83,3.61-10.31,8.08-10.31h16c.93,0,1.69,1,1.69,2.36v.56c0,3.07,1.68,3.08,3.74,3.08h36.85c2.07,0,3.73,0,3.73-3.08v-.54c0-1.31.75-2.36,1.7-2.36h16C696.71,246.91,700.33,248.22,700.33,257.22Z"/><path class="cls-7" d="M700.33,257.22V270H604.46V257.22c0-9.83,3.62-10.31,8.09-10.31h16c.92,0,1.68,1,1.68,2.36v.56c0,3.07,1.68,3.08,3.73,3.08h36.87c2.07,0,3.74,0,3.74-3.08v-.54c0-1.31.75-2.36,1.69-2.36h16C696.71,246.91,700.33,248.22,700.33,257.22Z"/><polygon class="cls-4" points="613.55 263.74 610.72 261.09 613.55 258.44 613.99 258.9 611.66 261.09 613.99 263.28 613.55 263.74"/><path class="cls-4" d="M691.68,264h-2v-.69a.1.1,0,0,0-.06-.09l-.22-.13a.11.11,0,0,0-.11,0l-.61.36-1-1.73.61-.35a.11.11,0,0,0,0-.11V261a.11.11,0,0,0,0-.11l-.61-.35,1-1.73.61.35a.11.11,0,0,0,.11,0l.22-.13a.11.11,0,0,0,.06-.09v-.71h2v.71a.1.1,0,0,0,.06.09l.22.13a.11.11,0,0,0,.11,0l.61-.35,1,1.73-.61.35a.08.08,0,0,0,0,.11v.24a.08.08,0,0,0,0,.11l.61.35-1,1.73-.61-.35a.11.11,0,0,0-.11,0l-.22.13a.09.09,0,0,0-.06.09Zm-1.5-.5h1v-.19a.6.6,0,0,1,.33-.54l.17-.1a.61.61,0,0,1,.64,0l.18.11.5-.87-.18-.11a.58.58,0,0,1-.3-.55V261a.58.58,0,0,1,.3-.56l.18-.1-.5-.87-.18.11a.64.64,0,0,1-.63,0l-.18-.1a.63.63,0,0,1-.33-.54v-.21h-1V259a.65.65,0,0,1-.33.54.59.59,0,0,0-.17.1.66.66,0,0,1-.64,0l-.18-.11-.5.87.18.1a.62.62,0,0,1,.3.56v.2a.64.64,0,0,1-.3.56l-.18.1.5.87.18-.11a.61.61,0,0,1,.64,0l.17.1a.62.62,0,0,1,.33.54Zm.5-.91a1.48,1.48,0,1,1,1.48-1.48h0A1.5,1.5,0,0,1,690.68,262.57Zm0-2.46a1,1,0,0,0,0,2,1,1,0,0,0,0-2Z"/><g id="freepik--u5Zjqx--inject-96"><path class="cls-4" d="M625.76,250.74l-.15.16-.09.09a2.09,2.09,0,0,0-3,0l0,0-.08-.09-.15-.15h0a1,1,0,0,1,.19-.17,1.65,1.65,0,0,1,.45-.29,2.12,2.12,0,0,1,.6-.2h.76a2.2,2.2,0,0,1,.55.13,2.53,2.53,0,0,1,.37.18,1.61,1.61,0,0,1,.36.24l.16.15Z"/><path class="cls-4" d="M623,251.47l-.24-.24a1.74,1.74,0,0,1,2.47,0h0l-.24.25a1.42,1.42,0,0,0-2,0Z"/><path class="cls-4" d="M624.83,251.71l-.24.25a.7.7,0,0,0-1,0h0l-.24-.25A1,1,0,0,1,624.83,251.71Z"/><path class="cls-4" d="M624.25,252.18a.22.22,0,0,1-.44,0A.22.22,0,0,1,624,252h0a.21.21,0,0,1,.22.2Z"/></g><path class="cls-4" d="M610.72,251.21a.63.63,0,0,1,.63-.63h0a.64.64,0,1,1,0,1.27h0A.64.64,0,0,1,610.72,251.21Z"/><path class="cls-4" d="M612.72,251.21a.63.63,0,0,1,.63-.63h0a.64.64,0,1,1,0,1.27h0A.64.64,0,0,1,612.72,251.21Z"/><path class="cls-4" d="M614.72,251.21a.64.64,0,0,1,.71-.56.66.66,0,0,1,.56.56.64.64,0,0,1-.56.71.63.63,0,0,1-.71-.55A.43.43,0,0,1,614.72,251.21Z"/><path class="cls-4" d="M616.72,251.21a.64.64,0,1,1,1.28,0,.64.64,0,0,1-.64.64.64.64,0,0,1-.64-.64Z"/><path class="cls-4" d="M618.72,251.21a.64.64,0,0,1,.64-.63.63.63,0,0,1,.63.63h0a.64.64,0,1,1-1.27,0Z"/><path class="cls-4" d="M693.13,252.59H688v-2.38h5.16Zm-4.91-.25h4.66v-1.88h-4.66Z"/><rect class="cls-4" x="688.39" y="250.61" width="3.33" height="1.58"/><rect class="cls-4" x="693.14" y="250.76" width="0.46" height="1.28"/><polygon class="cls-2" points="619.03 426.29 618.3 426.29 618.3 429.64 616.94 429.64 616.94 427.93 614.53 427.93 614.53 429.64 613.17 429.64 613.17 426.29 612.44 426.29 615.74 422.89 619.03 426.29"/><rect class="cls-2" x="684.42" y="422.89" width="7.95" height="1.14"/><rect class="cls-2" x="684.42" y="425.69" width="7.95" height="1.14"/><rect class="cls-2" x="684.42" y="428.5" width="7.95" height="1.14"/><path class="cls-5" d="M618.88,286.73a5.36,5.36,0,1,1,1.73-1.74A5.34,5.34,0,0,1,618.88,286.73Z"/><path class="cls-4" d="M617.69,281.57a1.63,1.63,0,1,1-1.63-1.63h0A1.63,1.63,0,0,1,617.69,281.57Z"/><path class="cls-4" d="M618.88,286.06v.67a5.34,5.34,0,0,1-5.63,0v-.67a2.82,2.82,0,0,1,5.63,0Z"/><rect class="cls-2" x="628.12" y="277.14" width="34" height="2.8"/><rect class="cls-2" x="628.12" y="281.81" width="29.68" height="1.86"/><rect class="cls-2" x="628.12" y="285.39" width="49.07" height="1.86"/><rect class="cls-2" x="604.47" y="291.96" width="95.86" height="67.12"/><path class="cls-5" d="M615.67,311a7.94,7.94,0,1,0,7.94-7.94,7.94,7.94,0,0,0-7.94,7.94Z"/><polygon class="cls-6" points="647.03 344.62 700.33 344.62 673.68 308.49 647.03 344.62"/><polygon class="cls-5" points="626.13 344.65 670.14 344.65 648.13 321.13 626.13 344.65"/><rect class="cls-5" x="604.47" y="344.62" width="95.86" height="14.46"/><path class="cls-5" d="M618.88,394.47a5.36,5.36,0,1,1,1.73-1.74A5.34,5.34,0,0,1,618.88,394.47Z"/><circle class="cls-4" cx="616.07" cy="389.31" r="1.63"/><path class="cls-4" d="M618.88,393.8v.67a5.34,5.34,0,0,1-5.63,0v-.67a2.82,2.82,0,0,1,5.63,0Z"/><rect class="cls-2" x="628.12" y="384.88" width="43.72" height="2.8"/><rect class="cls-2" x="628.12" y="389.55" width="55.82" height="1.86"/><rect class="cls-2" x="628.12" y="393.13" width="19.01" height="1.86"/><rect class="cls-2" x="604.47" y="399.7" width="95.84" height="16.39"/><path class="cls-5" d="M631.08,416.1H616.14a7.93,7.93,0,0,1,14.94,0Z"/><path class="cls-2" d="M610.91,366.94a3.17,3.17,0,1,1,3.83,2.33,3.16,3.16,0,0,1-3.83-2.33Z"/><g id="freepik--xsrjP0--inject-96"><path class="cls-14" d="M613.56,367.45c-.09-.05-.16-.13-.27-.12s0,0,0-.05V366a0,0,0,0,1,0-.07c.32-.16.46-.48.66-.76a1.32,1.32,0,0,0,.23-1c0-.09,0-.13.12-.15a.19.19,0,0,1,.24.07,1.75,1.75,0,0,1,.18.56,1.85,1.85,0,0,1,0,.47,2.17,2.17,0,0,1-.07.35c0,.12.06,0,.09,0h1.07c.15,0,.23,0,.25.14a.31.31,0,0,1-.16.31s-.07,0-.07.05,0,0,.07,0a.31.31,0,0,1,0,.38c-.1.11-.1,0-.1.06s.06,0,.09.08a.24.24,0,0,1,0,.33l-.06,0h-.07V367a.21.21,0,0,1,.1.28.24.24,0,0,1-.1.1h0a.31.31,0,0,1-.19,0h-1.68a.19.19,0,0,1-.22.13A.15.15,0,0,1,613.56,367.45Z"/><path class="cls-14" d="M612,366.71v-.81s0-.08.08-.08h1c.06,0,.07,0,.07.08v1.62c0,.07,0,.09-.09.09h-.95c-.08,0-.09,0-.09-.1S612,367,612,366.71Z"/></g><path class="cls-7" d="M617.57,366.94a3.17,3.17,0,1,1,3.84,2.33,3.16,3.16,0,0,1-3.84-2.33Z"/><path class="cls-4" d="M622.27,366.59a1.63,1.63,0,0,1-1.63,1.61,1.61,1.61,0,0,1-1.61-1.61,1.28,1.28,0,0,1,.33-1.78.51.51,0,0,1,.16-.09c.9-.27,1.13,1.3,1.13,1.3s.23-1.57,1.14-1.3C622.42,364.91,622.67,365.78,622.27,366.59Z"/><rect class="cls-2" x="628.65" y="365.78" width="45.03" height="1.83"/><polygon class="cls-2" points="604.47 376.71 616.45 376.53 628.43 376.43 652.39 376.34 676.35 376.43 688.33 376.53 700.31 376.71 688.33 376.9 676.35 377 652.39 377.09 628.43 377 616.45 376.9 604.47 376.71"/></g><path class="cls-15" d="M728.06,327.44c2.81,5.33,2.66,12-.25,20.48s-8.59,18.8-18.06,20.92-22.6-3.8-26.6-12.93,1.19-21.32,7.75-28.77,14.61-10.21,21.51-9.57A19.88,19.88,0,0,1,728.06,327.44Z"/><path class="cls-15" d="M507.89,158.5a.17.17,0,0,0,.09-.17A.18.18,0,0,0,507.89,158.5Z"/><polygon class="cls-15" points="507.99 158.32 507.98 158.32 507.98 158.32 507.99 158.32"/><path class="cls-15" d="M504,145.88v0Z"/><path class="cls-15" d="M508,155.31h-.14c0-.15.16-.05.12-.19-.2,0,0-.23-.09-.27s0-.07.08-.06c-.11,0,0-.07-.06-.11s0,0-.06,0l0-.09s.09-.06.1,0a10.21,10.21,0,0,0,0-1.75c-.08,0,0,.12-.14.15s0-.11-.06-.14c.19,0,0-.16.23-.22h-.11l.07,0c-.11-.32-.06-.07,0-.36s-.17-.24-.11-.33-.07.05-.09,0-.07-.11,0-.13,0-.18-.12-.13c.06,0,.09-.15.14-.08s0-.08,0-.1l0,.05c0-.14.08-.22,0-.31l-.05.06c0-.09,0-.16.1-.19l0,.09a.65.65,0,0,0-.07-.34v0c-.12-.14-.23-.91-.38-1l-.1.06-.08-.12s.31.06.28.07a11.58,11.58,0,0,1,0-1.77c.06-.09.16,0,.18,0s-.11,0-.09-.14.07,0,.09,0,0-.08,0-.08-.16,0-.24,0v-.12h.08s-.21-.07-.16-.19,0-.43,0-.63c0,0,.07.05.09.09s0-.07,0-.09,0-.09-.08-.05c-.19-.16,0-.35-.13-.49s-2.89-.45-3.09-.47c0,0,0-.08,0-.09s-.07.09-.05.13l.11,0c0,.1-.07,0-.06.12s-.11-.1-.11-.18c0,.08-.08.15,0,.18s-.1,0-.14.07.1.14.05.21h0c-.1.16.12.26,0,.41l0,0c-.05,0,0,.16-.05.25s.09,0,.09,0,0,.18-.07.26l.08.08c0,.39,0,1.91,0,2.29h0c0,.59,0,1.79.15,2.4-.09.1-.07.22-.09.32s.09,0,.09,0c0,.3.06,0,.1.32a8.82,8.82,0,0,1,0,2c.13.17.05.38.13.54l0,0a4,4,0,0,1,0,.67,3.92,3.92,0,0,0,0,.71l0,0c.09.17,0,.16-.07.31.13,0,.23.11.25.17h0a1.82,1.82,0,0,1,.21.42h-.08c.1.11.09.34.1.43a1.59,1.59,0,0,0,0,.78l-.2.2,0,0s2.64-.09,3.17-.5h.08l0-.06c0-.09-.06-.11,0-.12v.11c0-.08.06,0,.1,0a.18.18,0,0,1,0-.09s0,0,0,0-.11-.09-.08-.14.12,0,.12-.12a8.9,8.9,0,0,0,0-1.46s0,0,0,0c-.05-.14-.05-.28-.09-.41a.18.18,0,0,1,.1-.06C508,156.11,507.94,155.33,508,155.31Z"/><path class="cls-15" d="M517.73,118.29c.08,0,.08-.11.09-.17S517.71,118.23,517.73,118.29Z"/><polygon class="cls-15" points="517.82 118.11 517.82 118.11 517.82 118.12 517.82 118.11"/><path class="cls-15" d="M513.85,105.67v0S513.86,105.69,513.85,105.67Z"/><path class="cls-15" d="M517.79,115.1h-.13c0-.15.15,0,.11-.19s0-.23-.09-.27,0-.07.08-.07c-.11,0,0-.06-.06-.11s0,0-.06,0l0-.1s.09,0,.11,0a12.74,12.74,0,0,0,0-1.75c-.08,0,0,.12-.15.15s0-.11-.06-.14c.19,0,0-.16.23-.21l-.11,0,.07,0c-.11-.32-.06-.07,0-.36s-.16-.24-.11-.33-.07,0-.09,0-.07-.11,0-.13,0-.18-.13-.13c.06,0,.09-.15.14-.08s0-.08,0-.11l0,.06c0-.14.08-.22,0-.31l-.05,0c0-.08,0-.15.11-.18l0,.08a.76.76,0,0,0-.08-.33v0c-.12-.14-.22-.91-.38-1l-.1.06-.08-.11s.32.06.28.07a10.42,10.42,0,0,1,0-1.77c0-.09.15,0,.17,0s-.1,0-.09-.14.07,0,.09,0,0-.08,0-.09-.16,0-.24,0v-.12h.08s-.21-.07-.16-.19,0-.43.05-.63c0,0,.07,0,.1.09s0-.07,0-.09-.05-.09-.08,0c-.18-.16,0-.35-.13-.49s-2.89-.45-3.09-.47a.3.3,0,0,1,0-.09c-.05,0-.07.09-.05.13l.11,0c0,.1-.06,0-.06.12s-.1-.09-.11-.18c0,.08-.08.15,0,.18s-.11,0-.15.07.1.14,0,.21h0c-.09.16.13.26,0,.41l0,0s0,.16,0,.25.09,0,.1,0,0,.19-.08.27l.08.08c0,.38,0,1.91.05,2.29h0c0,.59,0,1.79.15,2.4-.09.09-.07.22-.09.32,0,0,.1,0,.09,0,0,.3.06,0,.1.32a8.82,8.82,0,0,1,0,2c.13.16,0,.38.13.54l0,0a4,4,0,0,1,0,.68,3.63,3.63,0,0,0,0,.7v0c.1.17,0,.16-.07.3.14,0,.23.12.25.18h0a2.78,2.78,0,0,1,.2.42h-.07a.88.88,0,0,1,.09.43,1.49,1.49,0,0,0,0,.78l-.21.2,0,0s2.65-.09,3.17-.5h.08l0-.07c0-.08-.06-.1,0-.11v.11c0-.08.06,0,.11,0a.16.16,0,0,1,0-.09s0,0-.05,0-.11-.09-.08-.14.13,0,.13-.12a10.16,10.16,0,0,0,0-1.46s0,0,0,0c0-.14,0-.28-.09-.41a.26.26,0,0,1,.11-.07C517.82,115.9,517.77,115.12,517.79,115.1Z"/><path class="cls-15" d="M517.71,168c.08,0,.09-.09.11-.15S517.7,167.89,517.71,168Z"/><polygon class="cls-15" points="517.82 167.8 517.82 167.8 517.82 167.8 517.82 167.8"/><path class="cls-15" d="M514.42,156.41v.05A.09.09,0,0,0,514.42,156.41Z"/><path class="cls-15" d="M518.14,165l-.14,0c0-.14.16,0,.13-.16-.19-.06,0-.21-.08-.26s0-.06.09-.06c-.11,0,0-.06,0-.1s0,0-.07,0l0-.1s.1,0,.11,0a9.66,9.66,0,0,0,.13-1.62c-.08,0,0,.1-.16.13s0-.1,0-.13c.19,0,.05-.14.24-.19l-.11,0,.07,0c-.1-.29-.05-.07,0-.32s-.16-.22-.1-.3-.07,0-.09,0-.07-.1,0-.12,0-.16-.12-.12c.06,0,.09-.13.14-.06s0-.07,0-.1l0,0c0-.12.09-.18,0-.27l-.06.05c0-.08,0-.14.12-.17l0,.08a.44.44,0,0,0-.06-.3v0c-.12-.14-.2-.82-.36-1l-.1.05-.08-.11s.32.06.29.07a11.84,11.84,0,0,1,0-1.58c.06-.08.16,0,.17,0s-.1,0-.09-.14.08,0,.09,0,0-.08,0-.08-.16,0-.24,0l0-.1h.07s-.2-.07-.16-.18a5.27,5.27,0,0,0,0-.56.15.15,0,0,1,.1.09s0-.07,0-.09-.05-.08-.09,0c-.18-.15,0-.31-.13-.44s-2.89-.43-3.09-.44a.13.13,0,0,1,0-.08s-.07.08,0,.12h.11c0,.09-.07,0-.06.1s-.11-.08-.11-.15-.08.12,0,.16-.11,0-.15,0,.11.13.06.19h0c-.09.14.13.22,0,.35h0c-.06,0,0,.14-.05.22s.09,0,.09,0,0,.16-.07.23l.08.07c0,.34.05,1.68.05,2h0c0,.52,0,1.58.09,2.12-.09.08-.07.19-.1.28s.1,0,.09,0c0,.26.06,0,.09.28a6.86,6.86,0,0,1-.13,1.71c.12.15,0,.33.09.47l0,0c.05.16-.09,1,0,1.18l0,0c.07.16-.07.13-.11.25a.22.22,0,0,1,.22.17h0a2,2,0,0,1,.16.38h-.08c.08.11,0,.3.05.37s-.18.43-.08.66l-.23.13,0,0s2.64.4,3.21.12h.08v-.06c0-.07-.05-.11,0-.1v.1c0-.07.06,0,.1,0a.2.2,0,0,1,0-.08s0,0-.05,0-.09-.1-.06-.15.13,0,.14-.08a9,9,0,0,0,.17-1.37s0,0,0,0c0-.15,0-.27,0-.4a.27.27,0,0,1,.11,0C518.11,165.73,518.12,165,518.14,165Z"/><path class="cls-15" d="M531.53,166.33c.08,0,.09-.09.11-.14S531.52,166.27,531.53,166.33Z"/><polygon class="cls-15" points="531.64 166.19 531.64 166.19 531.64 166.19 531.64 166.19"/><path class="cls-15" d="M528.2,155.47v0Z"/><path class="cls-15" d="M532,163.54l-.13,0c0-.13.16,0,.12-.15-.19-.06,0-.2-.07-.25s0-.05.08-.05c-.1,0,0-.06-.05-.1s0,0-.06,0l0-.09s.1,0,.11,0a7.77,7.77,0,0,0,.13-1.53c-.08,0,0,.1-.15.13s0-.09,0-.12c.19,0,0-.14.24-.19l-.11,0,.07,0c-.1-.28,0-.07,0-.31s-.16-.2-.1-.28-.07,0-.1,0-.06-.1,0-.12,0-.15-.13-.11c.07,0,.09-.12.15-.06s0-.07,0-.09l0,0c0-.11.08-.17,0-.25l0,0c0-.07,0-.13.11-.15l0,.07a.44.44,0,0,0-.07-.28v0c-.12-.12-.21-.77-.36-.88l-.1,0-.08-.09s.32.05.28.06a10.39,10.39,0,0,1,0-1.48c0-.07.15,0,.17,0s-.1,0-.09-.12.07,0,.09,0,0-.07,0-.07-.15,0-.23,0v-.1h.08s-.21-.07-.17-.17a4.73,4.73,0,0,0,0-.53s.07.05.1.08,0-.05,0-.07-.06-.08-.09-.05c-.19-.14,0-.29-.13-.41l-3.1-.42s0-.07,0-.08-.07.07,0,.11h.11c0,.09-.06,0-.06.1s-.1-.07-.11-.14-.08.12,0,.15-.11,0-.15.05.11.12.06.17h0c-.09.13.13.22,0,.34l0,0c-.06,0,0,.14,0,.21s.09,0,.09,0,0,.16-.07.22l.08.07c0,.32.06,1.58.07,1.91v0a19.37,19.37,0,0,0,.09,2c-.08.08-.07.19-.09.27s.09,0,.09,0c0,.25.06,0,.09.27a5.68,5.68,0,0,1-.13,1.6c.12.13,0,.3.1.43h0c0,.14-.1.93-.06,1.1l0,0c.07.15-.06.12-.11.24a.23.23,0,0,1,.23.16h0a1.67,1.67,0,0,1,.15.35h-.07c.08.1,0,.28,0,.35s-.17.4-.08.62l-.22.12,0,0a12,12,0,0,0,3.21.13h.07v0c0-.07,0-.11,0-.1v.1c0-.07.06,0,.11,0a.2.2,0,0,1,0-.08s0,0,0,0-.1-.1-.06-.14.12,0,.14-.08a7,7,0,0,0,.16-1.29s0,0,0,0c0-.14,0-.25,0-.38a.34.34,0,0,1,.12,0C531.92,164.23,531.94,163.55,532,163.54Z"/><path class="cls-15" d="M499.23,169.4a.15.15,0,0,0,.11-.15A.16.16,0,0,0,499.23,169.4Z"/><polygon class="cls-15" points="499.35 169.25 499.34 169.25 499.34 169.25 499.35 169.25"/><path class="cls-15" d="M495.9,158.54v0A.06.06,0,0,0,495.9,158.54Z"/><path class="cls-15" d="M499.66,166.6h-.14c0-.13.16,0,.13-.16-.19-.05,0-.2-.07-.24s0-.06.08-.05c-.11,0,0-.06-.05-.1s0,0-.06,0l0-.09s.1,0,.11,0a8.73,8.73,0,0,0,.13-1.54c-.08,0,0,.11-.16.13s0-.09,0-.12c.19,0,.05-.14.24-.18l-.11,0,.07,0c-.1-.28-.05-.07,0-.31s-.16-.21-.1-.28-.07,0-.1,0-.06-.1,0-.11,0-.15-.12-.11c.06,0,.09-.12.15-.06s0-.07,0-.09l0,0c0-.12.08-.18,0-.26l0,0c0-.06,0-.12.11-.15l0,.07a.42.42,0,0,0-.08-.28v0c-.12-.13-.21-.77-.36-.89l-.1,0-.08-.1s.31.06.28.07a10.38,10.38,0,0,1,0-1.48c.06-.08.16,0,.18,0s-.11,0-.1-.12.08,0,.09,0,0-.07,0-.08-.16,0-.23,0v-.1h.08s-.21-.07-.17-.16a4.73,4.73,0,0,0,0-.53c.05,0,.07,0,.1.08s0-.06,0-.08-.05-.07-.08,0c-.19-.14,0-.29-.14-.41l-3.09-.43s0-.07,0-.08a.08.08,0,0,0,0,.12h.11c0,.09-.07,0-.06.1s-.11-.08-.11-.15-.08.12,0,.15-.1,0-.14.06.11.12.05.17h0c-.1.13.12.21,0,.33h0c-.05,0,0,.13,0,.21s.08,0,.09,0,0,.15-.07.22l.08.07c0,.31.06,1.58.07,1.9h0a19.41,19.41,0,0,0,.1,2c-.08.07-.07.18-.09.26s.09,0,.09,0c0,.24.06,0,.09.26a5.68,5.68,0,0,1-.13,1.6c.12.14,0,.3.09.44l0,0c0,.14-.1.94-.06,1.1l0,0c.07.15-.06.12-.11.23a.24.24,0,0,1,.23.17h0a1.77,1.77,0,0,1,.15.36h-.08c.08.1,0,.28.05.35s-.18.4-.08.61l-.22.13,0,0a12.36,12.36,0,0,0,3.2.13h.08v-.06c0-.06-.05-.1,0-.09v.09c0-.07.06,0,.1,0a.12.12,0,0,1,.05-.07s0,0-.05,0-.1-.09-.06-.13.12,0,.13-.08a7.13,7.13,0,0,0,.17-1.29s0,0,.05,0,0-.25-.05-.37a.31.31,0,0,1,.12-.05C499.63,167.3,499.65,166.61,499.66,166.6Z"/><path class="cls-15" d="M536.81,122c.09,0,.09-.08.11-.14S536.8,121.91,536.81,122Z"/><polygon class="cls-15" points="536.92 121.83 536.92 121.83 536.92 121.83 536.92 121.83"/><path class="cls-15" d="M533.48,111.12v0A0,0,0,0,0,533.48,111.12Z"/><path class="cls-15" d="M537.24,119.18h-.14c0-.14.16,0,.13-.16-.2-.05,0-.2-.08-.24s0-.06.09-.06c-.11,0,0-.06,0-.1s0,0-.07,0l0-.08s.1,0,.11,0a9.67,9.67,0,0,0,.13-1.53c-.08,0,0,.1-.16.13s0-.09,0-.12c.19,0,0-.14.24-.18l-.1,0,.06,0c-.1-.27-.05-.06,0-.3s-.15-.21-.1-.29-.06,0-.09,0-.07-.1,0-.12,0-.14-.12-.11c.06,0,.09-.12.14-.06s0-.06,0-.09l0,.05c0-.12.09-.18,0-.26l-.05,0c0-.07,0-.13.12-.15l0,.07a.41.41,0,0,0-.07-.28v0c-.13-.12-.21-.76-.37-.88l-.1,0-.08-.1s.32.06.29.06a10.43,10.43,0,0,1,0-1.48c.06-.07.16,0,.17,0s-.1,0-.09-.13.08,0,.09,0,0-.06,0-.07-.16,0-.24,0v-.11h.08s-.21-.07-.16-.17,0-.35,0-.52c0,0,.07,0,.09.08s0-.06,0-.08,0-.08-.09-.05c-.18-.13,0-.29-.13-.4l-3.09-.43a.15.15,0,0,1,0-.08s-.07.08,0,.11l.1,0c0,.09-.06,0-.06.1s-.1-.08-.11-.15-.07.12,0,.15-.11,0-.15,0,.11.12.06.18h0c-.09.14.13.22,0,.34h0s0,.13,0,.21.08,0,.09,0,0,.15-.08.21l.09.07c0,.32.06,1.59.06,1.91h0a16.68,16.68,0,0,0,.1,2c-.09.08-.07.19-.1.27s.1,0,.09,0c0,.24.06,0,.09.26a5.68,5.68,0,0,1-.13,1.6c.12.13,0,.3.1.43h0c0,.14-.09.93,0,1.1v0c.08.14-.06.12-.1.23a.22.22,0,0,1,.22.16h0a3,3,0,0,1,.16.35h-.08c.08.11,0,.29,0,.36s-.18.39-.08.61l-.23.13,0,0a12.45,12.45,0,0,0,3.21.13h.08v-.06c0-.07,0-.1,0-.09v.09c0-.07.06,0,.1,0a.2.2,0,0,1,0-.08s0,0-.05,0-.09-.09-.06-.14.13,0,.14-.08a8,8,0,0,0,.17-1.29s0,0,0,0,0-.25,0-.37.08,0,.11,0S537.22,119.19,537.24,119.18Z"/><path class="cls-15" d="M526.06,128c.08,0,.09-.08.11-.14S526.05,127.94,526.06,128Z"/><polygon class="cls-15" points="526.17 127.86 526.17 127.86 526.17 127.86 526.17 127.86"/><path class="cls-15" d="M522.73,117.15v0Z"/><path class="cls-15" d="M526.48,125.21h-.13c0-.13.16,0,.12-.16-.19-.05,0-.2-.07-.24s0-.06.08,0c-.1,0,0-.07-.05-.11s0,0-.06,0l0-.08s.1,0,.11,0a7.77,7.77,0,0,0,.13-1.53c-.08,0,0,.11-.15.13s0-.09,0-.12c.19,0,0-.14.24-.18l-.11,0,.07,0c-.1-.28-.05-.07,0-.31s-.16-.21-.1-.29-.07,0-.1,0-.06-.1,0-.11,0-.15-.13-.12c.07,0,.09-.12.15,0s0-.07,0-.1l0,.05c0-.12.08-.18,0-.26l-.05,0c0-.07,0-.12.11-.15l0,.07a.47.47,0,0,0-.07-.28v0c-.12-.12-.21-.76-.36-.88l-.1,0-.08-.1s.32.06.28.06a10.42,10.42,0,0,1,0-1.48c0-.07.15,0,.17,0s-.1,0-.09-.13.07,0,.09,0,0-.06,0-.07-.15,0-.23,0v-.11h.08s-.21-.07-.17-.17a4.55,4.55,0,0,0,0-.52s.07,0,.1.08,0-.06,0-.08-.06-.08-.09,0c-.19-.13,0-.29-.13-.4l-3.1-.43s0-.07,0-.08a.09.09,0,0,0-.05.12h.11c0,.09-.06,0-.06.1s-.1-.08-.11-.15-.08.12,0,.15-.11,0-.15,0,.11.12.06.18h0c-.09.13.13.21,0,.33h0c-.06,0,0,.13,0,.21s.09,0,.09,0,0,.15-.07.21l.08.07c0,.32.06,1.59.07,1.91h0a19.05,19.05,0,0,0,.09,2c-.08.08-.07.19-.09.27s.09,0,.09,0c0,.24.06,0,.09.26a5.68,5.68,0,0,1-.13,1.6c.12.14,0,.3.1.43h0c0,.14-.1.93-.06,1.1l0,0c.07.14-.06.12-.11.23a.24.24,0,0,1,.23.16h0a1.93,1.93,0,0,1,.15.35H523c.08.11,0,.29,0,.36s-.17.39-.08.61l-.22.13,0,0a12.45,12.45,0,0,0,3.21.13h.07v-.06c0-.07,0-.1,0-.09v.09c0-.07.06,0,.11,0a.3.3,0,0,1,0-.08s0,0-.05,0-.1-.09-.06-.14.12,0,.14-.08a7,7,0,0,0,.16-1.29s0,0,.05,0,0-.25-.05-.37a.38.38,0,0,1,.12,0C526.45,125.91,526.47,125.22,526.48,125.21Z"/><path class="cls-15" d="M526.67,183.56a.17.17,0,0,0,.11-.14C526.7,183.46,526.66,183.5,526.67,183.56Z"/><polygon class="cls-15" points="526.78 183.42 526.78 183.42 526.78 183.42 526.78 183.42"/><path class="cls-15" d="M523.34,172.7v.05A0,0,0,0,0,523.34,172.7Z"/><path class="cls-15" d="M527.1,180.77l-.14,0c0-.13.16,0,.13-.15-.2,0,0-.2-.08-.25s0,0,.09,0c-.11,0,0-.06-.05-.1s0,0-.07,0l0-.09s.1,0,.11,0a9.67,9.67,0,0,0,.13-1.53c-.09,0,0,.1-.16.13s0-.09,0-.12c.19,0,0-.14.24-.19l-.1,0,.06,0c-.1-.28,0-.07,0-.31s-.15-.2-.1-.28-.07,0-.09,0-.07-.1,0-.12,0-.15-.13-.11c.07,0,.1-.12.15-.06s0-.06,0-.09l0,0c0-.11.09-.17,0-.25l-.05,0c0-.07,0-.13.11-.15l0,.07a.41.41,0,0,0-.07-.28v0c-.13-.12-.21-.76-.37-.88l-.1.05-.08-.1s.32.05.29.06a9.11,9.11,0,0,1,0-1.48c.06-.07.16,0,.17,0s-.1-.05-.09-.13.08,0,.09,0,0-.06,0-.07-.16,0-.24,0v-.1h.08s-.21-.07-.16-.17,0-.35,0-.53a.16.16,0,0,1,.09.09s0-.06,0-.08,0-.08-.09,0c-.18-.13,0-.29-.13-.41l-3.09-.42a.13.13,0,0,1,0-.08.07.07,0,0,0,0,.11l.1,0c0,.08-.06,0,0,.1s-.11-.08-.12-.15-.07.12,0,.15-.11,0-.15,0,.11.12.06.17h0c-.09.13.13.22,0,.34l0,0c0,.05,0,.14,0,.21s.08,0,.09,0,0,.16-.08.22l.09.07c0,.32.06,1.59.06,1.91v0a16.85,16.85,0,0,0,.1,2c-.09.08-.07.19-.1.27s.1,0,.09,0c0,.24.06,0,.09.26a5.68,5.68,0,0,1-.13,1.6c.12.13,0,.3.1.43h0c0,.14-.09.93,0,1.1l0,0c.07.14-.07.12-.11.23a.22.22,0,0,1,.22.16h0a2.36,2.36,0,0,1,.16.35h-.08c.08.1,0,.29,0,.35s-.18.4-.08.62l-.23.12,0,0a12.45,12.45,0,0,0,3.21.13h.08v-.05c0-.07,0-.11,0-.1l0,.1c0-.07.07,0,.11,0a.2.2,0,0,1,0-.08s0,0-.05,0-.09-.1-.06-.14.13,0,.14-.08a8,8,0,0,0,.17-1.29s0,0,0,0c0-.14,0-.25,0-.38s.08,0,.11,0S527.08,180.78,527.1,180.77Z"/><path class="cls-15" d="M524.43,152c.08,0,.09-.1.11-.16S524.42,152,524.43,152Z"/><polygon class="cls-15" points="524.54 151.88 524.54 151.88 524.54 151.88 524.54 151.88"/><path class="cls-15" d="M521.2,139.47v.05A0,0,0,0,0,521.2,139.47Z"/><path class="cls-15" d="M524.87,148.81l-.13,0c0-.15.15,0,.12-.17-.19-.07,0-.24-.07-.29s0-.06.08-.06c-.1,0,0-.07,0-.11s0,0-.07,0l0-.1s.1-.05.11,0a13.06,13.06,0,0,0,.14-1.77c-.09,0,0,.12-.16.15s0-.11-.05-.15c.19,0,.05-.15.25-.2l-.11,0,.07,0c-.1-.32-.05-.07,0-.35s-.16-.25-.1-.33-.07,0-.09,0-.07-.11,0-.13,0-.17-.12-.13c.06,0,.09-.14.14-.07s0-.08,0-.11l0,0c0-.13.08-.2,0-.3l0,0c0-.08,0-.15.11-.17l0,.08a.55.55,0,0,0-.07-.33v0c-.12-.15-.2-.9-.36-1l-.1.05-.08-.11s.32.06.29.07a14,14,0,0,1,0-1.72c.06-.09.16,0,.17,0s-.1,0-.09-.15.08,0,.09,0,0-.08,0-.09-.16,0-.24,0l0-.12h.07s-.2-.08-.16-.19,0-.42.05-.62a.15.15,0,0,1,.09.1s0-.07,0-.1-.05-.08-.08,0c-.19-.15,0-.33-.13-.47s-2.89-.45-3.09-.47a.17.17,0,0,1,0-.09.1.1,0,0,0,0,.13l.1,0c0,.1-.06,0-.06.11s-.1-.09-.11-.17-.08.14,0,.18-.11,0-.15.06.11.13.06.2h0c-.1.15.12.24,0,.38h0c-.05,0,0,.15,0,.24s.08,0,.09,0,0,.18-.08.25l.08.08c0,.37,0,1.83.05,2.2l0,0c0,.57,0,1.73.08,2.31-.09.09-.07.21-.1.31,0-.05.09,0,.09,0,0,.28.06,0,.08.31a7.71,7.71,0,0,1-.14,1.87c.12.16,0,.35.1.5h0c0,.16-.1,1.09-.06,1.28l0,0c.07.17-.07.14-.11.27.14,0,.21.14.22.19h0a2.11,2.11,0,0,1,.15.41h-.08c.08.12,0,.33,0,.41a1.3,1.3,0,0,0-.09.72l-.22.14,0,0s2.64.42,3.21.12h.07v-.07c0-.07,0-.11,0-.11l0,.11c0-.07.07,0,.11,0a.19.19,0,0,1,0-.09s0,0-.05,0-.09-.11-.06-.16.13,0,.14-.09a10.78,10.78,0,0,0,.18-1.5s0,0,0,0c0-.15,0-.29,0-.43s.08,0,.11-.05A2.94,2.94,0,0,1,524.87,148.81Z"/><path class="cls-15" d="M501.37,131.32c.08,0,.09-.1.11-.16S501.36,131.25,501.37,131.32Z"/><polygon class="cls-15" points="501.48 131.16 501.48 131.16 501.48 131.16 501.48 131.16"/><path class="cls-15" d="M498.14,118.75v0A0,0,0,0,0,498.14,118.75Z"/><path class="cls-15" d="M501.81,128.09l-.13,0c0-.15.16,0,.13-.17-.2-.07,0-.24-.08-.29s0-.06.08-.06c-.1,0,0-.07,0-.11s0,0-.07,0l0-.1s.1,0,.11,0a13.08,13.08,0,0,0,.14-1.78c-.09,0,0,.13-.16.16s0-.11-.05-.15c.19,0,.05-.15.25-.2l-.11,0,.07,0c-.1-.32-.05-.07,0-.35s-.15-.25-.1-.33-.07,0-.09,0-.06-.11,0-.13,0-.17-.12-.13c.06,0,.09-.14.15-.07s0-.08,0-.11l0,.05c0-.13.08-.2,0-.3l-.05.05c0-.08,0-.15.11-.17l0,.08a.54.54,0,0,0-.07-.33v0c-.12-.15-.2-.9-.36-1l-.1.06-.07-.12s.31.07.28.08a14,14,0,0,1,0-1.72c.06-.09.16,0,.17,0s-.1,0-.09-.15.08,0,.09,0,0-.08,0-.09-.16,0-.24,0l0-.12h.07s-.2-.08-.16-.19,0-.42.05-.62c0,0,.07,0,.1.1s0-.07,0-.1,0-.08-.09-.05c-.18-.15,0-.33-.12-.47s-2.89-.45-3.09-.47a.17.17,0,0,1,0-.09.1.1,0,0,0,0,.13l.1,0c0,.1-.06,0-.06.11s-.1-.09-.11-.17c0,.07-.08.14,0,.17s-.11,0-.15.07.11.13.05.2h0c-.1.15.12.24,0,.38h0c-.05,0,0,.15,0,.24s.08,0,.09,0,0,.18-.08.25l.08.08c0,.37,0,1.83,0,2.2l0,0c0,.57,0,1.73.08,2.31-.09.09-.07.21-.1.31s.1,0,.09,0c0,.28.06,0,.08.31a7.24,7.24,0,0,1-.14,1.87c.12.16,0,.35.1.5h0c0,.16-.1,1.09-.06,1.28v0c.08.17-.06.14-.11.27a.24.24,0,0,1,.23.19h0a2.11,2.11,0,0,1,.15.41h-.07c.07.12,0,.33,0,.41a1.3,1.3,0,0,0-.09.72l-.22.14,0,0s2.64.42,3.21.12h.07v-.07c0-.07-.05-.11,0-.11l0,.11c0-.08.07,0,.11,0a.19.19,0,0,1,0-.09s0,0,0,0-.09-.11-.06-.16.13,0,.14-.09a10.78,10.78,0,0,0,.18-1.5s0,0,0,0c0-.15,0-.29,0-.43s.08,0,.11-.05A2.94,2.94,0,0,1,501.81,128.09Z"/><path class="cls-15" d="M557.57,133.07c.08,0,.09-.1.11-.17S557.56,133,557.57,133.07Z"/><polygon class="cls-15" points="557.68 132.9 557.68 132.9 557.68 132.9 557.68 132.9"/><path class="cls-15" d="M554.34,120.5v0A0,0,0,0,0,554.34,120.5Z"/><path class="cls-15" d="M558,129.84l-.13,0c0-.15.16,0,.13-.18-.2-.06,0-.23-.08-.28s0-.07.08-.06c-.1,0,0-.07,0-.12s0,0-.07,0l0-.1s.1,0,.11,0a12.81,12.81,0,0,0,.14-1.77c-.09,0,0,.12-.16.15s0-.11-.05-.14c.19,0,.05-.16.25-.21l-.11,0,.07,0c-.1-.32,0-.08,0-.36s-.16-.24-.1-.33-.07,0-.09,0-.06-.12,0-.14,0-.17-.12-.13c.06,0,.09-.14.14-.07s0-.07,0-.1l0,.05c0-.14.08-.21,0-.3l0,.05c0-.08,0-.15.11-.18l0,.09a.52.52,0,0,0-.07-.33v0c-.12-.15-.2-.9-.36-1l-.1.06-.08-.12s.32.07.29.08a14.13,14.13,0,0,1,0-1.73c.06-.09.16,0,.17,0s-.1-.05-.09-.14.08,0,.09,0,0-.08,0-.08-.16,0-.24,0l0-.12h.07s-.2-.08-.16-.2,0-.41.05-.61c0,0,.07,0,.09.09s0-.07,0-.09-.05-.09-.09-.05c-.18-.16,0-.34-.12-.48s-2.89-.45-3.09-.46a.17.17,0,0,1,0-.09s-.07.08,0,.13h.1c0,.1-.06,0-.06.12s-.1-.09-.11-.17c0,.07-.08.13,0,.17s-.11,0-.15.06.11.14,0,.2h0c-.1.15.12.25,0,.39l0,0c0,.05,0,.15,0,.24s.09,0,.1,0,0,.18-.08.26l.08.07c0,.37,0,1.83.05,2.2h0c0,.56,0,1.72.08,2.31-.09.08-.08.21-.1.3s.09,0,.09,0c0,.29.06,0,.08.31a7.21,7.21,0,0,1-.14,1.87c.12.16,0,.35.1.51l0,0c0,.17-.1,1.09-.06,1.28v0c.08.17-.06.14-.11.27a.23.23,0,0,1,.23.19h0a2.52,2.52,0,0,1,.15.42h-.08c.08.11,0,.32.05.41a1.26,1.26,0,0,0-.09.71l-.22.15,0,0s2.63.43,3.21.13h.07v-.07c0-.08,0-.12,0-.11l0,.11c0-.08.07,0,.11,0a.36.36,0,0,1,0-.09s0,0-.05,0-.09-.11-.06-.16.13,0,.14-.09a10.63,10.63,0,0,0,.18-1.49s0,0,0,0c0-.16,0-.29,0-.43a.2.2,0,0,1,.11-.06A2.87,2.87,0,0,1,558,129.84Z"/><path class="cls-15" d="M514.14,139c.08,0,.09-.09.11-.14S514.13,138.9,514.14,139Z"/><polygon class="cls-15" points="514.25 138.82 514.25 138.82 514.25 138.82 514.25 138.82"/><path class="cls-15" d="M510.44,128.62v0A.06.06,0,0,0,510.44,128.62Z"/><path class="cls-15" d="M514.53,136.22h-.14c0-.13.16,0,.13-.15-.19-.05,0-.2-.08-.24s0-.06.09-.06c-.11,0,0-.06-.06-.09s0,0-.06,0l0-.09s.1,0,.11,0a8.39,8.39,0,0,0,.11-1.51c-.08,0,0,.11-.15.13s0-.09-.05-.11c.19,0,.05-.14.24-.19l-.11,0,.07,0c-.12-.27-.06-.06,0-.3s-.17-.2-.12-.28a.05.05,0,0,1-.09,0c.09,0-.07-.09,0-.11s0-.15-.13-.11c.07,0,.09-.12.15-.06s0-.07,0-.09l0,0c0-.11.08-.18,0-.25l0,0c0-.07,0-.12.11-.15l0,.07a.45.45,0,0,0-.09-.28v0c-.13-.12-.25-.75-.41-.86l-.1.06-.08-.1s.32,0,.28.05a9,9,0,0,1,0-1.46c0-.08.15,0,.17,0s-.11,0-.1-.12.07,0,.09,0,0-.07,0-.07-.15,0-.23,0v-.1h.07s-.21,0-.17-.15a4.69,4.69,0,0,0,0-.53s.07,0,.1.07a.09.09,0,0,1,0-.08c-.08.05,0-.07-.08,0-.2-.12,0-.29-.16-.39s-2.91-.13-3.11-.12a.12.12,0,0,1,0-.07.07.07,0,0,0,0,.11h.11c0,.08-.06,0-.05.1s-.11-.07-.12-.13-.07.12,0,.14-.1,0-.14.06.11.11.06.16h0c-.09.13.14.19.05.31h0c0,.05,0,.13,0,.2s.08,0,.09,0,0,.15-.06.22l.09,0c0,.3.14,1.49.16,1.79h0a15.56,15.56,0,0,0,.2,1.89c-.08.07,0,.17-.08.25s.1,0,.1,0c0,.23.05,0,.1.25a5.63,5.63,0,0,1-.11,1.54c.12.13,0,.29.1.41h0c.05.14-.08.9,0,1.06l0,0c.07.14-.06.11-.11.22a.23.23,0,0,1,.23.16h0a2.75,2.75,0,0,1,.16.34h-.08c.08.09.05.27.05.33s-.17.38-.07.59l-.22.12,0,0a12.83,12.83,0,0,0,3.21.14h.07v-.06c0-.07,0-.1,0-.09v.09c0-.07.06,0,.11,0a.09.09,0,0,1,0-.08s0,0,0,0-.1-.09-.06-.13.12,0,.13-.08a6.68,6.68,0,0,0,.15-1.27s0,0,0,0,0-.25,0-.37a.17.17,0,0,1,.11,0C514.51,136.9,514.52,136.23,514.53,136.22Z"/><path class="cls-15" d="M535.65,146.83a.19.19,0,0,0,.11-.18A.2.2,0,0,0,535.65,146.83Z"/><polygon class="cls-15" points="535.76 146.65 535.76 146.65 535.76 146.66 535.76 146.65"/><path class="cls-15" d="M531.79,133.86v0A.07.07,0,0,0,531.79,133.86Z"/><path class="cls-15" d="M536.11,143.36l-.14,0c0-.16.16,0,.12-.19-.19-.06,0-.25-.08-.3s0-.07.08-.06c-.1,0,0-.08-.05-.12s0,0-.06,0l0-.11s.1-.05.11,0a13.22,13.22,0,0,0,.09-1.89c-.08,0,0,.13-.15.16s0-.11,0-.15c.19,0,0-.17.23-.23l-.1,0,.06,0c-.12-.34-.06-.08,0-.39s-.17-.25-.12-.35-.07.05-.09,0-.08-.12,0-.15,0-.19-.13-.13c.06,0,.08-.16.14-.09s0-.08,0-.11l0,.05c0-.14.07-.23,0-.32l-.05.06c0-.09,0-.16.11-.2l0,.09a.71.71,0,0,0-.09-.36v0c-.14-.15-.26-1-.43-1.1l-.09.07-.09-.12s.32.05.29.06c0-.26-.18-1.63-.13-1.88,0-.1.15,0,.17,0s-.11,0-.11-.14.08,0,.09,0,0-.09,0-.09-.15.05-.23.08v-.14h.08s-.22,0-.18-.19,0-.45,0-.67c.05,0,.08,0,.11.09s0-.08,0-.11-.06-.08-.09,0c-.2-.14,0-.36-.18-.49s-2.91,0-3.11,0c0-.05,0-.09,0-.1s-.07.1,0,.14H532c0,.1-.06,0-.05.13s-.11-.07-.12-.15c0,.07-.07.15,0,.17s-.11,0-.14.09.12.12.08.19h0c-.08.17.15.23.07.38h0c0,.06,0,.15,0,.25s.08-.06.1,0,0,.18,0,.26l.09.07c0,.38.26,1.83.26,2.22h0c.06.58.09,1.77.22,2.37-.08.09-.06.22-.08.32,0-.06.1,0,.1,0,0,.3.05,0,.1.32a8.07,8.07,0,0,1-.09,2c.13.16,0,.37.11.53l0,0c0,.18-.07,1.15,0,1.35l0,0c.07.17-.07.14-.11.28.14,0,.21.14.22.19h0a3.47,3.47,0,0,1,.15.43h-.08a.82.82,0,0,1,0,.43,1.39,1.39,0,0,0-.09.75l-.23.15,0,0s2.63.44,3.2.11h.08v-.07c0-.08,0-.13,0-.12v.12c0-.08.06,0,.1,0a.16.16,0,0,1,0-.09s0,0,0,0-.1-.12-.06-.17.13,0,.14-.1a10.88,10.88,0,0,0,.19-1.61s0,0,0,0c0-.17,0-.31,0-.46s.08,0,.11-.07A2.83,2.83,0,0,1,536.11,143.36Z"/><path class="cls-15" d="M537.22,183.15c.09,0,.1-.1.11-.17S537.21,183.08,537.22,183.15Z"/><polygon class="cls-15" points="537.34 182.98 537.34 182.98 537.33 182.98 537.34 182.98"/><path class="cls-15" d="M533.36,170.18a.09.09,0,0,0,0,0A.09.09,0,0,0,533.36,170.18Z"/><path class="cls-15" d="M537.68,179.68h-.14c0-.16.16,0,.12-.2s0-.24-.08-.29,0-.08.08-.07c-.1,0,0-.08,0-.12s0,0-.06,0l0-.1s.1,0,.11,0a13.08,13.08,0,0,0,.09-1.89c-.08,0,0,.13-.15.17s0-.12,0-.15c.19,0,0-.18.23-.24l-.1,0,.06,0c-.12-.34-.06-.08,0-.38s-.17-.26-.12-.36-.07.06-.09,0-.08-.12,0-.14,0-.19-.13-.14c.06,0,.08-.16.14-.08s0-.09,0-.12l0,.06c0-.15.07-.23-.05-.33l0,.06c0-.09,0-.16.11-.2l0,.09a.68.68,0,0,0-.09-.35v0c-.13-.15-.26-1-.43-1.09l-.09.07-.09-.12s.32,0,.29.06c0-.26-.18-1.64-.13-1.88s.15,0,.17,0-.11-.05-.11-.15.08,0,.09,0,0-.08,0-.08-.15,0-.23.07v-.13h.08s-.22-.06-.18-.19,0-.46,0-.68c0,0,.08.05.11.09s0-.07,0-.1-.06-.09-.09,0c-.2-.15,0-.37-.18-.5s-2.91,0-3.11,0a.15.15,0,0,1,0-.1.1.1,0,0,0,0,.14h.11c.05.09-.06,0,0,.12s-.11-.07-.12-.15c0,.07-.07.15,0,.17s-.11,0-.14.09.12.12.08.19h0c-.08.17.15.23.07.39l0,0c-.05.06,0,.16,0,.25s.08-.05.1,0,0,.18-.05.27l.09.06c0,.38.26,1.84.26,2.23v0c.06.58.09,1.77.22,2.37-.08.09-.06.22-.08.32,0-.06.1,0,.1,0,0,.3.06,0,.1.32a8,8,0,0,1-.09,2c.13.17,0,.37.11.53h0c.05.17-.07,1.15,0,1.35l0,0c.07.17-.07.15-.11.28.14,0,.21.14.22.2h0a4.18,4.18,0,0,1,.15.43h-.08a.82.82,0,0,1,0,.43,1.41,1.41,0,0,0-.09.75l-.22.16,0,0s2.63.44,3.2.12h.08V183c0-.08,0-.12,0-.11V183c0-.08.06,0,.1,0a.19.19,0,0,1,0-.1s0,0,0,0-.1-.11-.06-.17.13,0,.14-.1a10.88,10.88,0,0,0,.19-1.61s0,0,0,0c0-.16,0-.31,0-.46a.2.2,0,0,1,.11-.06A2.91,2.91,0,0,1,537.68,179.68Z"/><path class="cls-15" d="M557.63,177.81a.19.19,0,0,0,.11-.17A.18.18,0,0,0,557.63,177.81Z"/><polygon class="cls-15" points="557.75 177.63 557.75 177.63 557.74 177.64 557.75 177.63"/><path class="cls-15" d="M553.77,164.84v0A.07.07,0,0,0,553.77,164.84Z"/><path class="cls-15" d="M558.09,174.34H558c0-.16.16-.05.12-.2-.19-.06,0-.24-.08-.3s0-.07.08-.06c-.1,0,0-.08-.05-.13s0,0-.06,0l0-.11s.1-.05.11,0a13.22,13.22,0,0,0,.09-1.89c-.08,0,0,.13-.15.16s0-.11-.05-.15c.19,0,.05-.17.23-.23l-.1,0,.06,0c-.12-.35-.06-.08,0-.38s-.17-.26-.12-.36-.07,0-.09,0-.07-.12,0-.15,0-.19-.13-.14c.06,0,.08-.15.14-.07s0-.09,0-.12l0,0c0-.14.07-.23-.05-.32l0,.06c0-.09,0-.16.11-.2l0,.09a.71.71,0,0,0-.09-.36v.05c-.13-.16-.26-1-.42-1.1l-.1.07-.09-.12s.32,0,.29.06c0-.26-.18-1.63-.13-1.88s.15,0,.17,0-.11,0-.11-.14.08,0,.09,0,0-.09,0-.09-.15,0-.23.08v-.14h.08s-.21-.05-.18-.19,0-.45,0-.67c0,0,.08,0,.11.09s0-.08,0-.11-.06-.08-.09,0c-.2-.14,0-.36-.18-.49s-2.91,0-3.11,0c0,0,0-.09,0-.1s-.07.1,0,.14H554c0,.1-.06,0-.05.13s-.11-.07-.12-.15c0,.07-.07.15,0,.17s-.11,0-.14.09.12.12.08.19h0c-.08.17.15.23.07.38h0c0,.06,0,.15,0,.25s.08-.06.1,0,0,.18-.05.26l.09.07c0,.38.26,1.84.26,2.22h0c.06.58.09,1.77.22,2.37-.08.09-.06.22-.08.32,0-.06.1,0,.1,0,0,.3.06,0,.1.32a8.07,8.07,0,0,1-.09,2c.13.16,0,.37.11.53l0,0c0,.18-.07,1.15,0,1.35l0,0c.07.18-.07.15-.11.29.14,0,.21.14.22.19h0a2.66,2.66,0,0,1,.15.43h-.08a.82.82,0,0,1,0,.43,1.39,1.39,0,0,0-.09.75l-.22.15,0,0s2.63.44,3.2.11h.08v-.07c0-.08,0-.13,0-.12v.12c0-.08.06,0,.11,0a.11.11,0,0,1,0-.09s0,0,0,0-.1-.12-.06-.17.13,0,.14-.1a10.88,10.88,0,0,0,.19-1.61s0,0,0,0c0-.16,0-.31,0-.46a.2.2,0,0,1,.11-.06A3.32,3.32,0,0,1,558.09,174.34Z"/><path class="cls-15" d="M544.73,165.12a.22.22,0,0,0,.1-.18A.18.18,0,0,0,544.73,165.12Z"/><polygon class="cls-15" points="544.83 164.94 544.83 164.93 544.83 164.94 544.83 164.94"/><path class="cls-15" d="M541.57,152v0Z"/><path class="cls-15" d="M544.89,161.86h-.14c0-.15.16,0,.13-.18-.19-.06,0-.24-.08-.29s0-.06.08-.06c-.1,0,0-.07,0-.11s0,0-.06,0l0-.1s.1,0,.11,0a11.66,11.66,0,0,0,.1-1.78c-.08,0,0,.12-.15.15s0-.11,0-.15c.19,0,0-.16.24-.2l-.11,0,.07,0c-.11-.33-.06-.08,0-.37s-.15-.25-.09-.34-.07,0-.09,0-.06-.12,0-.14,0-.18-.12-.14c.07,0,.1-.14.15-.06s0-.08,0-.11l0,0c0-.14.09-.21,0-.31l0,.05c0-.09,0-.16.12-.18l0,.09a.59.59,0,0,0-.05-.35v0c-.11-.15-.17-.94-.31-1.09l-.11.06-.07-.13s.31.09.28.1a10.57,10.57,0,0,1,.16-1.8c.07-.09.16,0,.18,0s-.1-.06-.08-.16.07,0,.09,0,0-.08,0-.09-.16,0-.24,0l0-.12h.07s-.2-.09-.14-.21.05-.43.1-.64c0,0,.06.06.09.11s0-.07,0-.1,0-.09-.08-.06c-.17-.17,0-.35-.09-.5s-2.84-.68-3-.71a.29.29,0,0,1,0-.1.11.11,0,0,0,0,.14l.1,0c0,.11-.06,0-.07.12s-.09-.1-.09-.19c0,.08-.09.14,0,.19s-.11,0-.16.05.1.16,0,.22h0c-.11.15.11.27,0,.41l0,0c-.06.05,0,.17-.07.26s.09,0,.1,0,0,.19-.11.26l.08.09c0,.39-.14,1.95-.13,2.36v0c0,.61-.09,1.85,0,2.49-.09.09-.08.22-.11.32s.1,0,.09,0c0,.31.06,0,.09.34a9.36,9.36,0,0,1-.11,2.06c.13.17,0,.39.11.56l0,0a5.75,5.75,0,0,1,0,.7,4.33,4.33,0,0,0,0,.72l0,0c.09.18-.05.16-.08.31.14,0,.23.13.24.19h0a3,3,0,0,1,.19.43h-.07a1,1,0,0,1,.08.45,1.5,1.5,0,0,0,0,.79l-.21.2,0,0s2.65,0,3.19-.4h.08v-.07c0-.08-.06-.11,0-.11v.11c0-.08.06,0,.11,0a.16.16,0,0,1,0-.09s0,0,0,0-.11-.1-.08-.15.13,0,.13-.11a9.42,9.42,0,0,0,0-1.5s0,0,.05,0c0-.15,0-.28-.08-.42s.08,0,.11-.07S544.86,161.87,544.89,161.86Z"/><path class="cls-15" d="M546.07,136.18c.09,0,.1-.08.12-.13S546.07,136.12,546.07,136.18Z"/><polygon class="cls-15" points="546.19 136.05 546.19 136.05 546.19 136.05 546.19 136.05"/><path class="cls-15" d="M543.16,125.2v0A0,0,0,0,0,543.16,125.2Z"/><path class="cls-15" d="M546.72,133.4l-.14,0c0-.13.16,0,.14-.15-.19-.07,0-.2-.05-.26s0-.06.09-.05c-.11,0,0-.06,0-.1s0,0-.07,0l0-.09s.11,0,.11,0a9.22,9.22,0,0,0,.27-1.6c-.09,0,0,.11-.17.12s0-.09,0-.13c.19,0,.07-.14.26-.17l-.1,0,.06,0c-.08-.31,0-.07,0-.34s-.15-.24-.09-.32a.06.06,0,0,1-.09,0c.09,0-.06-.11,0-.12s0-.17-.12-.14c.07,0,.1-.12.15-.05s0-.07,0-.1l0,0c0-.13.1-.19,0-.28l-.06,0c0-.08,0-.14.13-.16l0,.08a.54.54,0,0,0-.05-.31v0c-.11-.14-.18-.87-.33-1l-.1.05-.08-.11s.32.07.28.08,0-.48,0-.84a5.31,5.31,0,0,1,0-.85c.06-.09.16,0,.18,0s-.11,0-.1-.14.08,0,.09,0,0-.08,0-.08-.16,0-.24.06v-.12h.08s-.21-.06-.17-.18a2.82,2.82,0,0,0,0-.64s.08.05.11.09,0-.07,0-.1-.07-.09-.1,0c-.2-.14,0-.36-.19-.48s-2.9.2-3.09.25c0,0,0-.06,0-.07a.07.07,0,0,0,0,.11l.11,0c0,.07-.06,0-.05.1s-.11,0-.13-.1-.06.11,0,.12-.11,0-.14.07.12.07.07.12h0c-.08.11.15.15.07.26h0s0,.1,0,.17.08,0,.09,0,0,.12-.05.19l.08.06c0,.29.12,1.47.09,1.81h0c0,.48-.06,1.48,0,2-.09.07-.08.18-.11.26s.09,0,.09,0c0,.25.06,0,.07.28a6.71,6.71,0,0,1-.27,1.69c.1.15,0,.32,0,.47l0,0c0,.16-.18,1-.16,1.18l0,0c.06.16-.07.12-.13.24a.24.24,0,0,1,.22.19h0a2.22,2.22,0,0,1,.13.39h-.08c.07.11,0,.3,0,.39s-.21.44-.13.69l-.23.14,0,0s.66.1,1.38.17a5.81,5.81,0,0,0,1.83,0h.08V136c0-.06,0-.1,0-.09V136c0-.06.06,0,.1,0a.14.14,0,0,1,0-.08s0,0,0,0-.09-.09-.05-.14.12,0,.14-.07a9.5,9.5,0,0,0,.26-1.27s0,0,0,0c0-.14,0-.26,0-.39a.28.28,0,0,1,.12,0C546.62,134.12,546.7,133.41,546.72,133.4Z"/><path class="cls-15" d="M508.63,183.09a.16.16,0,0,0,.11-.13C508.66,183,508.62,183,508.63,183.09Z"/><polygon class="cls-15" points="508.75 182.96 508.75 182.95 508.74 182.96 508.75 182.96"/><path class="cls-15" d="M505.71,172.1v0A.08.08,0,0,0,505.71,172.1Z"/><path class="cls-15" d="M509.27,180.31l-.14,0c0-.14.16,0,.14-.15-.19-.07.05-.21,0-.26s0-.06.09-.05c-.1,0,0-.06,0-.11s0,0-.07,0l0-.1s.1,0,.1,0a9.22,9.22,0,0,0,.27-1.6c-.08,0,0,.11-.17.12s0-.09,0-.13c.19,0,.06-.14.25-.17l-.1,0,.07,0c-.08-.31-.05-.07,0-.34s-.14-.24-.08-.32-.07,0-.1,0-.05-.11,0-.12,0-.17-.11-.14c.06,0,.1-.12.15,0s0-.07,0-.1l0,0c0-.13.1-.19,0-.28l-.06,0c0-.08,0-.14.13-.16l0,.08a.51.51,0,0,0,0-.32v0c-.11-.14-.18-.87-.33-1l-.1.05-.08-.11s.32.07.29.08v-.84a4.08,4.08,0,0,1,0-.85c.05-.09.15,0,.17,0s-.11,0-.1-.14.08,0,.09,0,0-.08,0-.08-.16,0-.24.06v-.12h.08s-.21-.06-.17-.18a3.48,3.48,0,0,0,0-.64s.07,0,.11.09,0-.07,0-.1-.06-.09-.09,0c-.21-.14-.06-.36-.2-.48s-2.9.19-3.09.25c0,0,0-.06,0-.07s-.07.08,0,.1h.11c0,.06-.06,0-.05.09s-.11,0-.12-.09-.07.11,0,.11-.11,0-.14.08.12.07.07.12h0c-.08.12.15.16.07.27h0s0,.1,0,.17.08,0,.09,0,0,.12,0,.19l.08.05c0,.3.12,1.48.09,1.82h0c0,.47-.06,1.48,0,2-.09.07-.08.18-.11.26s.1,0,.09,0c0,.25.06,0,.07.28a6.71,6.71,0,0,1-.27,1.69c.11.15,0,.32.05.47l0,0c0,.16-.19,1-.16,1.18l0,0c.06.16-.08.12-.13.24a.23.23,0,0,1,.21.19h0a3.75,3.75,0,0,1,.12.39l-.08,0c.07.12,0,.31,0,.4s-.21.44-.13.69l-.23.14,0,0s.66.11,1.39.18a5.75,5.75,0,0,0,1.82,0h.08v-.06c.05-.06,0-.1,0-.09l0,.09c0-.06.06,0,.1,0l.05-.07s0,0-.05,0-.09-.1-.05-.14.12,0,.14-.07a9.83,9.83,0,0,0,.26-1.27s0,0,0,0c0-.14,0-.26,0-.39a.34.34,0,0,1,.12,0C509.17,181,509.25,180.31,509.27,180.31Z"/><path class="cls-15" d="M554,155.08a.2.2,0,0,0,.1-.18C554,155,554,155,554,155.08Z"/><polygon class="cls-15" points="554.12 154.9 554.12 154.9 554.12 154.9 554.12 154.9"/><path class="cls-15" d="M550.12,142.43v0A.07.07,0,0,0,550.12,142.43Z"/><path class="cls-15" d="M554.3,151.76h-.14c0-.16.16,0,.12-.19-.2-.06,0-.24-.09-.29s0-.07.08-.06c-.11,0,0-.07,0-.12s0,0-.07,0l0-.1s.1-.05.11,0a12.09,12.09,0,0,0,0-1.81c-.08,0,0,.13-.15.16s0-.11,0-.14c.19,0,0-.17.23-.23l-.11,0,.07,0c-.12-.33-.06-.08,0-.37s-.17-.25-.11-.34-.07,0-.1,0-.07-.12,0-.14,0-.18-.13-.13c.06,0,.08-.15.14-.08s0-.08,0-.11l0,.05c0-.14.07-.22,0-.31l-.05.06c0-.09,0-.16.1-.19l0,.08a.66.66,0,0,0-.08-.34v.05c-.13-.15-.25-.92-.41-1.06l-.09.07-.09-.12s.32,0,.29.07a13.65,13.65,0,0,1-.06-1.8c.06-.09.16,0,.17,0s-.1-.05-.09-.14.07,0,.09,0,0-.09,0-.09-.16,0-.23.06v-.13h.08s-.21-.07-.17-.19,0-.44,0-.64c0,0,.07,0,.1.09s0-.08,0-.1,0-.09-.09-.05c-.19-.15,0-.35-.15-.48s-2.91-.22-3.11-.22c0,0,0-.08,0-.09a.09.09,0,0,0,0,.13h.11c0,.1-.06,0,0,.12s-.11-.08-.12-.16c0,.07-.08.15,0,.17s-.11,0-.14.08.11.13.06.2h0c-.09.16.13.24.05.39l0,0c-.05.06,0,.16,0,.25s.08-.05.09,0,0,.18-.07.26l.09.07c0,.38.15,1.86.17,2.24l0,0c.06.58.08,1.76.21,2.35-.09.1-.06.22-.08.32,0-.05.09,0,.09,0,0,.3.06,0,.1.32a8.36,8.36,0,0,1,0,1.94c.12.16,0,.37.12.53l0,0c.05.17,0,1.14,0,1.34l0,0c.08.17-.06.15-.1.29.14,0,.22.12.24.18h0a2,2,0,0,1,.18.41h-.08c.09.12.06.34.07.42s-.16.5-.05.75l-.22.17,0,0s2.66.21,3.21-.15H554v-.07c0-.08-.06-.12,0-.11v.11c0-.08.07,0,.11,0s0-.07,0-.09,0,0,0,0-.1-.1-.07-.15.13,0,.13-.11a9.75,9.75,0,0,0,.1-1.53s0,0,.05,0c0-.16,0-.3-.07-.44a.23.23,0,0,1,.12-.06C554.3,152.58,554.28,151.77,554.3,151.76Z"/><path class="cls-15" d="M182.5,173.93c3.34-1.32,7.27-.8,12.11,1.47s10.57,6.31,11.22,12.06-3.72,13.13-9.39,14.91-12.54-2.09-16.53-6.46-5.1-9.31-4.27-13.36A11.83,11.83,0,0,1,182.5,173.93Z"/><path class="cls-15" d="M249.8,399.33a37.28,37.28,0,1,1,37.27-37.27A37.32,37.32,0,0,1,249.8,399.33Zm0-73.3a36,36,0,1,0,36,36A36.07,36.07,0,0,0,249.8,326Z"/><path class="cls-15" d="M249.8,395.26a33.21,33.21,0,1,1,33.2-33.2A33.23,33.23,0,0,1,249.8,395.26Zm0-65.16a32,32,0,1,0,31.95,32A32,32,0,0,0,249.8,330.1Z"/><path class="cls-15" d="M249.8,391.19a29.13,29.13,0,1,1,29.13-29.13A29.17,29.17,0,0,1,249.8,391.19Zm0-57a27.88,27.88,0,1,0,27.88,27.88A27.91,27.91,0,0,0,249.8,334.18Z"/><path class="cls-15" d="M249.8,387.12a25.06,25.06,0,1,1,25.06-25.06A25.09,25.09,0,0,1,249.8,387.12Zm0-48.87a23.81,23.81,0,1,0,23.81,23.81A23.84,23.84,0,0,0,249.8,338.25Z"/><path class="cls-15" d="M249.8,383a21,21,0,1,1,21-21A21,21,0,0,1,249.8,383Zm0-40.72a19.74,19.74,0,1,0,19.73,19.74A19.76,19.76,0,0,0,249.8,342.32Z"/><path class="cls-15" d="M249.8,379a16.92,16.92,0,1,1,16.91-16.91A16.94,16.94,0,0,1,249.8,379Zm0-32.58a15.67,15.67,0,1,0,15.66,15.67A15.69,15.69,0,0,0,249.8,346.39Z"/></g></g></svg>